<?xml version="1.0" standalone="no"?>
<!DOCTYPE svg PUBLIC "-//W3C//DTD SVG 20010904//EN"
 "http://www.w3.org/TR/2001/REC-SVG-20010904/DTD/svg10.dtd">
<svg version="1.0" xmlns="http://www.w3.org/2000/svg"
 width="578.000000pt" height="578.000000pt" viewBox="0 0 578.000000 578.000000"
 preserveAspectRatio="xMidYMid meet">
<metadata>
Created by potrace 1.11, written by Peter Selinger 2001-2013
</metadata>
<g transform="translate(0.000000,578.000000) scale(0.100000,-0.100000)"
fill="#000000" stroke="none">
<path d="M1420 5755 c-360 -49 -683 -210 -939 -465 -132 -131 -222 -257 -306
-425 -73 -147 -113 -264 -147 -421 l-23 -109 -3 -2167 -2 -2168 2122 0 c2201
0 2205 0 2383 40 183 40 434 153 595 267 121 87 286 252 373 373 81 114 186
321 226 447 17 51 40 141 53 200 l23 108 3 2168 2 2167 -2132 -1 c-1694 -1
-2153 -4 -2228 -14z m1813 -959 c89 -17 189 -61 239 -105 113 -99 167 -291
124 -436 -21 -67 -79 -150 -131 -187 l-44 -31 57 -34 c140 -82 212 -230 199
-404 -10 -131 -64 -248 -150 -326 -54 -48 -184 -108 -281 -127 -102 -21 -307
-22 -427 -1 -94 16 -245 60 -252 73 -5 8 56 268 64 276 3 3 46 -8 95 -24 222
-75 474 -59 552 36 101 122 45 293 -110 339 -29 8 -113 18 -185 22 l-133 6 0
137 0 138 133 4 c147 4 208 23 247 77 49 70 44 169 -13 228 -72 76 -238 79
-402 7 -44 -19 -85 -38 -92 -41 -11 -4 -75 111 -116 209 l-16 37 43 25 c63 37
184 83 262 100 90 19 243 20 337 2z m-1038 -387 c78 -11 201 -45 209 -58 3 -4
-11 -69 -31 -143 l-35 -135 -62 20 c-45 16 -88 21 -166 21 -92 0 -111 -3 -153
-24 -105 -53 -148 -134 -155 -296 -7 -180 35 -281 138 -332 72 -35 217 -43
336 -17 43 9 85 18 93 18 11 2 20 -30 38 -128 13 -71 21 -135 19 -141 -2 -6
-42 -22 -88 -35 -71 -20 -106 -23 -243 -24 -182 0 -233 9 -345 63 -138 67
-241 194 -281 348 -84 328 21 636 269 783 132 79 284 105 457 80z m505 -1954
c36 -9 108 -36 160 -62 80 -39 108 -59 180 -132 99 -101 149 -181 189 -306 99
-309 44 -672 -135 -889 -71 -86 -141 -141 -239 -186 -131 -62 -197 -74 -380
-75 -175 0 -249 15 -378 74 -192 88 -338 272 -398 501 -32 126 -38 333 -11
460 38 183 96 294 222 420 114 115 225 173 395 206 88 17 305 11 395 -11z
m1911 -8 c102 -27 208 -71 215 -91 7 -20 -93 -281 -108 -279 -7 1 -53 16 -101
33 -243 86 -474 56 -599 -78 -87 -93 -128 -216 -128 -384 0 -386 195 -563 573
-521 98 11 181 33 259 67 l36 16 46 -138 c25 -75 46 -142 46 -148 0 -17 -107
-62 -218 -91 -90 -25 -113 -27 -302 -27 -181 0 -214 3 -284 22 -115 32 -216
85 -290 154 -156 142 -230 325 -243 595 -7 152 5 243 48 378 85 266 303 456
585 510 121 22 342 14 465 -18z m-3243 -809 l2 -808 -185 0 -185 0 0 803 c0
442 3 807 7 811 4 3 86 5 182 4 l176 -3 3 -807z"/>
<path d="M2346 2144 c-192 -61 -298 -240 -298 -504 0 -236 81 -401 237 -480
58 -29 79 -35 157 -38 165 -8 284 46 365 167 60 87 84 171 90 311 12 261 -73
442 -245 523 -58 27 -80 32 -162 34 -65 2 -110 -2 -144 -13z"/>
</g>
</svg>
