<?xml version="1.0" standalone="no"?>
<!DOCTYPE svg PUBLIC "-//W3C//DTD SVG 1.1//EN" "http://www.w3.org/Graphics/SVG/1.1/DTD/svg11.dtd" >
<svg xmlns="http://www.w3.org/2000/svg" xmlns:xlink="http://www.w3.org/1999/xlink" version="1.1">
<metadata>
Created by FontForge 20170924 at Sun Oct  2 17:53:20 2016
 By www-data
Copyright  2006 by Robert Alan Hillier. All rights reserved.
</metadata>
<defs>
<font id="SylexiadSansMedium-Bold" horiz-adv-x="242" >
  <font-face 
    font-family="Sylexiad Sans Medium"
    font-weight="700"
    font-stretch="normal"
    units-per-em="1000"
    panose-1="2 0 8 6 4 0 0 2 0 4"
    ascent="800"
    descent="-200"
    x-height="435"
    cap-height="608"
    bbox="-172 -304 910 796"
    underline-thickness="50"
    underline-position="-100"
    unicode-range="U+0020-FB02"
  />
<missing-glyph horiz-adv-x="1000" 
 />
    <glyph glyph-name=".notdef" horiz-adv-x="1000" 
 />
    <glyph glyph-name=".null" horiz-adv-x="0" 
 />
    <glyph glyph-name="nonmarkingreturn" horiz-adv-x="435" 
 />
    <glyph glyph-name="space" unicode=" " 
 />
    <glyph glyph-name="scaron" unicode="&#x161;" horiz-adv-x="417" 
d="M289 303q-8 14 -19 23.5t-23.5 15.5t-24.5 8.5t-21 2.5q-22 0 -37.5 -10t-15.5 -22q0 -16 11.5 -23.5t34.5 -12.5q30 -6 65.5 -14t66 -22.5t50.5 -39.5t20 -65q0 -31 -14 -58.5t-39 -48.5t-60 -33t-78 -12q-37 0 -69.5 10.5t-58 30t-42 46.5t-20.5 60l101 25
q11 -42 35.5 -62.5t53.5 -20.5q30 0 51.5 15t19.5 38q-1 16 -11.5 25.5t-26.5 15t-34 9t-34 6.5q-28 6 -53 16t-43.5 25.5t-29.5 37.5t-11 52q0 25 12.5 47t35 38.5t54 26t70.5 9.5q57 0 103.5 -28.5t69.5 -72.5zM152 622l57 -61l55 61h111l-113 -132h-108l-113 132h111z
" />
    <glyph glyph-name="Yacute" unicode="&#xdd;" horiz-adv-x="533" 
d="M527 608l-199 -297v-311h-124v310l-199 298h142l120 -179l119 179h141zM250 646h-92l81 132h136z" />
    <glyph glyph-name="yacute" unicode="&#xfd;" horiz-adv-x="504" 
d="M268 -303q-25 0 -56 5.5t-66 14.5l19 96q28 -11 58 -15t45 -4q35 0 45 14.5t10 30.5v201q-13 -15 -38.5 -28t-45.5 -13q-39 0 -72 16.5t-56.5 46t-36.5 69t-13 86.5v218h120v-218q0 -51 19 -85.5t48 -34.5q34 0 54.5 33t20.5 81v224h120v-596q0 -32 -8.5 -58t-29 -44.5
t-54 -29t-83.5 -10.5zM235 490h-92l81 132h136z" />
    <glyph glyph-name="Thorn" unicode="&#xde;" horiz-adv-x="531" 
d="M189 0h-125v686h126v-125h92q45 0 85 -14.5t69.5 -40t47 -59.5t17.5 -73t-17.5 -73t-47 -59.5t-69.5 -40t-85 -14.5h-93v-187zM189 289h93q40 0 67 24.5t27 60.5q0 18 -7 33.5t-20 27t-30 18.5t-37 7h-93v-171z" />
    <glyph glyph-name="thorn" unicode="&#xfe;" horiz-adv-x="528" 
d="M172 403q18 19 47 29t54 10q43 0 81 -17.5t66 -48t44 -71.5t16 -88t-16 -87.5t-44 -71.5t-66 -48.5t-81 -17.5q-24 0 -53 9.5t-48 29.5v-293h-111v922h111v-257zM170 222q0 -37 7.5 -62.5t20.5 -41t30 -22t36 -6.5t36.5 10t30.5 27t21 40.5t8 49.5q0 27 -8 50t-21 40.5
t-30.5 27.5t-36.5 10q-18 0 -35 -6t-30 -20.5t-21 -38t-8 -58.5z" />
    <glyph glyph-name="lslash" unicode="&#x142;" horiz-adv-x="237" 
d="M178 356l34 24l24 -86l-58 -44v-250h-120v153l-29 -24l-28 86l57 46v399h120v-304z" />
    <glyph glyph-name="Zcaron" unicode="&#x17d;" horiz-adv-x="570" 
d="M214 102h353v-102h-515v77l323 430h-323v101h484v-77zM229 778l56 -62l56 62h111l-113 -132h-109l-113 132h112z" />
    <glyph glyph-name="zcaron" unicode="&#x17e;" horiz-adv-x="408" 
d="M182 97h218v-97h-374v71l197 266h-197v98h352v-77zM148 622l56 -61l56 61h111l-113 -132h-109l-113 132h112z" />
    <glyph glyph-name="onehalf" unicode="&#xbd;" horiz-adv-x="730" 
d="M162 1h-93l387 594h91zM389 245v27q0 23 12.5 42t33.5 32.5t49 21t59 7.5t59 -9t49 -24t33.5 -35.5t12.5 -43.5q0 -41 -30.5 -70t-82.5 -42q-42 -10 -66.5 -30.5t-28.5 -42.5h208v-78h-308v67q0 30 11.5 55.5t31.5 45t47 33t58 20.5q22 5 41.5 18t19.5 31q0 9 -6 15.5
t-14 10.5t-18 5.5t-17 1.5q-27 0 -43 -10.5t-16 -28.5q0 -1 1 -9t1 -10h-97zM88 600h62v-296h50v-62h-183v62h47v214l-47 -24v72z" />
    <glyph glyph-name="onequarter" unicode="&#xbc;" horiz-adv-x="730" 
d="M229 1h-103l385 587h102zM644 360q-33 -65 -59 -116q-11 -22 -22 -42.5t-19 -37.5l-18 -36h80v80h81v-78h36v-69h-36v-61h-83v59h-183v57l124 244h99zM113 600h63v-296h49v-62h-183v62h48v214l-47 -24v72z" />
    <glyph glyph-name="onesuperior" unicode="&#xb9;" horiz-adv-x="209" 
d="M88 600h62v-296h50v-62h-183v62h47v214l-47 -24v72z" />
    <glyph glyph-name="threequarters" unicode="&#xbe;" horiz-adv-x="730" 
d="M36 591h259v-60l-64 -74q16 -6 30 -15t24.5 -21.5t16.5 -29.5t6 -41q0 -27 -11.5 -51t-31.5 -42t-47 -28.5t-57 -10.5q-58 0 -99 36.5t-48 100.5h95q5 -22 16.5 -38t35.5 -16q22 0 38.5 15t16.5 34q0 23 -17 37t-43 15h-30v51l52 59h-142v79zM645 360q-33 -65 -59 -116
q-11 -22 -22 -42.5t-19 -37.5l-18 -36h80v80h80v-78h37v-69h-37v-61h-82v59h-183v57l124 244h99zM251 1h-102q97 147 192 293t192 294h101z" />
    <glyph glyph-name="threesuperior" unicode="&#xb3;" horiz-adv-x="353" 
d="M36 591h259v-60l-64 -74q16 -6 30 -15t24.5 -21.5t16.5 -29.5t6 -41q0 -27 -11.5 -51t-31.5 -42t-47 -28.5t-57 -10.5q-58 0 -99 36.5t-48 100.5h95q5 -22 16.5 -38t35.5 -16q22 0 38.5 15t16.5 34q0 23 -17 37t-43 15h-30v51l52 59h-142v79z" />
    <glyph glyph-name="twosuperior" unicode="&#xb2;" horiz-adv-x="354" 
d="M24 468v27q0 23 12 42t32.5 32.5t48 21t59.5 7.5q31 0 58 -9t47 -24t31 -35t11 -43q0 -42 -30 -71t-83 -41q-42 -10 -62 -31t-24 -42h199v-79h-299v67q0 30 11.5 55.5t31.5 45t47 33t58 20.5q22 5 37 18t15 32q0 18 -16.5 25.5t-31.5 7.5q-27 0 -42 -11t-15 -28
q0 -1 1 -9.5t1 -10.5h-97z" />
    <glyph glyph-name="brokenbar" unicode="&#xa6;" horiz-adv-x="222" 
d="M51 243v323h119v-323h-119zM51 -131v322h119v-322h-119z" />
    <glyph glyph-name="minus" unicode="&#x2212;" horiz-adv-x="548" 
d="M63 149v98h422v-98h-422z" />
    <glyph glyph-name="multiply" unicode="&#xd7;" horiz-adv-x="548" 
d="M277 123q-35 -35 -74.5 -73.5t-68.5 -67.5l-78 77l143 140l-140 139l76 76l140 -139l140 139l76 -77l-140 -139q16 -17 34.5 -35t37 -37t36 -36.5l32.5 -32.5l-77 -76z" />
    <glyph glyph-name="Scaron" unicode="&#x160;" horiz-adv-x="571" 
d="M171 464q0 -17 10.5 -28t28 -18.5t40 -13t46.5 -10.5q43 -9 86.5 -20t78.5 -32t57.5 -54.5t22.5 -85.5q0 -46 -20 -84.5t-55 -66.5t-82 -43.5t-100 -15.5q-51 0 -96.5 16.5t-80 46t-56 68.5t-25.5 84l117 21q3 -31 16.5 -56t34 -42t46 -26.5t53.5 -9.5q27 0 50 8.5
t39 23.5t25 34.5t9 41.5t-11.5 36.5t-30.5 23.5t-44 14.5t-51 10.5h1q-43 8 -85 18t-75 29t-53.5 50t-20.5 80q0 31 19 59t51 48.5t75.5 32.5t92.5 12q41 0 78.5 -10t69 -27.5t55 -41.5t35.5 -53l-105 -45q-20 39 -58.5 57t-83.5 18q-47 0 -75.5 -14.5t-28.5 -35.5zM229 778
l57 -62l56 62h111l-113 -132h-109l-113 132h111z" />
    <glyph glyph-name="exclam" unicode="!" horiz-adv-x="222" 
d="M35 594q-1 17 5.5 29.5t17.5 20.5t24.5 12t27.5 4t28 -4t25 -12t18 -20.5t6 -29.5l-17 -391q-1 -20 -17.5 -33.5t-42.5 -13.5t-42.5 13.5t-17.5 33.5zM43 49q0 23 19.5 39.5t47.5 16.5t48 -16.5t20 -39.5q0 -24 -20 -40.5t-48 -16.5t-47.5 17t-19.5 40z" />
    <glyph glyph-name="quotedbl" unicode="&#x22;" horiz-adv-x="343" 
d="M32 623q3 23 21 33.5t40 10.5q24 0 43.5 -16t14.5 -43l-19 -95q-5 -22 -21 -32t-36 -10q-12 0 -23 4t-19 11.5t-12 17.5t-2 23h-1zM204 623q3 23 20.5 33.5t40.5 10.5q24 0 43.5 -16t14.5 -43l-19 -95q-5 -22 -21 -32t-36 -10q-12 0 -23 4t-19 11.5t-12 17.5t-2 23h-1z
" />
    <glyph glyph-name="numbersign" unicode="#" horiz-adv-x="485" 
d="M21 314h119l12 48h-119l18 73h118q10 38 21 81t19 79h75l-40 -160h48q10 38 20 81t20 79h74l-39 -160h118l-17 -73h-120l-12 -48h119l-18 -72h-118q-14 -59 -30 -122t-30 -120h-74l59 242h-47q-15 -59 -31 -122t-30 -120h-73l60 242h-120zM214 314h48l13 48h-48z" />
    <glyph glyph-name="dollar" unicode="$" horiz-adv-x="513" 
d="M222 -115v118q-42 6 -78 24t-63 45t-43.5 61.5t-20.5 73.5l104 19q6 -31 15 -52t21.5 -36t28.5 -25t36 -17v186q-37 7 -71 19t-59.5 31.5t-40.5 48.5t-15 71q0 27 13.5 52t38.5 44.5t59 32.5t75 18v67h76v-69q66 -7 110.5 -42t64.5 -81l-92 -43q-8 28 -29.5 48t-53.5 26
v-136q37 -8 72 -19.5t62 -31t43 -49.5t16 -75q0 -39 -14.5 -71t-40 -56.5t-61 -41t-77.5 -22.5v-118h-76zM370 186q0 30 -19 52t-53 30v-174q35 4 53.5 31.5t18.5 60.5zM151 450q0 -23 20 -40.5t51 -25.5v123q-31 -1 -51 -17.5t-20 -39.5z" />
    <glyph glyph-name="percent" unicode="%" horiz-adv-x="527" 
d="M20 487q0 24 9.5 45.5t26.5 37t40 24.5t49 9t49 -9t39.5 -24.5t26 -37t9.5 -45.5q0 -25 -9.5 -46.5t-26 -37t-39.5 -24.5t-49 -9t-49 9t-40 24.5t-26.5 37t-9.5 46.5zM256 109q0 24 9.5 45.5t26.5 37t40 24.5t49 9q25 0 48 -9t40 -24.5t27 -37t10 -45.5q0 -25 -10 -46.5
t-27 -37t-40 -24.5t-48 -9q-26 0 -49 9t-40 24.5t-26.5 37t-9.5 46.5zM27 0l374 595h93l-369 -595h-98zM97 485q0 -21 14 -37t34 -16t33 16t13 37t-13 37.5t-33 16.5t-34 -16.5t-14 -37.5zM334 108q0 -21 13.5 -37t33.5 -16t33.5 16t13.5 37t-13.5 37.5t-33.5 16.5
t-33.5 -16.5t-13.5 -37.5z" />
    <glyph glyph-name="ampersand" unicode="&#x26;" horiz-adv-x="557" 
d="M435 437q0 -23 -9.5 -43t-26 -37.5t-38 -31t-45.5 -23.5l92 -95v76h102v-103q0 -15 -4 -28.5t-11 -28.5l61 -61l-68 -72l-55 53q-29 -22 -67.5 -36.5t-83.5 -14.5q-47 0 -89 14.5t-73 40t-49 60t-18 73.5q0 45 24 82.5t66 64.5l-4 3q-23 23 -35.5 50.5t-12.5 56.5
q0 32 13.5 60.5t37 49.5t54.5 33t67 12t67 -12t54.5 -33t37 -49.5t13.5 -60.5zM290 90q20 0 37.5 6.5t27.5 17.5l-141 148q-20 -10 -30.5 -29t-10.5 -44q0 -19 10 -36.5t26 -31.5t37 -22.5t44 -8.5zM210 437q0 -31 17 -46l26 -25q25 6 44 24t19 45q0 25 -15 42t-38 17
q-22 0 -37.5 -16.5t-15.5 -40.5z" />
    <glyph glyph-name="quotesingle" unicode="'" horiz-adv-x="158" 
d="M27 623q4 23 21.5 33.5t39.5 10.5q12 0 24 -4.5t21 -12t13 -18.5t1 -24l-23 -93q-5 -21 -21 -31t-36 -10q-12 0 -23 4t-19 11t-12 17.5t-2 23.5l-1 -1z" />
    <glyph glyph-name="parenleft" unicode="(" horiz-adv-x="220" 
d="M129 260q0 -50 5.5 -96.5t15 -83.5t22.5 -59t27 -22l12 -81q-14 -5 -23 -7.5t-14 -4t-7.5 -1.5h-3.5q-32 0 -60 29.5t-49 78.5t-33 113.5t-12 133.5q0 70 12 134t33 113t49 78t60 29h3.5t7.5 -1t14 -3.5t23 -7.5l-12 -81q-14 0 -27 -22t-22.5 -58.5t-15 -83.5t-5.5 -97z
" />
    <glyph glyph-name="parenright" unicode=")" horiz-adv-x="221" 
d="M92 260q0 50 -5.5 97t-15 83.5t-22.5 58.5t-27 22l-13 81q29 10 37.5 11t11.5 1q32 0 60 -29t49 -78t33 -113t12 -134q0 -69 -12 -133.5t-33 -113.5t-49 -78.5t-60 -29.5q-3 0 -11.5 1.5t-37.5 11.5l13 81q14 0 27 22t22.5 59t15 83.5t5.5 96.5z" />
    <glyph glyph-name="asterisk" unicode="*" horiz-adv-x="206" 
d="M5 608h71l-52 48l16 16l52 -50v73h22v-71l49 51l15 -15l-49 -52h72v-21h-72l53 -49l-15 -16l-53 50v-72h-22v69l-49 -50l-15 15l49 53h-72v21z" />
    <glyph glyph-name="plus" unicode="+" horiz-adv-x="542" 
d="M334 150v-150h-119v149h-155v97h155v153h119v-153h147v-96h-147z" />
    <glyph glyph-name="comma" unicode="," horiz-adv-x="184" 
d="M13 60q0 28 22.5 48t55.5 20q34 0 56.5 -21t22.5 -51q0 -12 -6.5 -31t-16 -39.5t-19 -39.5l-15.5 -31h-89l30 92q-22 5 -31.5 22.5t-9.5 30.5z" />
    <glyph glyph-name="hyphen" unicode="-" horiz-adv-x="467" 
d="M448 285l-13 -97h-416l13 97h416z" />
    <glyph glyph-name="period" unicode="." horiz-adv-x="184" 
d="M13 60q0 28 22.5 48t55.5 20q34 0 56.5 -20t22.5 -48t-22.5 -48t-56.5 -20q-33 0 -55.5 20t-22.5 48z" />
    <glyph glyph-name="slash" unicode="/" horiz-adv-x="257" 
d="M-14 0l163 660h122l-162 -660h-123z" />
    <glyph glyph-name="zero" unicode="0" horiz-adv-x="513" 
d="M28 292q0 62 14 117t42.5 95.5t71.5 64t100 23.5t100 -23.5t71.5 -64t43 -95.5t14.5 -117t-14.5 -116.5t-43 -95.5t-71.5 -64.5t-100 -23.5t-100 23.5t-71.5 64.5t-42.5 95.5t-14 116.5zM148 292q0 -42 6.5 -78.5t19.5 -64t33.5 -43.5t48.5 -16t48.5 16t34 43.5t20 64
t6.5 78.5t-6.5 79t-20 64t-34 43t-48.5 16t-48.5 -16t-33.5 -43t-19.5 -64t-6.5 -79z" />
    <glyph glyph-name="one" unicode="1" horiz-adv-x="513" 
d="M222 584h90v-487h75v-97h-270v97h75v359l-75 -36v113z" />
    <glyph glyph-name="two" unicode="2" horiz-adv-x="513" 
d="M36 114q0 46 17 87t47 73.5t71 55.5t88 35q24 6 44.5 11t36.5 12.5t25 17.5t9 25q0 13 -8.5 24.5t-23.5 20t-35 13.5t-42 5q-23 0 -42.5 -5t-34.5 -13.5t-23.5 -20t-8.5 -24.5v-8t6 -31h-126v39q0 33 18 62.5t49 51.5t73 34.5t89 12.5t89 -12.5t73 -34.5t49 -51.5
t18 -62.5q0 -29 -13 -55t-37.5 -46.5t-59 -35.5t-76.5 -22q-30 -5 -57.5 -18t-48.5 -33t-33.5 -47t-12.5 -60v-17h338v-97h-458v114z" />
    <glyph glyph-name="three" unicode="3" horiz-adv-x="513" 
d="M59 584h391v-74l-93 -133q59 -25 95 -73.5t36 -108.5q0 -42 -19.5 -79t-52.5 -64.5t-76.5 -43.5t-90.5 -16q-45 0 -85 17t-71 46t-50.5 69t-23.5 85h120q3 -25 13 -46.5t25 -37.5t33.5 -25.5t38.5 -9.5q23 0 44.5 8t38 22.5t26.5 33.5t10 41t-12 41t-32.5 33t-48 22.5
t-58.5 8.5v73l78 114h-236v97z" />
    <glyph glyph-name="four" unicode="4" horiz-adv-x="513" 
d="M165 209h133v113h117v-113h74v-95h-74v-114h-117v114h-273v72l210 398h131z" />
    <glyph glyph-name="five" unicode="5" horiz-adv-x="513" 
d="M179 397h80q47 0 87.5 -15.5t70 -43.5t46 -66.5t16.5 -83.5q0 -42 -18 -78t-49 -62.5t-73 -41t-89 -14.5t-88.5 18.5t-72.5 50t-49 74t-18 90.5h120q0 -28 8.5 -52.5t23 -43t34 -29t42.5 -10.5q22 0 42 7t35 20t23.5 31t8.5 40t-7 42t-21 35.5t-34 25t-47 9.5h-191v284
h390v-97h-270v-90z" />
    <glyph glyph-name="six" unicode="6" horiz-adv-x="513" 
d="M255 497q-17 0 -34.5 -4.5t-32.5 -16t-26 -30.5t-15 -47q-2 -11 -3 -23t-1 -24q24 17 53 29.5t59 12.5q47 0 88.5 -14.5t72.5 -41t49 -62t18 -77.5t-18 -79.5t-49 -66t-72.5 -45t-88.5 -16.5q-53 0 -96.5 19t-74 55t-47.5 87t-17 116q0 18 0.5 38.5t1.5 37.5q1 20 3 39
q2 40 20.5 77.5t49.5 66.5t72 46.5t88 17.5q51 0 100 -22t88 -62l-65 -75q-31 31 -64 47.5t-59 16.5zM150 205q0 -24 8 -45.5t22.5 -37.5t33.5 -25.5t41 -9.5t42 8t34.5 21.5t23 32.5t8.5 41q0 21 -8.5 40.5t-23 34t-34.5 23t-42 8.5q-20 0 -39 -6.5t-33.5 -18.5
t-23.5 -28.5t-9 -37.5z" />
    <glyph glyph-name="seven" unicode="7" horiz-adv-x="513" 
d="M30 487v97h460v-73l-268 -511h-132l254 487h-314z" />
    <glyph glyph-name="eight" unicode="8" horiz-adv-x="521" 
d="M61 427q0 40 16.5 71t44 52t64 31.5t75.5 10.5t75 -10.5t63.5 -31.5t44 -52t16.5 -71t-20 -70t-43 -44q16 -9 31.5 -21.5t27.5 -29.5t19.5 -38.5t7.5 -47.5q0 -43 -18.5 -77t-49.5 -58t-71 -36.5t-83 -12.5q-44 0 -84 12.5t-71.5 36.5t-50 58t-18.5 77q0 53 24 85t62 52
q-24 19 -43 45.5t-19 68.5zM157 176q0 -18 8 -34.5t22 -28.5t33 -19.5t41 -7.5t40.5 7.5t32 19.5t21.5 28.5t8 34.5q0 35 -27 59.5t-75 26.5q-24 1 -43 -5.5t-32.5 -18.5t-21 -28t-7.5 -34zM178 427q0 -17 7.5 -30.5t19.5 -22.5t26.5 -13.5t29.5 -4.5t29.5 5t26 14t19 22
t7.5 30t-7.5 30.5t-19 23t-26 14.5t-29.5 5t-29.5 -5t-26.5 -15t-19.5 -23.5t-7.5 -29.5z" />
    <glyph glyph-name="nine" unicode="9" horiz-adv-x="513" 
d="M30 399q0 38 17 72.5t47.5 61t71.5 42t89 16.5q46 0 87.5 -13.5t73.5 -38t51.5 -58t19.5 -72.5q0 -83 -32 -156.5t-88.5 -129t-132 -88.5t-160.5 -35v97q78 2 142.5 34t99.5 91q-12 -2 -25.5 -4t-26.5 -2q-47 0 -89 13.5t-74 38t-51.5 58t-19.5 73.5zM153 401
q0 -18 9 -34t23.5 -28t34 -18.5t40.5 -6.5q18 0 36.5 6.5t33 18.5t24 28.5t9.5 36.5q0 18 -8 34.5t-22 29t-32.5 19.5t-39.5 7q-23 0 -42.5 -7.5t-34.5 -20.5t-23 -29.5t-8 -35.5z" />
    <glyph glyph-name="colon" unicode=":" horiz-adv-x="184" 
d="M13 60q0 28 22.5 48t55.5 20q34 0 56.5 -20t22.5 -48t-22.5 -48t-56.5 -20q-33 0 -55.5 20t-22.5 48zM13 367q0 29 22.5 48.5t55.5 19.5q34 0 56.5 -19.5t22.5 -48.5t-22.5 -48t-56.5 -19q-33 0 -55.5 19t-22.5 48z" />
    <glyph glyph-name="semicolon" unicode=";" horiz-adv-x="184" 
d="M13 367q0 29 22.5 48.5t55.5 19.5q34 0 56.5 -19.5t22.5 -48.5t-22.5 -48t-56.5 -19q-33 0 -55.5 19t-22.5 48zM13 60q0 28 22.5 48t55.5 20q34 0 56.5 -21t22.5 -51q0 -12 -6.5 -31t-16 -39.5t-19 -39.5l-15.5 -31h-89l30 92q-22 5 -31.5 22.5t-9.5 30.5z" />
    <glyph glyph-name="less" unicode="&#x3c;" horiz-adv-x="548" 
d="M56 239l436 183v-114l-281 -106l281 -106v-114l-436 184v73z" />
    <glyph glyph-name="equal" unicode="=" horiz-adv-x="548" 
d="M64 91v99h420v-99h-420zM64 291v99h420v-99h-420z" />
    <glyph glyph-name="greater" unicode="&#x3e;" horiz-adv-x="548" 
d="M492 166l-436 -184v114l281 106l-281 106v114l436 -183v-73z" />
    <glyph glyph-name="question" unicode="?" horiz-adv-x="364" 
d="M120 282q0 20 12.5 34.5t38.5 14.5q15 0 29 6.5t25.5 18t18.5 27.5t7 34q0 38 -21.5 59.5t-52.5 21.5q-33 0 -55 -25t-32 -70l-102 26q8 37 23 67t38.5 51.5t55.5 33t75 11.5q39 0 73.5 -12t61 -34.5t41.5 -55t15 -73.5q0 -30 -10 -57.5t-27.5 -50.5t-41.5 -40t-52 -27
v-95h-120v135zM112 49q0 23 20 39.5t48 16.5q27 0 47.5 -16.5t20.5 -39.5q0 -24 -20.5 -40.5t-47.5 -16.5q-28 0 -48 16.5t-20 40.5z" />
    <glyph glyph-name="at" unicode="@" horiz-adv-x="421" 
d="M210 44q19 2 38 2.5t35 9.5l14 -41q-20 -11 -41.5 -17.5t-45.5 -6.5q-40 0 -75.5 17.5t-62 48.5t-42 72t-15.5 88t15.5 88t42 72t62 48.5t75.5 17.5q44 5 80.5 -14t62.5 -52t40.5 -75.5t14.5 -84.5q0 -46 -12 -79t-33 -48.5t-50 -10t-63 35.5q-25 -23 -55 -23
q-21 0 -39 10t-31.5 27.5t-21 41t-7.5 50.5t7.5 50.5t21 40.5t31.5 27t39 10h99v-211q18 -19 31 -17t21 16.5t12 36.5t4 43q0 34 -10.5 67.5t-30 59.5t-47.5 41.5t-64 14.5q-32 -1 -59.5 -15t-48 -38.5t-32.5 -57t-12 -69.5q0 -41 11.5 -72.5t32 -53.5t48.5 -34.5t60 -15.5z
M135 221q0 -36 16.5 -60.5t40.5 -24.5t41 24.5t17 60.5v85h-58q-24 0 -40.5 -24.5t-16.5 -60.5z" />
    <glyph glyph-name="A" unicode="A" horiz-adv-x="582" 
d="M131 0h-130l237 608h106l237 -608h-130l-83 208h-153zM291 421l-46 -116h93z" />
    <glyph glyph-name="B" unicode="B" horiz-adv-x="529" 
d="M63 608h218q37 0 70 -13t57.5 -35.5t38.5 -53t14 -65.5q0 -34 -16.5 -64t-51.5 -46q22 -7 41 -22.5t33.5 -36t23 -44t8.5 -45.5q0 -40 -17 -73.5t-47 -58t-69.5 -38t-84.5 -13.5h-218v608zM281 102q39 0 66.5 22.5t27.5 58.5q0 37 -26 63.5t-64 26.5h-98v-171h94z
M281 375q23 0 38.5 19t15.5 46q0 26 -15.5 46.5t-38.5 20.5h-94v-132h94z" />
    <glyph glyph-name="C" unicode="C" horiz-adv-x="570" 
d="M172 301q0 -43 13.5 -81t36.5 -66t54.5 -44t66.5 -16q29 0 67 17.5t80 56.5l64 -85q-48 -42 -101.5 -66.5t-109.5 -24.5q-61 0 -115 24.5t-94 66.5t-63 98t-23 120q0 63 23 120t63 100.5t94 69t115 25.5q64 0 114 -27.5t97 -81.5l-64 -81q-34 43 -69.5 65.5t-77.5 22.5
q-35 0 -66.5 -17.5t-54.5 -46.5t-36.5 -67.5t-13.5 -81.5z" />
    <glyph glyph-name="D" unicode="D" horiz-adv-x="625" 
d="M59 608h237q57 0 108 -24t88.5 -65t59.5 -96.5t22 -118.5t-22 -118.5t-59.5 -96.5t-88 -65t-108.5 -24h-237v608zM296 102q32 0 59.5 16t48 43t32.5 64t12 79t-11.5 78.5t-32 64.5t-47.5 44t-58 16h-116v-405h113z" />
    <glyph glyph-name="E" unicode="E" horiz-adv-x="454" 
d="M59 608h359v-101h-234v-132h195v-102h-195v-171h253v-102h-378v608z" />
    <glyph glyph-name="F" unicode="F" horiz-adv-x="437" 
d="M183 0h-124v498q0 23 9.5 43t26 35t38.5 23.5t47 8.5h237v-101h-234v-132h157v-102h-157v-273z" />
    <glyph glyph-name="G" unicode="G" horiz-adv-x="634" 
d="M304 234v101h262v-335h-120v34q-5 -5 -19.5 -12t-31.5 -13.5t-35 -11t-30 -4.5q-53 0 -103.5 24t-89.5 66t-62.5 98t-23.5 120q0 63 23.5 120t63.5 100.5t94 69t116 25.5q63 0 122 -30.5t105 -84.5l-70 -80q-42 51 -82 72t-75 21q-36 0 -67 -17.5t-54.5 -46.5t-37 -67.5
t-13.5 -81.5t13.5 -81t37 -66t54.5 -44t67 -16q25 0 50.5 12.5t47.5 29.5v98h-142z" />
    <glyph glyph-name="H" unicode="H" horiz-adv-x="555" 
d="M371 0v184q0 19 -6.5 35.5t-18 28.5t-26 18.5t-29.5 6.5h-107v-273h-125v608h125v-233h107q20 0 40.5 -3.5t39.5 -9.5v246h125v-608h-125z" />
    <glyph glyph-name="I" unicode="I" horiz-adv-x="333" 
d="M103 507h-77v101h281v-101h-78v-405h78v-102h-281v102h77v405z" />
    <glyph glyph-name="J" unicode="J" horiz-adv-x="426" 
d="M67 507v101h300v-452q0 -38 -15.5 -68.5t-40.5 -51.5t-57 -32.5t-66 -11.5q-37 0 -69.5 15.5t-56.5 42t-38.5 62.5t-14.5 77h115q0 -20 5.5 -37t14.5 -30t20.5 -20t23.5 -7q23 0 38.5 18.5t15.5 45.5v348h-175z" />
    <glyph glyph-name="K" unicode="K" horiz-adv-x="542" 
d="M193 285l-10 -10v-275h-124v608h124v-175l161 175h152l-223 -236l268 -372h-140z" />
    <glyph glyph-name="L" unicode="L" horiz-adv-x="477" 
d="M59 608h124v-506h274v-102h-398v608z" />
    <glyph glyph-name="M" unicode="M" horiz-adv-x="693" 
d="M328 381q46 55 96.5 114.5t95.5 112.5h105v-608h-125v409q-45 -52 -90 -105.5t-82 -97.5l-171 203v-409h-125v608h105z" />
    <glyph glyph-name="N" unicode="N" horiz-adv-x="594" 
d="M184 368v-368h-125v608h109l242 -368v368h125v-608h-108z" />
    <glyph glyph-name="O" unicode="O" horiz-adv-x="639" 
d="M43 301q0 71 22 129t59.5 99.5t88 64t107.5 22.5t107 -22.5t87.5 -64t59.5 -99.5t22 -129q0 -72 -22 -129.5t-59.5 -97t-87.5 -61t-107 -21.5t-107.5 21.5t-88 61t-59.5 97t-22 129.5zM168 301q0 -48 12 -86.5t32.5 -65t48 -41t59.5 -14.5q31 0 59 14.5t48.5 41t32.5 65
t12 86.5q0 47 -12 86t-32.5 67.5t-48.5 44t-59 15.5q-32 0 -59.5 -15.5t-48 -44t-32.5 -67.5t-12 -86z" />
    <glyph glyph-name="P" unicode="P" horiz-adv-x="531" 
d="M189 0h-125v608h218q45 0 85 -14.5t69.5 -40t47 -59.5t17.5 -73t-17.5 -73.5t-47 -59.5t-69.5 -39.5t-85 -14.5h-93v-234zM189 335h93q40 0 67 25t27 61q0 18 -7 33.5t-20 27t-30 18.5t-37 7h-93v-172z" />
    <glyph glyph-name="Q" unicode="Q" horiz-adv-x="639" 
d="M43 301q0 63 22 120t59.5 100.5t88 69t107.5 25.5t107 -25.5t87.5 -69t59.5 -100.5t22 -120q0 -40 -9.5 -78t-27 -72t-43 -62t-56.5 -47q21 -15 52.5 -30t82.5 -15l1 -110q-36 0 -72 9.5t-68.5 24.5t-60.5 34t-48 38q-8 -1 -14 -1h-13q-57 0 -107.5 24t-88 66t-59.5 98.5
t-22 120.5zM260 296h120v-71q0 -11 1 -25t3 -28.5t5 -27.5t7 -21q34 26 55 72.5t21 105.5q0 43 -12 81.5t-32.5 67.5t-48.5 46.5t-59 17.5q-32 0 -59.5 -17.5t-48 -46.5t-32.5 -67.5t-12 -81.5q0 -71 30 -127t89 -79q-9 23 -18 58t-9 66v77z" />
    <glyph glyph-name="R" unicode="R" horiz-adv-x="522" 
d="M526 0h-141l-179 273h-17v-273h-125v608h199q41 0 77 -13t63 -35.5t42.5 -53t15.5 -65.5q0 -54 -34.5 -95.5t-88.5 -60.5zM189 375h74q30 0 52 19t22 47q0 26 -22 46t-52 20h-74v-132z" />
    <glyph glyph-name="S" unicode="S" horiz-adv-x="571" 
d="M171 464q0 -17 10.5 -28t28 -18.5t40 -13t46.5 -10.5q43 -9 86.5 -20t78.5 -32t57.5 -54.5t22.5 -85.5q0 -46 -20 -84.5t-55 -66.5t-82 -43.5t-100 -15.5q-51 0 -96.5 16.5t-80 46t-56 68.5t-25.5 84l117 21q3 -31 16.5 -56t34 -42t46 -26.5t53.5 -9.5q27 0 50 8.5
t39 23.5t25 34.5t9 41.5t-11.5 36.5t-30.5 23.5t-44 14.5t-51 10.5h1q-43 8 -85 18t-75 29t-53.5 50t-20.5 80q0 31 19 59t51 48.5t75.5 32.5t92.5 12q41 0 78.5 -10t69 -27.5t55 -41.5t35.5 -53l-105 -45q-20 39 -58.5 57t-83.5 18q-47 0 -75.5 -14.5t-28.5 -35.5z" />
    <glyph glyph-name="T" unicode="T" horiz-adv-x="461" 
d="M3 507v101h455v-101h-163v-507h-125v507h-167z" />
    <glyph glyph-name="U" unicode="U" horiz-adv-x="605" 
d="M302 91q22 0 42.5 10t36.5 27t25 39t9 47v394h126v-398q0 -47 -18 -87t-49.5 -69t-75.5 -45.5t-96 -16.5q-49 0 -92.5 18t-75.5 48.5t-51 71.5t-19 88v390h125v-390q0 -26 9 -49t24.5 -40.5t36 -27.5t43.5 -10z" />
    <glyph glyph-name="V" unicode="V" horiz-adv-x="562" 
d="M12 608h129l140 -393q34 97 70.5 198t68.5 195h130l-216 -608h-106z" />
    <glyph glyph-name="W" unicode="W" horiz-adv-x="922" 
d="M641 215l138 393h131l-216 -608h-106l-127 354l-127 -354h-106l-216 608h131l138 -394l127 355h106z" />
    <glyph glyph-name="X" unicode="X" horiz-adv-x="614" 
d="M165 0h-140l211 323q-21 32 -46.5 69.5t-51.5 75.5t-50.5 74t-44.5 66h142l122 -180q31 45 62 91.5l59 88.5h142l-193 -285q24 -36 51.5 -78.5t55.5 -85t55 -84t49 -75.5h-140l-141 217z" />
    <glyph glyph-name="Y" unicode="Y" horiz-adv-x="533" 
d="M527 608l-199 -297v-311h-124v310l-199 298h142l120 -179l119 179h141z" />
    <glyph glyph-name="Z" unicode="Z" horiz-adv-x="570" 
d="M214 102h353v-102h-515v77l323 430h-323v101h484v-77z" />
    <glyph glyph-name="bracketleft" unicode="[" horiz-adv-x="249" 
d="M30 -91v699h188v-91h-65v-517h65v-91h-188z" />
    <glyph glyph-name="backslash" unicode="\" horiz-adv-x="259" 
d="M149 0l-165 585h125l166 -585h-126z" />
    <glyph glyph-name="bracketright" unicode="]" horiz-adv-x="249" 
d="M30 -91v91h66v517h-66v91h188v-699h-188z" />
    <glyph glyph-name="asciicircum" unicode="^" horiz-adv-x="548" 
d="M373 195l-101 186l-100 -187h-132l190 351h84l194 -350h-135z" />
    <glyph glyph-name="underscore" unicode="_" horiz-adv-x="435" 
d="M0 -157v96h435v-96h-435z" />
    <glyph glyph-name="grave" unicode="`" 
d="M139 490l-129 132h138l83 -132h-92z" />
    <glyph glyph-name="a" unicode="a" horiz-adv-x="494" 
d="M434 435v-435h-116v43q-3 -8 -14.5 -16.5t-26 -16.5t-29 -13t-23.5 -5q-39 0 -72.5 17.5t-58 47.5t-38 70.5t-13.5 86.5q0 45 16.5 85.5t44 70.5t63.5 47.5t75 17.5h192zM242 337q-15 0 -29 -9.5t-25.5 -26.5t-18 -39.5t-6.5 -47.5q0 -26 5.5 -48.5t15 -39.5t22.5 -26.5
t28 -9.5t30 9.5t27 26.5t19.5 39.5t7.5 48.5v123h-76z" />
    <glyph glyph-name="b" unicode="b" horiz-adv-x="503" 
d="M61 695h120v-287q0 1 7.5 6.5t19.5 11.5t28 11t33 5q39 0 74 -14.5t61.5 -43t41.5 -71t15 -99.5q0 -56 -15 -98t-41.5 -69.5t-61.5 -41t-74 -13.5q-10 0 -23 4t-26 10t-24 13.5t-15 14.5v-34h-120v695zM181 216q0 -63 23 -94.5t53 -31.5q29 0 52 33t23 93t-23 94.5
t-52 34.5q-30 0 -53 -33.5t-23 -95.5z" />
    <glyph glyph-name="c" unicode="c" horiz-adv-x="443" 
d="M261 90q16 0 41.5 9.5t55.5 45.5l65 -76q-35 -37 -76.5 -57t-85.5 -20t-83.5 15.5t-69.5 44.5t-47.5 70t-17.5 92q0 50 17.5 92t47.5 72t69.5 47t83.5 17t85 -17.5t76 -55.5l-65 -76q-30 35 -55.5 43.5t-40.5 8.5q-19 0 -35.5 -9.5t-28.5 -27t-19 -41.5t-7 -53
q0 -59 26 -91.5t64 -32.5z" />
    <glyph glyph-name="d" unicode="d" horiz-adv-x="507" 
d="M322 695h120v-598h58v-97h-119q-7 0 -16 0.5t-17 3.5t-13.5 9t-5.5 16v8q0 3 -0.5 5.5t0.5 3.5q-14 -19 -40.5 -36.5t-54.5 -17.5q-39 0 -74 17.5t-61 47.5t-41 70.5t-15 86.5q0 45 16.5 85.5t44 70.5t63.5 47.5t75 17.5h80v260zM251 337q-15 0 -29.5 -9.5t-25.5 -26.5
t-18 -39.5t-7 -47.5q0 -52 20.5 -84t50.5 -32q15 0 29.5 8.5t25.5 23.5t18 36.5t7 47.5v123h-71z" />
    <glyph glyph-name="e" unicode="e" horiz-adv-x="477" 
d="M168 192q1 -24 10 -44t22.5 -34.5t30.5 -23t34 -8.5q38 0 65 15.5t46 41.5l56 -68q-36 -36 -80.5 -57.5t-89.5 -21.5q-47 0 -87.5 17.5t-69.5 48.5t-45.5 73.5t-16.5 93.5q0 45 15 85t41.5 69t63 46t79.5 17q40 0 76 -14.5t64 -41t44.5 -62.5t16.5 -79q0 -29 -17 -41
t-55 -12h-203zM245 355q-11 0 -23 -4.5t-22.5 -14t-18 -24.5t-10.5 -36h147q-5 41 -26.5 60t-46.5 19z" />
    <glyph glyph-name="f" unicode="f" horiz-adv-x="285" 
d="M9 435h66v146q0 34 11.5 56t30.5 35t43 18t50 5q18 0 44 -5t58 -13l-23 -86q-17 5 -30 9t-34 4q-5 0 -17.5 -8t-12.5 -27v-134h81v-98h-81v-337h-120v337h-66v98z" />
    <glyph glyph-name="g" unicode="g" horiz-adv-x="508" 
d="M273 -304q-12 0 -30 1.5t-38.5 4t-41 6t-38.5 8.5l19 96q13 -3 30.5 -6.5t35 -6.5t32 -4.5t22.5 -1.5q35 0 49.5 21t14.5 50v172q-5 -8 -14.5 -15t-21 -12t-23 -8.5t-20.5 -3.5q-40 0 -76 13.5t-63.5 41t-44 68t-16.5 94.5q0 57 17.5 98.5t47 68.5t67 40.5t76.5 13.5h134
q31 0 44 -7.5t13 -39.5v-541q0 -32 -8.5 -59.5t-28.5 -47.5t-53.5 -32t-84.5 -12zM257 337q-15 0 -29.5 -9.5t-25.5 -26.5t-18 -39.5t-7 -47.5q0 -52 21 -84t51 -32q15 0 29 10t25 26.5t18 39t7 48.5v115h-71z" />
    <glyph glyph-name="h" unicode="h" horiz-adv-x="487" 
d="M255 336q-14 0 -27 -8.5t-23.5 -23.5t-17 -36t-6.5 -45v-223h-120v695h120v-294q14 15 34.5 28t45.5 13q39 0 72.5 -17.5t57.5 -48t38 -71.5t14 -88v-217h-120v216q0 51 -19 85.5t-49 34.5z" />
    <glyph glyph-name="i" unicode="i" 
d="M181 0h-120v435h120v-435zM49 567q0 30 21 51.5t51 21.5t51 -21.5t21 -51.5t-21 -51t-51 -21t-51 21t-21 51z" />
    <glyph glyph-name="j" unicode="j" horiz-adv-x="249" 
d="M23 -302q-46 0 -74 9l16 95q17 -4 31.5 -5.5t17.5 -1.5q36 0 46 14.5t10 30.5v503l-73 8l15 84h120q31 0 44 -7.5t13 -39.5v-548q0 -32 -7 -58t-25.5 -44.5t-51 -29t-82.5 -10.5zM56 567q0 30 21 51.5t51 21.5t51.5 -21.5t21.5 -51.5t-21.5 -51t-51.5 -21t-51 21t-21 51z
" />
    <glyph glyph-name="k" unicode="k" horiz-adv-x="490" 
d="M188 191v-191h-120v695h120v-372l98 112h153l-151 -160l200 -275h-146l-143 202z" />
    <glyph glyph-name="l" unicode="l" 
d="M181 0h-120v695h120v-695z" />
    <glyph glyph-name="m" unicode="m" horiz-adv-x="715" 
d="M534 300q0 18 -17 31.5t-39 13.5q-23 0 -40 -13.5t-17 -31.5v-300h-119v302q0 20 -16.5 31.5t-36.5 11.5q-25 0 -43 -15.5t-18 -35.5v-294h-120v435h117l-1 -35q12 14 36 27.5t49 13.5q44 0 65 -10t35 -23q22 16 53 25t65 9q35 0 65.5 -11t53 -30.5t35.5 -45.5t13 -55
v-300h-120v300z" />
    <glyph glyph-name="n" unicode="n" horiz-adv-x="500" 
d="M316 217q0 25 -6 47t-16.5 38t-23.5 25t-28 9q-29 0 -48 -28t-19 -76v-232h-120v435h117v-34q7 12 28.5 26.5t54.5 14.5q39 0 72 -17.5t57.5 -48t38 -71.5t13.5 -88v-120h53v-97h-173v217z" />
    <glyph glyph-name="o" unicode="o" horiz-adv-x="512" 
d="M37 217q0 50 18 91.5t48.5 71t70 46t82.5 16.5t82.5 -16.5t69.5 -46.5t48 -71.5t18 -90.5q0 -50 -18 -91t-48 -71t-69.5 -46.5t-82.5 -16.5t-82.5 16t-70 45t-48.5 71t-18 93zM166 217q0 -62 26 -94.5t64 -32.5t64 32.5t26 94.5q0 61 -26 94.5t-64 33.5t-64 -33.5
t-26 -94.5z" />
    <glyph glyph-name="p" unicode="p" horiz-adv-x="540" 
d="M181 395q13 14 40.5 30.5t66.5 16.5q43 0 81 -16t66.5 -45.5t45 -71t16.5 -92.5t-16.5 -92t-45 -69.5t-66.5 -43.5t-81 -15q-25 0 -57 8t-50 25v-334h-120v739h120v-40zM181 216q0 -26 8 -49t22 -40t31.5 -27t36.5 -10t35 10t28 27t19 40.5t7 49.5q0 27 -7 50t-19 40.5
t-28 27.5t-35 10q-18 0 -35.5 -10t-31 -27t-22.5 -40.5t-9 -51.5z" />
    <glyph glyph-name="q" unicode="q" horiz-adv-x="493" 
d="M322 39q-7 -9 -18 -17t-24 -13.5t-25 -8.5t-21 -3q-39 0 -74 15.5t-61 43.5t-41 68t-15 90q0 48 16.5 88.5t44 70t63.5 46t75 16.5h142q10 0 20 -4.5t18.5 -11t14 -15t5.5 -16.5v-595h58v-97h-119q-15 0 -26.5 0.5t-18.5 5t-10.5 14t-3.5 27.5v296zM251 337
q-15 0 -29.5 -9.5t-25.5 -26.5t-18 -39.5t-7 -47.5q0 -52 20.5 -86t50.5 -34q15 0 29.5 10.5t25.5 28t18 40.5t7 49v115h-71z" />
    <glyph glyph-name="r" unicode="r" horiz-adv-x="412" 
d="M170 0h-120v435h227q54 0 86 -29.5t32 -80.5q0 -20 -20 -68l-98 17q2 5 4 11q2 5 3 11t1 11q0 8 -6 19t-23 11h-85z" />
    <glyph glyph-name="s" unicode="s" horiz-adv-x="417" 
d="M289 303q-8 14 -19 23.5t-23.5 15.5t-24.5 8.5t-21 2.5q-22 0 -37.5 -10t-15.5 -22q0 -16 11.5 -23.5t34.5 -12.5q30 -6 65.5 -14t66 -22.5t50.5 -39.5t20 -65q0 -31 -14 -58.5t-39 -48.5t-60 -33t-78 -12q-37 0 -69.5 10.5t-58 30t-42 46.5t-20.5 60l101 25
q11 -42 35.5 -62.5t53.5 -20.5q30 0 51.5 15t19.5 38q-1 16 -11.5 25.5t-26.5 15t-34 9t-34 6.5q-28 6 -53 16t-43.5 25.5t-29.5 37.5t-11 52q0 25 12.5 47t35 38.5t54 26t70.5 9.5q57 0 103.5 -28.5t69.5 -72.5z" />
    <glyph glyph-name="t" unicode="t" horiz-adv-x="283" 
d="M35 435q15 0 20.5 6.5t5.5 20.5v122h120v-149h94v-98h-94v-219q0 -19 13 -26t35 -7q11 0 31 5q11 2 22 5v-90q-26 -6 -49 -9.5t-38 -3.5q-26 0 -50 5.5t-42.5 17.5t-30 32t-11.5 50v240h-52v98h26z" />
    <glyph glyph-name="u" unicode="u" horiz-adv-x="492" 
d="M229 95q15 0 29 7t25.5 20t18.5 31.5t7 42.5v239h120v-338h54v-97h-122q-17 0 -31.5 6t-14.5 22v12q-6 -8 -17 -16.5t-24.5 -15.5t-27.5 -11t-24 -4q-45 0 -77.5 19t-54 51t-32 74t-10.5 89v209h120v-217q0 -26 3 -48t10.5 -39t19 -26.5t28.5 -9.5z" />
    <glyph glyph-name="v" unicode="v" horiz-adv-x="448" 
d="M172 0l-157 435h124l85 -254l85 254h124l-158 -435h-103z" />
    <glyph glyph-name="w" unicode="w" horiz-adv-x="721" 
d="M179 0l-157 435h124l93 -237l70 199h104l78 -199l85 237h124l-158 -435h-94l-87 225l-79 -225h-103z" />
    <glyph glyph-name="x" unicode="x" horiz-adv-x="518" 
d="M259 156q-27 -36 -54.5 -78.5t-52.5 -77.5h-137l174 243l-136 192h137l69 -104l68 104h138l-138 -192q19 -27 42.5 -59l47 -64t46 -63.5t40.5 -56.5h-138z" />
    <glyph glyph-name="y" unicode="y" horiz-adv-x="504" 
d="M268 -303q-25 0 -56 5.5t-66 14.5l19 96q28 -11 58 -15t45 -4q35 0 45 14.5t10 30.5v201q-13 -15 -38.5 -28t-45.5 -13q-39 0 -72 16.5t-56.5 46t-36.5 69t-13 86.5v218h120v-218q0 -51 19 -85.5t48 -34.5q34 0 54.5 33t20.5 81v224h120v-596q0 -32 -8.5 -58t-29 -44.5
t-54 -29t-83.5 -10.5z" />
    <glyph glyph-name="z" unicode="z" horiz-adv-x="408" 
d="M182 97h218v-97h-374v71l197 266h-197v98h352v-77z" />
    <glyph glyph-name="braceleft" unicode="{" horiz-adv-x="253" 
d="M245 -112q-30 0 -62.5 5.5t-58.5 19t-43 35.5t-17 54q0 31 5.5 62.5t5.5 67.5q0 27 -13 51t-49 37v55q34 11 48 33t14 48q0 29 -6 58.5t-6 61.5q0 33 13 55t37 35.5t57 20t73 7.5v-92q-26 -1 -40 -5t-14 -15q0 -29 5.5 -58t5.5 -61q0 -31 -14 -62t-37 -54q29 -26 40 -59
t11 -70q0 -29 -5.5 -57.5t-5.5 -60.5q0 -13 12.5 -17.5t41.5 -4.5z" />
    <glyph glyph-name="bar" unicode="|" horiz-adv-x="187" 
d="M34 -188v810h119v-810h-119z" />
    <glyph glyph-name="braceright" unicode="}" horiz-adv-x="253" 
d="M240 209q-9 -3 -20 -10.5t-20.5 -18t-16 -23t-6.5 -25.5q0 -32 6 -63.5t6 -65.5q0 -33 -13 -55t-36.5 -35.5t-56.5 -19t-73 -5.5v90q28 0 40.5 4.5t12.5 16.5q0 29 -5.5 58t-5.5 61q0 37 10.5 70.5t40.5 59.5q-25 23 -38 53t-13 62q0 29 6 58t6 61q0 11 -14 15t-40 5v92
q40 -1 73 -7.5t57 -20t37 -35.5t13 -54q0 -29 -6 -58t-6 -63q0 -26 14 -48t48 -33v-66z" />
    <glyph glyph-name="asciitilde" unicode="~" horiz-adv-x="548" 
d="M493 376q-2 -38 -8 -69.5t-20.5 -54.5t-38 -36t-60.5 -13q-16 0 -29.5 3.5t-29.5 12.5t-37.5 24t-52.5 38q-5 4 -15.5 8.5t-18.5 4.5q-11 0 -18 -6.5t-11 -17t-5 -24t-1 -26.5h-86q1 29 7.5 60.5t20.5 57.5t37.5 43t60.5 17q23 0 38.5 -5t31.5 -16q33 -23 54 -37.5
t33.5 -22.5t18.5 -11t11 -3q9 0 14.5 7.5t9 18.5t5 23.5t2.5 22.5z" />
    <glyph glyph-name="Adieresis" unicode="&#xc4;" horiz-adv-x="582" 
d="M131 0h-130l237 608h106l237 -608h-130l-83 208h-153zM291 421l-46 -116h93zM127 712q0 26 21 44t53 18q31 0 52.5 -18t21.5 -44t-21.5 -44.5t-52.5 -18.5q-32 0 -53 18.5t-21 44.5zM308 712q0 26 21 44t52 18q30 0 51.5 -18t21.5 -44t-21.5 -44.5t-51.5 -18.5
q-31 0 -52 18.5t-21 44.5z" />
    <glyph glyph-name="Aring" unicode="&#xc5;" horiz-adv-x="582" 
d="M131 0h-130l237 608h106l237 -608h-130l-83 208h-153zM291 421l-46 -116h93zM367 704q0 -32 -23 -53.5t-55 -21.5q-30 0 -52 22.5t-22 53.5t22.5 52t51.5 21q32 0 55 -21t23 -53zM328 703q0 15 -10.5 26.5t-28.5 11.5q-16 0 -26.5 -12t-10.5 -27t10.5 -26.5t26.5 -11.5
q17 0 28 11.5t11 27.5z" />
    <glyph glyph-name="Ccedilla" unicode="&#xc7;" horiz-adv-x="570" 
d="M172 301q0 -43 13.5 -81t36.5 -66t54.5 -44t66.5 -16q29 0 67 17.5t80 56.5l64 -85q-48 -42 -101.5 -66.5t-109.5 -24.5q-61 0 -115 24.5t-94 66.5t-63 98t-23 120q0 63 23 120t63 100.5t94 69t115 25.5q64 0 114 -27.5t97 -81.5l-64 -81q-34 43 -69.5 65.5t-77.5 22.5
q-35 0 -66.5 -17.5t-54.5 -46.5t-36.5 -67.5t-13.5 -81.5zM386 -108q0 -24 -10.5 -41.5t-27.5 -28.5t-38 -16t-41 -5q-23 0 -40 3t-45 14l15 54q24 -8 39 -11t29 -3q15 0 31 7t16 26q0 16 -10.5 22t-17.5 6q-5 0 -12 -1.5t-10 -3.5l-35 36q8 10 13.5 16.5t7.5 11.5l16 32h70
q-2 -2 -4 -5q-2 -2 -3.5 -5.5t-3.5 -5.5l-15 -25q30 -4 53 -26t23 -51z" />
    <glyph glyph-name="Eacute" unicode="&#xc9;" horiz-adv-x="454" 
d="M59 608h359v-101h-234v-132h195v-102h-195v-171h253v-102h-378v608zM210 646h-92l81 132h136z" />
    <glyph glyph-name="Ntilde" unicode="&#xd1;" horiz-adv-x="594" 
d="M184 368v-368h-125v608h109l242 -368v368h125v-608h-108zM468 796q-4 -30 -12.5 -57t-23 -47.5t-35.5 -32.5t-51 -12q-21 0 -35.5 8t-26 17.5t-21.5 17.5t-23 8q-11 0 -18 -6.5t-11.5 -15t-7 -17.5t-2.5 -13h-75q4 22 12.5 48t23 48.5t36 37t51.5 14.5q21 0 36.5 -7.5
t28.5 -16.5t24.5 -16.5t25.5 -7.5q9 0 15 6t9.5 14.5t5 16.5t2.5 13h72z" />
    <glyph glyph-name="Odieresis" unicode="&#xd6;" horiz-adv-x="639" 
d="M43 301q0 71 22 129t59.5 99.5t88 64t107.5 22.5t107 -22.5t87.5 -64t59.5 -99.5t22 -129q0 -72 -22 -129.5t-59.5 -97t-87.5 -61t-107 -21.5t-107.5 21.5t-88 61t-59.5 97t-22 129.5zM168 301q0 -48 12 -86.5t32.5 -65t48 -41t59.5 -14.5q31 0 59 14.5t48.5 41t32.5 65
t12 86.5q0 47 -12 86t-32.5 67.5t-48.5 44t-59 15.5q-32 0 -59.5 -15.5t-48 -44t-32.5 -67.5t-12 -86zM156 712q0 26 21 44t52 18t52.5 -18t21.5 -44t-21.5 -44.5t-52.5 -18.5t-52 18.5t-21 44.5zM336 712q0 26 21 44t52 18t52.5 -18t21.5 -44t-21.5 -44.5t-52.5 -18.5
t-52 18.5t-21 44.5z" />
    <glyph glyph-name="Udieresis" unicode="&#xdc;" horiz-adv-x="605" 
d="M302 91q22 0 42.5 10t36.5 27t25 39t9 47v394h126v-398q0 -47 -18 -87t-49.5 -69t-75.5 -45.5t-96 -16.5q-49 0 -92.5 18t-75.5 48.5t-51 71.5t-19 88v390h125v-390q0 -26 9 -49t24.5 -40.5t36 -27.5t43.5 -10zM138 712q0 26 21 44t53 18q31 0 52.5 -18t21.5 -44
t-21.5 -44.5t-52.5 -18.5q-32 0 -53 18.5t-21 44.5zM319 712q0 26 21 44t52 18t52.5 -18t21.5 -44t-21.5 -44.5t-52.5 -18.5t-52 18.5t-21 44.5z" />
    <glyph glyph-name="aacute" unicode="&#xe1;" horiz-adv-x="494" 
d="M434 435v-435h-116v43q-3 -8 -14.5 -16.5t-26 -16.5t-29 -13t-23.5 -5q-39 0 -72.5 17.5t-58 47.5t-38 70.5t-13.5 86.5q0 45 16.5 85.5t44 70.5t63.5 47.5t75 17.5h192zM242 337q-15 0 -29 -9.5t-25.5 -26.5t-18 -39.5t-6.5 -47.5q0 -26 5.5 -48.5t15 -39.5t22.5 -26.5
t28 -9.5t30 9.5t27 26.5t19.5 39.5t7.5 48.5v123h-76zM231 490h-92l81 132h135z" />
    <glyph glyph-name="agrave" unicode="&#xe0;" horiz-adv-x="494" 
d="M434 435v-435h-116v43q-3 -8 -14.5 -16.5t-26 -16.5t-29 -13t-23.5 -5q-39 0 -72.5 17.5t-58 47.5t-38 70.5t-13.5 86.5q0 45 16.5 85.5t44 70.5t63.5 47.5t75 17.5h192zM242 337q-15 0 -29 -9.5t-25.5 -26.5t-18 -39.5t-6.5 -47.5q0 -26 5.5 -48.5t15 -39.5t22.5 -26.5
t28 -9.5t30 9.5t27 26.5t19.5 39.5t7.5 48.5v123h-76zM265 490l-129 132h138l83 -132h-92z" />
    <glyph glyph-name="acircumflex" unicode="&#xe2;" horiz-adv-x="494" 
d="M434 435v-435h-116v43q-3 -8 -14.5 -16.5t-26 -16.5t-29 -13t-23.5 -5q-39 0 -72.5 17.5t-58 47.5t-38 70.5t-13.5 86.5q0 45 16.5 85.5t44 70.5t63.5 47.5t75 17.5h192zM242 337q-15 0 -29 -9.5t-25.5 -26.5t-18 -39.5t-6.5 -47.5q0 -26 5.5 -48.5t15 -39.5t22.5 -26.5
t28 -9.5t30 9.5t27 26.5t19.5 39.5t7.5 48.5v123h-76zM303 490l-56 62l-56 -62h-111l113 132h109l113 -132h-112z" />
    <glyph glyph-name="adieresis" unicode="&#xe4;" horiz-adv-x="494" 
d="M434 435v-435h-116v43q-3 -8 -14.5 -16.5t-26 -16.5t-29 -13t-23.5 -5q-39 0 -72.5 17.5t-58 47.5t-38 70.5t-13.5 86.5q0 45 16.5 85.5t44 70.5t63.5 47.5t75 17.5h192zM242 337q-15 0 -29 -9.5t-25.5 -26.5t-18 -39.5t-6.5 -47.5q0 -26 5.5 -48.5t15 -39.5t22.5 -26.5
t28 -9.5t30 9.5t27 26.5t19.5 39.5t7.5 48.5v123h-76zM83 556q0 26 21.5 44.5t52.5 18.5t52.5 -18.5t21.5 -44.5t-21.5 -44t-52.5 -18t-52.5 18t-21.5 44zM264 556q0 26 21 44.5t52 18.5t52.5 -18.5t21.5 -44.5t-21.5 -44t-52.5 -18t-52 18t-21 44z" />
    <glyph glyph-name="atilde" unicode="&#xe3;" horiz-adv-x="494" 
d="M434 435v-435h-116v43q-3 -8 -14.5 -16.5t-26 -16.5t-29 -13t-23.5 -5q-39 0 -72.5 17.5t-58 47.5t-38 70.5t-13.5 86.5q0 45 16.5 85.5t44 70.5t63.5 47.5t75 17.5h192zM242 337q-15 0 -29 -9.5t-25.5 -26.5t-18 -39.5t-6.5 -47.5q0 -26 5.5 -48.5t15 -39.5t22.5 -26.5
t28 -9.5t30 9.5t27 26.5t19.5 39.5t7.5 48.5v123h-76zM418 640q-4 -30 -12.5 -57t-23 -47.5t-36 -32.5t-51.5 -12q-21 0 -35.5 8t-26 17.5t-21.5 17.5t-23 8q-10 0 -17 -6.5t-11.5 -15t-7 -17.5t-3.5 -13h-74q4 22 12.5 48.5t23 48.5t35.5 37t51 15q21 0 36.5 -7.5t28.5 -17
t25 -17t26 -7.5q9 0 14.5 6t9 14.5t5.5 16.5t3 13h72z" />
    <glyph glyph-name="aring" unicode="&#xe5;" horiz-adv-x="494" 
d="M434 435v-435h-116v43q-3 -8 -14.5 -16.5t-26 -16.5t-29 -13t-23.5 -5q-39 0 -72.5 17.5t-58 47.5t-38 70.5t-13.5 86.5q0 45 16.5 85.5t44 70.5t63.5 47.5t75 17.5h192zM242 337q-15 0 -29 -9.5t-25.5 -26.5t-18 -39.5t-6.5 -47.5q0 -26 5.5 -48.5t15 -39.5t22.5 -26.5
t28 -9.5t30 9.5t27 26.5t19.5 39.5t7.5 48.5v123h-76zM323 548q0 -32 -22.5 -53t-54.5 -21q-31 0 -53 22t-22 53q0 15 6 28.5t16.5 23.5t24 15.5t28.5 5.5q32 0 54.5 -21t22.5 -53zM285 547q0 15 -11 27t-28 12t-27 -12t-10 -27t10 -27t26 -12q18 0 29 12t11 27z" />
    <glyph glyph-name="ccedilla" unicode="&#xe7;" horiz-adv-x="443" 
d="M261 90q16 0 41.5 9.5t55.5 45.5l65 -76q-35 -37 -76.5 -57t-85.5 -20t-83.5 15.5t-69.5 44.5t-47.5 70t-17.5 92q0 50 17.5 92t47.5 72t69.5 47t83.5 17t85 -17.5t76 -55.5l-65 -76q-30 35 -55.5 43.5t-40.5 8.5q-19 0 -35.5 -9.5t-28.5 -27t-19 -41.5t-7 -53
q0 -59 26 -91.5t64 -32.5zM323 -108q0 -24 -10.5 -41.5t-27.5 -28.5t-38 -16t-41 -5q-23 0 -40 3t-45 14l15 54q24 -8 39 -11t29 -3q15 0 31 7t16 26q0 16 -10.5 22t-17.5 6q-5 0 -12 -1.5t-10 -3.5l-35 36q8 10 13.5 16.5t7.5 11.5l16 32h70q-2 -2 -4 -5q-2 -2 -3.5 -5.5
t-3.5 -5.5l-15 -25q30 -4 53 -26t23 -51z" />
    <glyph glyph-name="eacute" unicode="&#xe9;" horiz-adv-x="477" 
d="M168 192q1 -24 10 -44t22.5 -34.5t30.5 -23t34 -8.5q38 0 65 15.5t46 41.5l56 -68q-36 -36 -80.5 -57.5t-89.5 -21.5q-47 0 -87.5 17.5t-69.5 48.5t-45.5 73.5t-16.5 93.5q0 45 15 85t41.5 69t63 46t79.5 17q40 0 76 -14.5t64 -41t44.5 -62.5t16.5 -79q0 -29 -17 -41
t-55 -12h-203zM245 355q-11 0 -23 -4.5t-22.5 -14t-18 -24.5t-10.5 -36h147q-5 41 -26.5 60t-46.5 19zM222 490h-92l81 132h136z" />
    <glyph glyph-name="egrave" unicode="&#xe8;" horiz-adv-x="477" 
d="M168 192q1 -24 10 -44t22.5 -34.5t30.5 -23t34 -8.5q38 0 65 15.5t46 41.5l56 -68q-36 -36 -80.5 -57.5t-89.5 -21.5q-47 0 -87.5 17.5t-69.5 48.5t-45.5 73.5t-16.5 93.5q0 45 15 85t41.5 69t63 46t79.5 17q40 0 76 -14.5t64 -41t44.5 -62.5t16.5 -79q0 -29 -17 -41
t-55 -12h-203zM245 355q-11 0 -23 -4.5t-22.5 -14t-18 -24.5t-10.5 -36h147q-5 41 -26.5 60t-46.5 19zM256 490l-128 132h137l83 -132h-92z" />
    <glyph glyph-name="ecircumflex" unicode="&#xea;" horiz-adv-x="477" 
d="M168 192q1 -24 10 -44t22.5 -34.5t30.5 -23t34 -8.5q38 0 65 15.5t46 41.5l56 -68q-36 -36 -80.5 -57.5t-89.5 -21.5q-47 0 -87.5 17.5t-69.5 48.5t-45.5 73.5t-16.5 93.5q0 45 15 85t41.5 69t63 46t79.5 17q40 0 76 -14.5t64 -41t44.5 -62.5t16.5 -79q0 -29 -17 -41
t-55 -12h-203zM245 355q-11 0 -23 -4.5t-22.5 -14t-18 -24.5t-10.5 -36h147q-5 41 -26.5 60t-46.5 19zM295 490l-57 62l-56 -62h-111l113 132h109l113 -132h-111z" />
    <glyph glyph-name="edieresis" unicode="&#xeb;" horiz-adv-x="477" 
d="M168 192q1 -24 10 -44t22.5 -34.5t30.5 -23t34 -8.5q38 0 65 15.5t46 41.5l56 -68q-36 -36 -80.5 -57.5t-89.5 -21.5q-47 0 -87.5 17.5t-69.5 48.5t-45.5 73.5t-16.5 93.5q0 45 15 85t41.5 69t63 46t79.5 17q40 0 76 -14.5t64 -41t44.5 -62.5t16.5 -79q0 -29 -17 -41
t-55 -12h-203zM245 355q-11 0 -23 -4.5t-22.5 -14t-18 -24.5t-10.5 -36h147q-5 41 -26.5 60t-46.5 19zM75 556q0 26 21 44.5t53 18.5q30 0 51.5 -18.5t21.5 -44.5t-21.5 -44t-51.5 -18q-32 0 -53 18t-21 44zM255 556q0 26 21.5 44.5t51.5 18.5q31 0 52.5 -18.5t21.5 -44.5
t-21.5 -44t-52.5 -18q-30 0 -51.5 18t-21.5 44z" />
    <glyph glyph-name="iacute" unicode="&#xed;" 
d="M180 0h-119v435h119v-435zM104 490h-92l81 132h136z" />
    <glyph glyph-name="igrave" unicode="&#xec;" 
d="M180 0h-119v435h119v-435zM139 490l-129 132h138l83 -132h-92z" />
    <glyph glyph-name="icircumflex" unicode="&#xee;" 
d="M180 0h-119v435h119v-435zM177 490l-56 62l-56 -62h-111l113 132h109l113 -132h-112z" />
    <glyph glyph-name="idieresis" unicode="&#xef;" 
d="M180 0h-119v435h119v-435zM-43 556q0 26 21.5 44.5t52.5 18.5t52.5 -18.5t21.5 -44.5t-21.5 -44t-52.5 -18t-52.5 18t-21.5 44zM138 556q0 26 21 44.5t52 18.5t52.5 -18.5t21.5 -44.5t-21.5 -44t-52.5 -18t-52 18t-21 44z" />
    <glyph glyph-name="ntilde" unicode="&#xf1;" horiz-adv-x="500" 
d="M316 217q0 25 -6 47t-16.5 38t-23.5 25t-28 9q-29 0 -48 -28t-19 -76v-232h-120v435h117v-34q7 12 28.5 26.5t54.5 14.5q39 0 72 -17.5t57.5 -48t38 -71.5t13.5 -88v-120h53v-97h-173v217zM421 640q-5 -30 -13.5 -57t-23 -47.5t-35.5 -32.5t-51 -12q-21 0 -35.5 8
t-26 17.5t-21.5 17.5t-23 8q-11 0 -18 -6.5t-11.5 -15t-6.5 -17.5t-3 -13h-75q4 22 13 48.5t23.5 48.5t35.5 37t51 15q21 0 36.5 -7.5t28.5 -17t24.5 -17t25.5 -7.5q9 0 15 6t9.5 14.5t5 16.5t2.5 13h73z" />
    <glyph glyph-name="oacute" unicode="&#xf3;" horiz-adv-x="512" 
d="M37 217q0 50 18 91.5t48.5 71t70 46t82.5 16.5t82.5 -16.5t69.5 -46.5t48 -71.5t18 -90.5q0 -50 -18 -91t-48 -71t-69.5 -46.5t-82.5 -16.5t-82.5 16t-70 45t-48.5 71t-18 93zM166 217q0 -62 26 -94.5t64 -32.5t64 32.5t26 94.5q0 61 -26 94.5t-64 33.5t-64 -33.5
t-26 -94.5zM240 490h-92l81 132h135z" />
    <glyph glyph-name="ograve" unicode="&#xf2;" horiz-adv-x="512" 
d="M37 217q0 50 18 91.5t48.5 71t70 46t82.5 16.5t82.5 -16.5t69.5 -46.5t48 -71.5t18 -90.5q0 -50 -18 -91t-48 -71t-69.5 -46.5t-82.5 -16.5t-82.5 16t-70 45t-48.5 71t-18 93zM166 217q0 -62 26 -94.5t64 -32.5t64 32.5t26 94.5q0 61 -26 94.5t-64 33.5t-64 -33.5
t-26 -94.5zM274 490l-129 132h137l84 -132h-92z" />
    <glyph glyph-name="ocircumflex" unicode="&#xf4;" horiz-adv-x="512" 
d="M37 217q0 50 18 91.5t48.5 71t70 46t82.5 16.5t82.5 -16.5t69.5 -46.5t48 -71.5t18 -90.5q0 -50 -18 -91t-48 -71t-69.5 -46.5t-82.5 -16.5t-82.5 16t-70 45t-48.5 71t-18 93zM166 217q0 -62 26 -94.5t64 -32.5t64 32.5t26 94.5q0 61 -26 94.5t-64 33.5t-64 -33.5
t-26 -94.5zM312 490l-57 62l-55 -62h-111l113 132h108l113 -132h-111z" />
    <glyph glyph-name="odieresis" unicode="&#xf6;" horiz-adv-x="512" 
d="M37 217q0 50 18 91.5t48.5 71t70 46t82.5 16.5t82.5 -16.5t69.5 -46.5t48 -71.5t18 -90.5q0 -50 -18 -91t-48 -71t-69.5 -46.5t-82.5 -16.5t-82.5 16t-70 45t-48.5 71t-18 93zM166 217q0 -62 26 -94.5t64 -32.5t64 32.5t26 94.5q0 61 -26 94.5t-64 33.5t-64 -33.5
t-26 -94.5zM92 556q0 26 21 44.5t53 18.5q31 0 52.5 -18.5t21.5 -44.5t-21.5 -44t-52.5 -18q-32 0 -53 18t-21 44zM273 556q0 26 21 44.5t52 18.5t52.5 -18.5t21.5 -44.5t-21.5 -44t-52.5 -18t-52 18t-21 44z" />
    <glyph glyph-name="otilde" unicode="&#xf5;" horiz-adv-x="512" 
d="M37 217q0 50 18 91.5t48.5 71t70 46t82.5 16.5t82.5 -16.5t69.5 -46.5t48 -71.5t18 -90.5q0 -50 -18 -91t-48 -71t-69.5 -46.5t-82.5 -16.5t-82.5 16t-70 45t-48.5 71t-18 93zM166 217q0 -62 26 -94.5t64 -32.5t64 32.5t26 94.5q0 61 -26 94.5t-64 33.5t-64 -33.5
t-26 -94.5zM427 640q-5 -30 -13.5 -57t-23 -47.5t-35.5 -32.5t-51 -12q-21 0 -35.5 8t-26 17.5t-21.5 17.5t-23 8q-11 0 -18 -6.5t-11.5 -15t-6.5 -17.5t-3 -13h-75q4 22 13 48.5t23.5 48.5t35.5 37t51 15q21 0 36.5 -7.5t28.5 -17t24.5 -17t25.5 -7.5q9 0 15 6t9.5 14.5
t5.5 16.5t3 13h72z" />
    <glyph glyph-name="uacute" unicode="&#xfa;" horiz-adv-x="492" 
d="M229 95q15 0 29 7t25.5 20t18.5 31.5t7 42.5v239h120v-338h54v-97h-122q-17 0 -31.5 6t-14.5 22v12q-6 -8 -17 -16.5t-24.5 -15.5t-27.5 -11t-24 -4q-45 0 -77.5 19t-54 51t-32 74t-10.5 89v209h120v-217q0 -26 3 -48t10.5 -39t19 -26.5t28.5 -9.5zM229 490h-92l81 132
h136z" />
    <glyph glyph-name="ugrave" unicode="&#xf9;" horiz-adv-x="492" 
d="M229 95q15 0 29 7t25.5 20t18.5 31.5t7 42.5v239h120v-338h54v-97h-122q-17 0 -31.5 6t-14.5 22v12q-6 -8 -17 -16.5t-24.5 -15.5t-27.5 -11t-24 -4q-45 0 -77.5 19t-54 51t-32 74t-10.5 89v209h120v-217q0 -26 3 -48t10.5 -39t19 -26.5t28.5 -9.5zM264 490l-128 132h137
l83 -132h-92z" />
    <glyph glyph-name="ucircumflex" unicode="&#xfb;" horiz-adv-x="492" 
d="M229 95q15 0 29 7t25.5 20t18.5 31.5t7 42.5v239h120v-338h54v-97h-122q-17 0 -31.5 6t-14.5 22v12q-6 -8 -17 -16.5t-24.5 -15.5t-27.5 -11t-24 -4q-45 0 -77.5 19t-54 51t-32 74t-10.5 89v209h120v-217q0 -26 3 -48t10.5 -39t19 -26.5t28.5 -9.5zM302 490l-57 62
l-56 -62h-111l113 132h109l113 -132h-111z" />
    <glyph glyph-name="udieresis" unicode="&#xfc;" horiz-adv-x="492" 
d="M229 95q15 0 29 7t25.5 20t18.5 31.5t7 42.5v239h120v-338h54v-97h-122q-17 0 -31.5 6t-14.5 22v12q-6 -8 -17 -16.5t-24.5 -15.5t-27.5 -11t-24 -4q-45 0 -77.5 19t-54 51t-32 74t-10.5 89v209h120v-217q0 -26 3 -48t10.5 -39t19 -26.5t28.5 -9.5zM82 556q0 26 21 44.5
t53 18.5q30 0 51.5 -18.5t21.5 -44.5t-21.5 -44t-51.5 -18q-32 0 -53 18t-21 44zM262 556q0 26 21.5 44.5t51.5 18.5q31 0 52.5 -18.5t21.5 -44.5t-21.5 -44t-52.5 -18q-30 0 -51.5 18t-21.5 44z" />
    <glyph glyph-name="dagger" unicode="&#x2020;" horiz-adv-x="411" 
d="M392 271q-32 4 -51.5 6t-33 3.5t-24.5 2t-25 0.5q2 -12 3.5 -24.5t5.5 -24.5q-11 -126 -13.5 -248t-0.5 -245h-97q0 123 -2.5 244.5t-10.5 249.5q5 13 6.5 24.5t2.5 24.5l-134 -9l1 113q55 -5 86 -6t49 -2q-1 45 -3 88t-7 91h125q-5 -45 -9 -89t-4 -91q27 2 63.5 3.5
t72.5 6.5v-118z" />
    <glyph glyph-name="degree" unicode="&#xb0;" horiz-adv-x="312" 
d="M305 421q0 -28 -11.5 -53t-32 -43.5t-47.5 -29.5t-57 -11t-57.5 11t-47.5 30t-32 44.5t-12 53.5t12 53t32 44t47.5 29.5t57.5 10.5q32 0 59 -11t47 -30t31 -44.5t11 -53.5zM87 423q0 -29 20 -49t49 -20q30 0 50.5 20t20.5 49t-20.5 50t-50.5 21q-29 0 -49 -21t-20 -50z
" />
    <glyph glyph-name="cent" unicode="&#xa2;" horiz-adv-x="391" 
d="M190 -153v148q-38 6 -72 22.5t-60 44t-41.5 66t-15.5 86.5q0 46 15.5 84t41.5 67.5t60 48t72 25.5v88h76v-90q33 -8 69 -27.5t63 -48.5l-65 -68q-18 22 -36.5 33t-30.5 19v-260q15 7 37 23t33 31l65 -68q-27 -29 -64 -48t-71 -26v-150h-76zM121 214q0 -52 21.5 -82.5
t47.5 -42.5v255q-26 -13 -47.5 -45t-21.5 -85z" />
    <glyph glyph-name="sterling" unicode="&#xa3;" horiz-adv-x="513" 
d="M68 97h40l9 128h-49v65h52l3 35h-55v72h59q1 13 2 25q1 11 1.5 21.5t0.5 18.5q1 24 13 47.5t34.5 41.5t54.5 29t73 11q29 0 58 -8t52 -23t37.5 -38t14.5 -54q0 -20 -12.5 -42.5t-40.5 -48.5l-69 73q6 4 11 11.5t5 13.5q0 11 -18 17.5t-36 6.5q-26 0 -42 -14t-17 -34
l-3 -54h67v-71h-71l-1 -33h72v-68h-80l-7 -128h262v-97h-420v97z" />
    <glyph glyph-name="section" unicode="&#xa7;" horiz-adv-x="424" 
d="M398 227q0 -38 -14.5 -64t-42.5 -45q43 -33 43 -95q0 -37 -16 -64.5t-42.5 -45.5t-60 -27t-68.5 -9q-47 0 -93 15.5t-101 42.5l43 80q22 -12 41 -20.5t37 -14t36.5 -8.5t40.5 -3q28 0 45 14.5t17 39.5q0 14 -8 23.5t-21 16.5t-28 11t-30 7q-32 6 -50 13q-47 17 -75 52.5
t-28 80.5q0 34 14 60.5t40 44.5q-18 17 -29.5 38.5t-11.5 50.5q0 38 15 65t40 44.5t57.5 26t67.5 8.5q47 0 91 -15.5t94 -43.5l-44 -82q-32 20 -66 35t-71 15q-26 0 -45 -14t-19 -38q0 -13 8 -21t21 -13t27.5 -8.5t28.5 -6.5q30 -8 58.5 -19t50.5 -27.5t35 -41t13 -58.5z
M288 226q0 18 -10 30.5t-24.5 19.5t-31.5 10t-30 3q-21 0 -40 -17t-19 -43q0 -17 10 -29.5t24.5 -20t31 -11t30.5 -3.5q24 0 41.5 16.5t17.5 44.5z" />
    <glyph glyph-name="bullet" unicode="&#x2022;" horiz-adv-x="299" 
d="M29 282q0 25 9.5 47t26 38.5t38 26t46.5 9.5t47.5 -9.5t39 -26t26 -38.5t9.5 -47t-9.5 -47t-26 -38.5t-39 -26t-47.5 -9.5t-46.5 9.5t-38 26t-26 38.5t-9.5 47z" />
    <glyph glyph-name="paragraph" unicode="&#xb6;" horiz-adv-x="451" 
d="M318 466h-64v-606h-85v354q-70 11 -107.5 54.5t-37.5 117.5q0 55 17.5 89t48 53t71.5 25.5t88 6.5h195v-92h-40v-608h-86v606z" />
    <glyph glyph-name="germandbls" unicode="&#xdf;" horiz-adv-x="532" 
d="M261 129q14 -20 29 -31t33 -11q29 0 47 20t18 55q0 33 -21 54t-50 33q-17 7 -35.5 17.5t-33.5 25t-25 32.5t-10 40q0 20 11.5 42t24.5 46.5t23.5 51.5t8.5 57q-2 17 -15 29.5t-25 12.5q-21 0 -34 -11t-20 -30t-9 -44.5t-2 -54.5q1 -114 1 -199.5v-144.5v-119h-121v483
q0 38 10.5 76t33.5 68t60.5 49t90.5 19q30 0 57 -11t48 -30.5t33.5 -45.5t12.5 -56q0 -21 -12 -45t-27 -48t-27 -45t-12 -36q0 -10 13.5 -17.5t30.5 -15.5q25 -11 50.5 -25.5t46 -35.5t33.5 -49t13 -65q0 -38 -12.5 -70.5t-35.5 -56t-55.5 -36.5t-71.5 -13q-20 0 -40 5.5
t-38 15.5t-32.5 22.5t-22.5 26.5z" />
    <glyph glyph-name="registered" unicode="&#xae;" horiz-adv-x="387" 
d="M370 445q0 -36 -14 -68t-38 -56t-56 -38t-68 -14q-37 0 -69 13.5t-56 37.5t-38 55.5t-14 67.5q0 37 14 69t38 56t56 38t69 14q36 0 68 -13.5t56 -37.5t38 -56t14 -68zM334 441q0 29 -11 55t-30 45.5t-44.5 30.5t-54.5 11t-55 -11t-45.5 -30.5t-30.5 -45t-11 -55.5
q0 -29 11 -55t30 -45.5t45 -30.5t56 -11q29 0 54.5 11t44.5 30.5t30 45t11 55.5zM231 355l-34 72q-8 -1 -15 0t-14 0v-72h-39v188h70q26 0 46.5 -14t20.5 -42q0 -15 -8 -28t-23 -18l38 -86h-42zM226 485q0 18 -12 22.5t-27 4.5h-9.5t-9.5 -1v-52q5 -1 7.5 -1h7.5q15 0 29 4
t14 23z" />
    <glyph glyph-name="copyright" unicode="&#xa9;" horiz-adv-x="664" 
d="M647 288q0 -64 -25 -119.5t-67.5 -97t-100 -65t-121.5 -23.5t-121 23.5t-100 65t-68.5 97t-25.5 119.5q0 63 25.5 118.5t68.5 96t100 64t121 23.5t121.5 -23.5t100 -64t67.5 -96t25 -118.5zM595 286q0 53 -20.5 100t-55.5 82.5t-82.5 56t-101.5 20.5t-101 -20.5
t-82.5 -56t-56 -82.5t-20.5 -100t20.5 -100t56 -82t82.5 -55.5t101 -20.5t101.5 20.5t82.5 55.5t55.5 82t20.5 100zM343 176q19 0 41.5 7t46.5 33l40 -45q-27 -26 -60 -41t-68 -15q-36 0 -68 13.5t-55.5 37.5t-37 55.5t-13.5 67.5t13.5 69t37 58t55.5 39.5t68 14.5
q34 0 67.5 -15.5t59.5 -42.5l-42 -46q-23 26 -45 34t-40 8q-20 0 -37.5 -9.5t-30 -26t-20 -38t-7.5 -45.5q0 -23 7.5 -43.5t20 -36t30 -24.5t37.5 -9z" />
    <glyph glyph-name="trademark" unicode="&#x2122;" horiz-adv-x="691" 
d="M2 541v67h283v-67h-96v-276h-90v276h-97zM490 490l106 118h68v-343h-90v200l-83 -85l-85 87v-202h-91v343h68z" />
    <glyph glyph-name="acute" unicode="&#xb4;" 
d="M104 490h-92l81 132h136z" />
    <glyph glyph-name="dieresis" unicode="&#xa8;" 
d="M-43 556q0 26 21.5 44.5t52.5 18.5t52.5 -18.5t21.5 -44.5t-21.5 -44t-52.5 -18t-52.5 18t-21.5 44zM138 556q0 26 21 44.5t52 18.5t52.5 -18.5t21.5 -44.5t-21.5 -44t-52.5 -18t-52 18t-21 44z" />
    <glyph glyph-name="notequal" unicode="&#x2260;" horiz-adv-x="548" 
d="M332 239l-56 -81h208v-99h-276l-66 -95h-72l65 95h-71v99h139l57 81h-196v99h264l55 81h73l-55 -81h83v-99h-152z" />
    <glyph glyph-name="AE" unicode="&#xc6;" horiz-adv-x="768" 
d="M101 0h-136l377 608h371v-101h-233v-132h194v-102h-194v-171h253v-102h-378v234h-118zM355 333v105l-65 -105h65z" />
    <glyph glyph-name="Oslash" unicode="&#xd8;" horiz-adv-x="607" 
d="M10 301q0 63 22 120t59.5 100.5t88.5 69t108 25.5q78 0 140 -42q8 11 14.5 20t11.5 17h136l-84 -118q27 -42 42.5 -90.5t15.5 -101.5q0 -64 -21.5 -120.5t-59 -98.5t-88 -66t-107.5 -24q-35 0 -65 8t-58 23l-37 -53h-136l89 125q-33 42 -52 94t-19 112zM136 301
q0 -59 20 -105q53 73 102 142t104 145q-35 31 -74 31q-32 0 -59.5 -17.5t-48 -46.5t-32.5 -67.5t-12 -81.5zM440 301q0 22 -3.5 42.5t-8.5 40.5l-199 -274q15 -8 29.5 -12t29.5 -4q31 0 59 16t48.5 44t32.5 66t12 81z" />
    <glyph glyph-name="plusminus" unicode="&#xb1;" horiz-adv-x="548" 
d="M339 205v-102h-123v101h-153v101h153v138h124v-138h144v-100h-145zM75 -9v95h395v-95h-395z" />
    <glyph glyph-name="lessequal" unicode="&#x2264;" horiz-adv-x="548" 
d="M83 314l382 137v-103l-225 -72l225 -63v-104l-382 130v75zM83 -9v98h383v-98h-383z" />
    <glyph glyph-name="greaterequal" unicode="&#x2265;" horiz-adv-x="548" 
d="M465 238l-382 -129v103l233 63l-233 64v103l382 -129v-75zM83 -9v98h383v-98h-383z" />
    <glyph glyph-name="yen" unicode="&#xa5;" horiz-adv-x="513" 
d="M189 335l-184 249h137l114 -163l115 163h136l-184 -249h147l-12 -80h-142v-47h154l-12 -80h-142v-128h-120v128h-154l13 80h141v47h-154l13 80h134z" />
    <glyph glyph-name="mu" unicode="&#xb5;" horiz-adv-x="548" 
d="M476 50q-15 -20 -28 -31.5t-25 -16.5t-23.5 -6t-23.5 -1q-28 0 -47 16t-30 30q-8 -19 -29.5 -34t-52.5 -15q-21 0 -41 12.5t-27 20.5v-162h-113v578h117v-290q0 -24 18.5 -38.5t38.5 -14.5q16 0 30.5 9.5t25.5 24.5t17 33.5t6 36.5v239h116v-316q0 -6 3 -19t11 -14
q10 -1 16.5 4t13.5 20z" />
    <glyph glyph-name="ordfeminine" unicode="&#xaa;" horiz-adv-x="336" 
d="M293 592v-278h-84v36q-12 -15 -33.5 -25.5t-43.5 -10.5q-23 0 -43 11.5t-34.5 31t-22.5 44t-8 50.5q0 29 12 54.5t31.5 45t44.5 30.5t51 11h130zM163 511q-15 0 -32.5 -15.5t-17.5 -44.5q0 -20 10.5 -38.5t28.5 -18.5q12 0 22.5 6t17.5 16t11 21.5t4 23.5v50h-44z" />
    <glyph glyph-name="ordmasculine" unicode="&#xba;" horiz-adv-x="341" 
d="M26 455q0 30 11.5 56t31.5 45.5t46 31t55 11.5t55 -11.5t46 -31t31.5 -45.5t11.5 -56q0 -29 -11.5 -55t-31.5 -45.5t-46 -31t-55 -11.5t-55 11.5t-46 31t-31.5 45.5t-11.5 55zM115 455q0 -27 14.5 -47t40.5 -20q22 0 39 20t17 47q0 29 -16 49t-40 20t-39.5 -20.5
t-15.5 -48.5z" />
    <glyph glyph-name="ae" unicode="&#xe6;" horiz-adv-x="700" 
d="M496 -5q-32 0 -61 16.5t-42 32.5v-44h-107v44q-6 -8 -15.5 -16.5t-22 -16t-26.5 -12.5t-28 -5q-39 0 -72.5 17t-58 47t-38.5 70t-14 86q0 45 16.5 85.5t44 70.5t64 47.5t75.5 17.5h183v-35q6 8 17.5 15.5t25 13t27 9t24.5 3.5q36 0 68.5 -14t57.5 -39.5t39.5 -61.5
t14.5 -80q0 -30 -16 -41t-55 -11h-198q3 -24 12.5 -43t23 -32.5t29.5 -21t32 -7.5q8 0 19.5 1t25.5 6.5t29.5 16t30.5 30.5l55 -72q-34 -38 -75 -57.5t-85 -19.5zM220 337q-15 0 -29.5 -9.5t-25.5 -26.5t-18 -39.5t-7 -47.5q0 -26 5.5 -48.5t15 -39.5t22.5 -26.5t28 -9.5
q30 0 52 31.5t22 83.5v132h-65zM481 351q-32 0 -53 -22t-26 -48h151q-6 26 -26.5 48t-45.5 22z" />
    <glyph glyph-name="oslash" unicode="&#xf8;" horiz-adv-x="483" 
d="M30 217q0 47 18 88t48 71.5t69.5 48t83.5 17.5q22 0 50.5 -6t46.5 -15l24 35h83l-56 -83q25 -26 43 -65.5t18 -90.5q0 -47 -16.5 -87.5t-45 -71.5t-66.5 -48.5t-81 -17.5q-10 0 -24.5 1.5t-29 3.5t-28 5t-21.5 6q-8 -11 -16.5 -23.5t-14.5 -20.5h-79l56 83q-32 26 -47 73
t-15 97zM145 217q0 -26 3.5 -43t8.5 -30l132 195q-11 5 -27.5 5.5t-21.5 0.5q-19 0 -36.5 -10t-30.5 -27.5t-20.5 -40.5t-7.5 -50zM344 209q0 26 -6.5 42.5t-7.5 22.5l-121 -181q4 -1 19.5 -2t20.5 -1q18 0 35.5 8.5t30.5 24.5t21 37.5t8 48.5z" />
    <glyph glyph-name="questiondown" unicode="&#xbf;" horiz-adv-x="364" 
d="M240 302q0 -20 -13 -34.5t-38 -14.5q-15 0 -29.5 -6.5t-25.5 -18t-18 -27.5t-7 -34q0 -38 21.5 -59.5t51.5 -21.5q34 0 55.5 25t31.5 70l103 -26q-8 -37 -23 -67t-38.5 -51.5t-55.5 -33t-75 -11.5q-39 0 -73.5 11.5t-61 34t-41.5 55t-15 74.5q0 30 10 57.5t27 50.5t41 40
t53 27v95h120v-135zM248 535q0 -23 -20.5 -39.5t-47.5 -16.5q-28 0 -48 16.5t-20 39.5q0 24 20 40.5t48 16.5q27 0 47.5 -16.5t20.5 -40.5z" />
    <glyph glyph-name="exclamdown" unicode="&#xa1;" horiz-adv-x="187" 
d="M169 49q0 -14 -6.5 -25t-17.5 -18t-25 -10.5t-27 -3.5q-14 0 -28 3.5t-25 10t-17.5 17.5t-5.5 26l16 408q1 20 17.5 34t42.5 14t42.5 -14t17.5 -34zM161 603q0 -23 -20.5 -39.5t-47.5 -16.5q-28 0 -47.5 16.5t-19.5 39.5t19.5 40t47.5 17q27 0 47.5 -17t20.5 -40z" />
    <glyph glyph-name="logicalnot" unicode="&#xac;" horiz-adv-x="548" 
d="M379 183h-77t-84 -0.5t-82.5 -0.5h-72.5v100h422l-1 -209h-105v110z" />
    <glyph glyph-name="florin" unicode="&#x192;" horiz-adv-x="513" 
d="M391 402q-25 39 -51 51t-45 12q-15 0 -26 -8t-18.5 -21.5t-12 -31.5t-6.5 -37q-1 -10 -1.5 -16t-1 -11t-1 -11t-1.5 -17h176v-97h-183q-4 -45 -8 -93.5t-8.5 -97t-8.5 -96.5t-7 -92h-126l28 379h-45v97h53l5 59q3 41 13.5 77t32 62.5t57 42t88.5 15.5q54 0 97.5 -23
t79.5 -77z" />
    <glyph glyph-name="guillemotleft" unicode="&#xab;" horiz-adv-x="554" 
d="M377 223l100 -160h-129l-109 161l111 159h131zM165 225l98 -162h-128l-109 162l110 158h131z" />
    <glyph glyph-name="guillemotright" unicode="&#xbb;" horiz-adv-x="554" 
d="M374 63h-127l98 161q-11 17 -25.5 38.5t-28.5 43.5t-27 42.5t-22 34.5h130l110 -158zM156 63h-128l99 160q-12 17 -26 39l-28 44t-27 42.5t-23 34.5h131l111 -159z" />
    <glyph glyph-name="ellipsis" unicode="&#x2026;" horiz-adv-x="869" 
d="M74 60q0 28 23 48t56 20t55.5 -20t22.5 -48t-22.5 -48t-55.5 -20t-56 20t-23 48zM359 60q0 28 23 48t56 20t55.5 -19.5t22.5 -48.5t-22.5 -48.5t-55.5 -19.5t-56 20t-23 48zM646 60q0 28 22.5 48t55.5 20t56 -20t23 -48t-23 -48t-56 -20t-55.5 20t-22.5 48z" />
    <glyph glyph-name="Agrave" unicode="&#xc0;" horiz-adv-x="582" 
d="M131 0h-130l237 608h106l237 -608h-130l-83 208h-153zM291 421l-46 -116h93zM309 664l-128 132h137l83 -132h-92z" />
    <glyph glyph-name="Atilde" unicode="&#xc3;" horiz-adv-x="582" 
d="M131 0h-130l237 608h106l237 -608h-130l-83 208h-153zM291 421l-46 -116h93zM462 796q-4 -30 -12.5 -57t-23 -47.5t-35.5 -32.5t-51 -12q-22 0 -36 8t-25.5 17.5t-21.5 17.5t-23 8q-11 0 -18 -6.5t-11.5 -15t-7 -17.5t-2.5 -13h-75q4 22 12.5 48t23 48.5t35.5 37t51 14.5
q21 0 36.5 -7.5t29 -16.5t25 -16.5t25.5 -7.5q9 0 15 6t9.5 14.5t5 16.5t2.5 13h72z" />
    <glyph glyph-name="Otilde" unicode="&#xd5;" horiz-adv-x="639" 
d="M43 301q0 71 22 129t59.5 99.5t88 64t107.5 22.5t107 -22.5t87.5 -64t59.5 -99.5t22 -129q0 -72 -22 -129.5t-59.5 -97t-87.5 -61t-107 -21.5t-107.5 21.5t-88 61t-59.5 97t-22 129.5zM168 301q0 -48 12 -86.5t32.5 -65t48 -41t59.5 -14.5q31 0 59 14.5t48.5 41t32.5 65
t12 86.5q0 47 -12 86t-32.5 67.5t-48.5 44t-59 15.5q-32 0 -59.5 -15.5t-48 -44t-32.5 -67.5t-12 -86zM490 796q-4 -30 -12.5 -57t-23 -47.5t-35.5 -32.5t-51 -12q-22 0 -36.5 8t-25.5 17.5t-21 17.5t-23 8q-11 0 -18 -6.5t-11.5 -15t-7 -17.5t-3.5 -13h-74q4 22 12.5 48
t23 48.5t35.5 37t51 14.5q21 0 36.5 -7.5t28.5 -16.5t25 -16.5t26 -7.5q9 0 14.5 6t9 14.5t5.5 16.5t3 13h72z" />
    <glyph glyph-name="OE" unicode="&#x152;" horiz-adv-x="834" 
d="M422 59q-12 -12 -29 -24t-37 -21.5t-42.5 -15.5t-44.5 -6q-57 0 -107.5 24t-88 66t-59 98.5t-21.5 120.5q0 63 21.5 120t59 100.5t88 69t107.5 25.5q41 0 84.5 -20t68.5 -49v61h359v-101h-234v-132h195v-102h-195v-171h254v-102h-379v59zM117 301q0 -43 12 -81t33 -66
t48.5 -44t58.5 -16q32 0 59.5 16t48 44t32.5 66t12 81t-12 81.5t-32.5 67.5t-48 46.5t-59.5 17.5q-31 0 -58.5 -17.5t-48.5 -46.5t-33 -67.5t-12 -81.5z" />
    <glyph glyph-name="oe" unicode="&#x153;" horiz-adv-x="756" 
d="M546 -8q-45 0 -83.5 17.5t-67.5 48.5q-28 -31 -66 -48.5t-83 -17.5q-44 0 -82 17.5t-66.5 48.5t-45 71.5t-16.5 87.5t16.5 88t45 71.5t66.5 48t82 17.5q43 0 80.5 -16.5t65.5 -45.5q26 28 60.5 45t74.5 17q36 0 70.5 -14.5t61 -40t43 -61t16.5 -77.5q0 -30 -16 -42
t-55 -12h-198q3 -24 12.5 -43t23 -33t29.5 -21.5t32 -7.5q8 0 19.5 1t25.5 6.5t29.5 16t30.5 30.5l55 -72q-35 -38 -75.5 -59t-84.5 -21zM156 217q0 -26 7 -49.5t19 -40.5t28.5 -27t35.5 -10t35 10t28 27t19 40.5t7 49.5q0 27 -7 50t-19 40.5t-28 27.5t-35 10t-35.5 -10
t-28.5 -27.5t-19 -40.5t-7 -50zM522 345q-26 0 -45.5 -20t-24.5 -46h142q-5 26 -24 46t-48 20z" />
    <glyph glyph-name="endash" unicode="&#x2013;" horiz-adv-x="435" 
d="M-1 196v100h433v-100h-433z" />
    <glyph glyph-name="emdash" unicode="&#x2014;" horiz-adv-x="869" 
d="M0 196v100h869v-100h-869z" />
    <glyph glyph-name="quotedblleft" unicode="&#x201c;" horiz-adv-x="388" 
d="M171 458q0 -29 -22.5 -48.5t-55.5 -19.5t-56 21t-23 50q1 8 7 25l59 99h104l-31 -84q18 -20 18 -43zM362 458q0 -28 -22.5 -48t-56.5 -20q-33 0 -56 21t-23 50q1 8 7 25l59 99h105l-31 -84q18 -21 18 -43z" />
    <glyph glyph-name="quotedblright" unicode="&#x201d;" horiz-adv-x="388" 
d="M30 522q0 29 22.5 48t56.5 19q33 0 55.5 -20.5t22.5 -49.5q-1 -5 -1.5 -10t-5.5 -15l-58 -99h-105l32 84q-19 18 -19 43zM213 522q0 29 22.5 48t55.5 19t56 -20.5t23 -49.5q-1 -5 -1.5 -10t-5.5 -15l-58 -99h-105l31 84q-18 18 -18 43z" />
    <glyph glyph-name="quoteleft" unicode="&#x2018;" horiz-adv-x="214" 
d="M178 458q0 -28 -22.5 -48t-55.5 -20t-56 21t-23 50q1 5 2 10.5t5 14.5l28 49q11 19 20 34t11 16h104l-30 -84q17 -20 17 -43z" />
    <glyph glyph-name="quoteright" unicode="&#x2019;" horiz-adv-x="214" 
d="M35 522q0 29 23 48t56 19t55.5 -20.5t22.5 -49.5q-1 -5 -1.5 -10t-5.5 -15l-29 -50q-11 -19 -20 -34.5t-9 -14.5h-105l32 84q-19 18 -19 43z" />
    <glyph glyph-name="divide" unicode="&#xf7;" horiz-adv-x="560" 
d="M355 374q0 -29 -22.5 -47.5t-54.5 -18.5t-54 18.5t-22 47.5q0 26 22 46t54 20q33 0 55 -19t22 -47zM70 186v95h420v-95h-420zM355 89q0 -29 -22.5 -47t-54.5 -18t-54 18t-22 47q0 26 21.5 46t54.5 20t55 -20t22 -46z" />
    <glyph glyph-name="ydieresis" unicode="&#xff;" horiz-adv-x="504" 
d="M268 -303q-25 0 -56 5.5t-66 14.5l19 96q28 -11 58 -15t45 -4q35 0 45 14.5t10 30.5v201q-13 -15 -38.5 -28t-45.5 -13q-39 0 -72 16.5t-56.5 46t-36.5 69t-13 86.5v218h120v-218q0 -51 19 -85.5t48 -34.5q34 0 54.5 33t20.5 81v224h120v-596q0 -32 -8.5 -58t-29 -44.5
t-54 -29t-83.5 -10.5zM88 556q0 26 21 44.5t53 18.5q30 0 51.5 -18.5t21.5 -44.5t-21.5 -44t-51.5 -18q-32 0 -53 18t-21 44zM269 556q0 26 21 44.5t52 18.5q30 0 51.5 -18.5t21.5 -44.5t-21.5 -44t-51.5 -18q-31 0 -52 18t-21 44z" />
    <glyph glyph-name="Ydieresis" unicode="&#x178;" horiz-adv-x="533" 
d="M527 608l-199 -297v-311h-124v310l-199 298h142l120 -179l119 179h141zM103 730q0 26 21 44.5t52 18.5t52.5 -18.5t21.5 -44.5t-21.5 -44.5t-52.5 -18.5t-52 18.5t-21 44.5zM283 730q0 26 21 44.5t52 18.5t52.5 -18.5t21.5 -44.5t-21.5 -44.5t-52.5 -18.5t-52 18.5
t-21 44.5z" />
    <glyph glyph-name="fraction" unicode="&#x2044;" horiz-adv-x="138" 
d="M-69 0h-103l385 588h102z" />
    <glyph glyph-name="guilsinglleft" unicode="&#x2039;" horiz-adv-x="322" 
d="M180 224l95 -156h-126l-106 157l106 152h129z" />
    <glyph glyph-name="guilsinglright" unicode="&#x203a;" horiz-adv-x="328" 
d="M176 63h-130l101 160q-11 17 -25.5 39l-29 44t-27.5 42t-22 35h131l111 -159z" />
    <glyph glyph-name="fi" unicode="&#xfb01;" horiz-adv-x="483" 
d="M431 0h-120v337h-116v-337h-120v337h-75v98h75v146q0 32 13 54t33 35.5t45.5 19t51.5 5.5q60 0 109.5 -9t80.5 -18l-20 -86q-14 4 -47 11.5t-92 7.5q-8 0 -17.5 -2t-17.5 -7.5t-13.5 -15t-5.5 -24.5v-117h236v-435z" />
    <glyph glyph-name="fl" unicode="&#xfb02;" horiz-adv-x="526" 
d="M284 336l-89 1v-337h-120v337h-75v98h75v155q0 28 12.5 48t33.5 33t48 19t56 6q3 0 19.5 -1t37.5 -3.5t41 -5t31 -5.5v14h120v-695h-120v588q-19 4 -38 6.5t-34.5 4t-26.5 1.5h-14q-6 0 -14 -1.5t-15 -5t-12 -9.5t-5 -15v-134h89v-99z" />
    <glyph glyph-name="daggerdbl" unicode="&#x2021;" horiz-adv-x="551" 
d="M471 281q-57 7 -89 9t-54 3q3 -20 5 -33t7 -33q-4 -23 -6.5 -44t-5.5 -44q17 1 36.5 2t38.5 2t36.5 2t30.5 2v-104q-42 3 -79 5.5t-65 2.5q2 -39 5.5 -84t8.5 -95h-131l10 90t5 90q-14 0 -32 -1t-37.5 -2.5l-39 -3t-35.5 -2.5v107q42 -5 80.5 -7.5t60.5 -3.5
q-2 18 -4.5 44.5t-6.5 44.5q5 17 7.5 33.5t4.5 31.5q-17 -1 -36.5 -2t-39 -2.5t-37 -2.5t-29.5 -2l1 108q47 -6 84.5 -9t58.5 -4q-2 40 -5 86t-8 94h129q-5 -45 -9 -90t-4 -90q13 1 30.5 2t36.5 2.5t39 2.5t38 3v-108z" />
    <glyph glyph-name="periodcentered" unicode="&#xb7;" horiz-adv-x="263" 
d="M61 266q0 29 20.5 50t49.5 21t50 -21t21 -50t-21 -49.5t-50 -20.5t-49.5 20.5t-20.5 49.5z" />
    <glyph glyph-name="quotesinglbase" unicode="&#x201a;" horiz-adv-x="185" 
d="M14 60q0 28 22.5 48t55.5 20t56 -21t23 -51q0 -12 -7 -31t-16 -39.5t-18.5 -39.5l-15.5 -31h-89l30 92q-22 5 -31.5 22.5t-9.5 30.5z" />
    <glyph glyph-name="quotedblbase" unicode="&#x201e;" horiz-adv-x="371" 
d="M14 60q0 28 22.5 48t55.5 20t56 -21t23 -51q0 -12 -7 -31t-16 -39.5t-18.5 -39.5l-15.5 -31h-89l30 92q-22 5 -31.5 22.5t-9.5 30.5zM200 60q0 28 22.5 48t55.5 20t56 -21t23 -51q0 -12 -7 -31t-16 -39.5t-18.5 -39.5l-15.5 -31h-89l30 92q-22 5 -31.5 22.5t-9.5 30.5z
" />
    <glyph glyph-name="perthousand" unicode="&#x2030;" horiz-adv-x="789" 
d="M10 487q0 24 9.5 45.5t26.5 37t40 24.5t50 9q26 0 48.5 -9t39.5 -24.5t26.5 -37t9.5 -45.5q0 -25 -9.5 -46.5t-26.5 -37t-39.5 -24.5t-48.5 -9q-27 0 -50 9t-40 24.5t-26.5 37t-9.5 46.5zM247 109q0 24 9.5 45.5t26.5 37t39.5 24.5t48.5 9t48.5 -9t39.5 -24.5t27 -37
t10 -45.5q0 -25 -10 -46.5t-27 -37t-39.5 -24.5t-48.5 -9t-48.5 9t-39.5 24.5t-26.5 37t-9.5 46.5zM17 0l375 595h93l-369 -595h-99zM88 485q0 -21 14 -37t34 -16t33 16t13 37t-13 37.5t-33 16.5t-34 -16.5t-14 -37.5zM324 108q0 -21 14 -37t34 -16t33 16t13 37t-13 37.5
t-33 16.5t-34 -16.5t-14 -37.5zM529 109q0 24 9.5 45.5t26.5 37t39.5 24.5t48.5 9t49 -9t40 -24.5t27 -37t10 -45.5q0 -25 -10 -46.5t-27 -37t-40 -24.5t-49 -9t-48.5 9t-39.5 24.5t-26.5 37t-9.5 46.5zM607 108q0 -21 13.5 -37t33.5 -16t33 16t13 37t-13 37.5t-33 16.5
t-33.5 -16.5t-13.5 -37.5z" />
    <glyph glyph-name="Acircumflex" unicode="&#xc2;" horiz-adv-x="582" 
d="M131 0h-130l237 608h106l237 -608h-130l-83 208h-153zM291 421l-46 -116h93zM347 646l-57 61l-55 -61h-112l113 132h109l113 -132h-111z" />
    <glyph glyph-name="Ecircumflex" unicode="&#xca;" horiz-adv-x="454" 
d="M59 608h359v-101h-234v-132h195v-102h-195v-171h253v-102h-378v608zM282 646l-56 61l-56 -61h-111l113 132h109l113 -132h-112z" />
    <glyph glyph-name="Aacute" unicode="&#xc1;" horiz-adv-x="582" 
d="M131 0h-130l237 608h106l237 -608h-130l-83 208h-153zM291 421l-46 -116h93zM275 664h-93l81 132h136z" />
    <glyph glyph-name="Edieresis" unicode="&#xcb;" horiz-adv-x="454" 
d="M59 608h359v-101h-234v-132h195v-102h-195v-171h253v-102h-378v608zM63 730q0 26 21 44.5t52 18.5t52.5 -18.5t21.5 -44.5t-21.5 -44.5t-52.5 -18.5t-52 18.5t-21 44.5zM243 730q0 26 21 44.5t52 18.5t52.5 -18.5t21.5 -44.5t-21.5 -44.5t-52.5 -18.5t-52 18.5t-21 44.5z
" />
    <glyph glyph-name="Egrave" unicode="&#xc8;" horiz-adv-x="454" 
d="M59 608h359v-101h-234v-132h195v-102h-195v-171h253v-102h-378v608zM245 664l-129 132h138l83 -132h-92z" />
    <glyph glyph-name="Iacute" unicode="&#xcd;" horiz-adv-x="333" 
d="M103 507h-77v101h281v-101h-78v-405h78v-102h-281v102h77v405zM150 664h-92l81 132h136z" />
    <glyph glyph-name="Icircumflex" unicode="&#xce;" horiz-adv-x="333" 
d="M103 507h-77v101h281v-101h-78v-405h78v-102h-281v102h77v405zM222 646l-56 61l-56 -61h-111l113 132h109l113 -132h-112z" />
    <glyph glyph-name="Idieresis" unicode="&#xcf;" horiz-adv-x="333" 
d="M103 507h-77v101h281v-101h-78v-405h78v-102h-281v102h77v405zM3 730q0 26 21 44.5t52 18.5t52.5 -18.5t21.5 -44.5t-21.5 -44.5t-52.5 -18.5t-52 18.5t-21 44.5zM183 730q0 26 21.5 44.5t51.5 18.5q31 0 52.5 -18.5t21.5 -44.5t-21.5 -44.5t-52.5 -18.5
q-30 0 -51.5 18.5t-21.5 44.5z" />
    <glyph glyph-name="Igrave" unicode="&#xcc;" horiz-adv-x="333" 
d="M103 507h-77v101h281v-101h-78v-405h78v-102h-281v102h77v405zM184 664l-128 132h137l83 -132h-92z" />
    <glyph glyph-name="Oacute" unicode="&#xd3;" horiz-adv-x="639" 
d="M43 301q0 71 22 129t59.5 99.5t88 64t107.5 22.5t107 -22.5t87.5 -64t59.5 -99.5t22 -129q0 -72 -22 -129.5t-59.5 -97t-87.5 -61t-107 -21.5t-107.5 21.5t-88 61t-59.5 97t-22 129.5zM168 301q0 -48 12 -86.5t32.5 -65t48 -41t59.5 -14.5q31 0 59 14.5t48.5 41t32.5 65
t12 86.5q0 47 -12 86t-32.5 67.5t-48.5 44t-59 15.5q-32 0 -59.5 -15.5t-48 -44t-32.5 -67.5t-12 -86zM303 664h-92l81 132h136z" />
    <glyph glyph-name="Ocircumflex" unicode="&#xd4;" horiz-adv-x="639" 
d="M43 301q0 71 22 129t59.5 99.5t88 64t107.5 22.5t107 -22.5t87.5 -64t59.5 -99.5t22 -129q0 -72 -22 -129.5t-59.5 -97t-87.5 -61t-107 -21.5t-107.5 21.5t-88 61t-59.5 97t-22 129.5zM168 301q0 -48 12 -86.5t32.5 -65t48 -41t59.5 -14.5q31 0 59 14.5t48.5 41t32.5 65
t12 86.5q0 47 -12 86t-32.5 67.5t-48.5 44t-59 15.5q-32 0 -59.5 -15.5t-48 -44t-32.5 -67.5t-12 -86zM375 646l-56 61l-56 -61h-111l113 132h109l113 -132h-112z" />
    <glyph glyph-name="Ograve" unicode="&#xd2;" horiz-adv-x="639" 
d="M43 301q0 71 22 129t59.5 99.5t88 64t107.5 22.5t107 -22.5t87.5 -64t59.5 -99.5t22 -129q0 -72 -22 -129.5t-59.5 -97t-87.5 -61t-107 -21.5t-107.5 21.5t-88 61t-59.5 97t-22 129.5zM168 301q0 -48 12 -86.5t32.5 -65t48 -41t59.5 -14.5q31 0 59 14.5t48.5 41t32.5 65
t12 86.5q0 47 -12 86t-32.5 67.5t-48.5 44t-59 15.5q-32 0 -59.5 -15.5t-48 -44t-32.5 -67.5t-12 -86zM337 664l-128 132h137l83 -132h-92z" />
    <glyph glyph-name="Uacute" unicode="&#xda;" horiz-adv-x="605" 
d="M302 91q22 0 42.5 10t36.5 27t25 39t9 47v394h126v-398q0 -47 -18 -87t-49.5 -69t-75.5 -45.5t-96 -16.5q-49 0 -92.5 18t-75.5 48.5t-51 71.5t-19 88v390h125v-390q0 -26 9 -49t24.5 -40.5t36 -27.5t43.5 -10zM286 664h-92l81 132h135z" />
    <glyph glyph-name="Ucircumflex" unicode="&#xdb;" horiz-adv-x="605" 
d="M302 91q22 0 42.5 10t36.5 27t25 39t9 47v394h126v-398q0 -47 -18 -87t-49.5 -69t-75.5 -45.5t-96 -16.5q-49 0 -92.5 18t-75.5 48.5t-51 71.5t-19 88v390h125v-390q0 -26 9 -49t24.5 -40.5t36 -27.5t43.5 -10zM358 664l-56 62l-56 -62h-111l113 132h108l113 -132h-111z
" />
    <glyph glyph-name="Ugrave" unicode="&#xd9;" horiz-adv-x="605" 
d="M302 91q22 0 42.5 10t36.5 27t25 39t9 47v394h126v-398q0 -47 -18 -87t-49.5 -69t-75.5 -45.5t-96 -16.5q-49 0 -92.5 18t-75.5 48.5t-51 71.5t-19 88v390h125v-390q0 -26 9 -49t24.5 -40.5t36 -27.5t43.5 -10zM321 664l-129 132h137l84 -132h-92z" />
    <glyph glyph-name="dotlessi" unicode="&#x131;" 
d="M180 0h-119v435h119v-435z" />
    <glyph glyph-name="circumflex" unicode="&#x2c6;" 
d="M177 490l-56 62l-56 -62h-111l113 132h109l113 -132h-112z" />
    <glyph glyph-name="tilde" unicode="&#x2dc;" 
d="M292 640q-4 -30 -12.5 -57t-23 -47.5t-36 -32.5t-51.5 -12q-21 0 -35.5 8t-26 17.5t-21.5 17.5t-23 8q-10 0 -17 -6.5t-11.5 -15t-7 -17.5t-3.5 -13h-74q4 22 12.5 48.5t23 48.5t35.5 37t51 15q21 0 36.5 -7.5t28.5 -17t25 -17t26 -7.5q9 0 14.5 6t9 14.5t5.5 16.5t3 13
h72z" />
    <glyph glyph-name="macron" unicode="&#xaf;" 
d="M-27 490v100h296v-100h-296z" />
    <glyph glyph-name="breve" unicode="&#x2d8;" 
d="M267 630q-9 -79 -45 -115t-102 -36t-103.5 41.5t-40.5 109.5h88q0 -22 13.5 -42.5t43.5 -20.5q31 0 43 20.5t12 42.5h91z" />
    <glyph glyph-name="dotaccent" unicode="&#x2d9;" 
d="M50 556q0 29 21 50t50 21t49.5 -21t20.5 -50t-20.5 -49.5t-49.5 -20.5t-50 20.5t-21 49.5z" />
    <glyph glyph-name="ring" unicode="&#x2da;" 
d="M196 548q0 -32 -22.5 -53t-54.5 -21q-31 0 -53 22t-22 53q0 15 6 28.5t16.5 23.5t24 15.5t28.5 5.5q32 0 54.5 -21t22.5 -53zM158 547q0 15 -10.5 27t-28.5 12q-17 0 -27 -12t-10 -27t10 -27t26 -12q18 0 29 12t11 27z" />
    <glyph glyph-name="cedilla" unicode="&#xb8;" 
d="M222 -108q0 -24 -10.5 -41.5t-27.5 -28.5t-38 -16t-41 -5q-23 0 -40 3t-45 14l15 54q24 -8 39 -11t29 -3q15 0 31 7t16 26q0 16 -10.5 22t-17.5 6q-5 0 -12 -1.5t-10 -3.5l-35 36q8 10 13.5 16.5t7.5 11.5l16 32h70q-2 -2 -4 -5q-2 -2 -3.5 -5.5t-3.5 -5.5l-15 -25
q30 -4 53 -26t23 -51z" />
    <glyph glyph-name="hungarumlaut" unicode="&#x2dd;" 
d="M185 491h-82q17 37 28.5 59.5t20 35.5t13.5 20.5t9 15.5h140zM10 491h-81q0 -1 7.5 11.5t18.5 32t23 43t21 44.5h140z" />
    <glyph glyph-name="ogonek" unicode="&#x2db;" 
d="M203 -83q-18 -12 -42 -21t-47 -9q-34 0 -55.5 21t-21.5 56q0 30 20 48.5t46 23.5q6 2 13 5.5t17 11.5l49 -17q-14 -14 -34.5 -28.5t-40.5 -19.5q-8 -3 -14 -10.5t-6 -18.5q0 -12 9.5 -19t19.5 -7q12 0 30 6t34 19z" />
    <glyph glyph-name="caron" unicode="&#x2c7;" 
d="M65 622l57 -61l55 61h112l-113 -132h-109l-113 132h111z" />
    <glyph glyph-name="Euro" unicode="&#x20ac;" horiz-adv-x="513" 
d="M193 289v-28h206l-12 -89h-177q14 -37 39 -59.5t63 -22.5q27 0 60 16.5t73 54.5l62 -82q-45 -39 -93 -63t-102 -24q-46 0 -83 13t-65 37t-47 57t-30 73h-79l13 89h52v25v18h-65l13 89h64q10 42 29 78.5t47.5 63t66 42t84.5 15.5q62 0 106 -25.5t89 -77.5l-66 -76
q-41 49 -70 65t-59 16q-41 0 -66 -29.5t-39 -71.5h192l-12 -89h-194l-1 -18z" />
    <glyph glyph-name="Eth" unicode="&#xd0;" horiz-adv-x="625" 
d="M59 352v256h237q57 0 108 -24t88.5 -65t59.5 -96.5t22 -118.5t-22 -118.5t-59.5 -96.5t-88 -65t-108.5 -24h-237v262h-56v90h56zM296 102q32 0 59.5 16t48 43t32.5 64t12 79t-11.5 78.5t-32 64.5t-47.5 44t-58 16h-116v-155h79v-90h-79v-160h113z" />
    <glyph glyph-name="eth" unicode="&#xf0;" horiz-adv-x="529" 
d="M92 512l87 49q-26 8 -56.5 10.5t-62.5 2.5v84q66 0 118 -11t90 -31l98 54l40 -56l-71 -42q42 -47 69.5 -89.5t44.5 -85.5t24 -88t7 -96q0 -42 -15 -82.5t-43 -71.5t-68 -50t-90 -19t-89.5 16.5t-67 45.5t-42.5 68.5t-15 84.5t12.5 85t38 71t65 49t92.5 18q12 0 29.5 -2
t30.5 -7q-5 12 -13 26t-17.5 28t-19.5 26.5t-20 21.5l-118 -66zM172 205q0 -22 6 -43.5t17.5 -39t28.5 -28t40 -10.5q21 0 38.5 11.5t29.5 30.5t18.5 41.5t6.5 45.5q0 59 -25.5 92.5t-67.5 33.5q-23 0 -40.5 -12.5t-29 -32t-17 -43t-5.5 -46.5z" />
    <glyph glyph-name="nonbreakingspace" unicode="&#xa0;" horiz-adv-x="200" 
 />
    <glyph glyph-name="Lslash" unicode="&#x141;" horiz-adv-x="474" 
d="M57 204l-27 -20l-37 86l64 48v290h125v-194l41 33l39 -87l-80 -60v-198h272v-102h-397v204z" />
    <glyph glyph-name="currency" unicode="&#xa4;" horiz-adv-x="556" 
d="M469 399l-44 44l46 46l44 -44zM86 395l-45 45l46 46l45 -46zM477 252q0 -95 -51.5 -146.5t-146.5 -51.5q-45 0 -81.5 13t-61.5 37q-25 25 -38 62t-13 82q0 94 51.5 145.5t147.5 51.5q93 0 143 -50t50 -143zM86 16l-44 44l46 45l44 -43zM468 15l-44 45l45 45l44 -44z
M394 253q0 25 -7 46t-21 35t-35 21t-47 7q-56 0 -86 -29.5t-30 -84.5q0 -54 29 -82.5t83 -28.5t84 30t30 86z" />
    </font>
</defs>
</svg>
