<?xml version="1.0" standalone="no"?>
<!DOCTYPE svg PUBLIC "-//W3C//DTD SVG 1.1//EN" "http://www.w3.org/Graphics/SVG/1.1/DTD/svg11.dtd" >
<svg xmlns="http://www.w3.org/2000/svg" xmlns:xlink="http://www.w3.org/1999/xlink" version="1.1">
<metadata>
Created by FontForge 20170924 at Sun Oct  2 17:53:20 2016
 By www-data
Copyright (c) 2006 by Robert Alan Hillier. All rights reserved.
</metadata>
<defs>
<font id="SylexiadSansMedium" horiz-adv-x="200" >
  <font-face 
    font-family="Sylexiad Sans Medium"
    font-weight="400"
    font-stretch="normal"
    units-per-em="1000"
    panose-1="2 0 5 6 4 0 0 2 0 4"
    ascent="800"
    descent="-200"
    x-height="435"
    cap-height="608"
    bbox="-175 -304 901 809"
    underline-thickness="50"
    underline-position="-100"
    unicode-range="U+0020-FB02"
  />
<missing-glyph 
 />
    <glyph glyph-name=".notdef" 
 />
    <glyph glyph-name=".null" horiz-adv-x="0" 
 />
    <glyph glyph-name="nonmarkingreturn" 
 />
    <glyph glyph-name="space" unicode=" " 
 />
    <glyph glyph-name="dollar" unicode="$" horiz-adv-x="513" 
d="M228 -4q-44 4 -81.5 20t-66.5 41t-47 57.5t-21 69.5l61 18q4 -62 47.5 -101t107.5 -47v257q-38 7 -73 18t-62.5 29t-44 46t-16.5 70q0 26 15 49.5t41.5 42t62 30.5t77.5 15v50h57v-51q68 -5 118.5 -34.5t68.5 -72.5l-54 -29q-8 30 -45 51.5t-88 26.5v-185q39 -8 77 -19
t68.5 -30.5t49 -50t18.5 -76.5q0 -41 -17 -75t-46 -59.5t-68 -41.5t-82 -19v-66h-57v66zM431 189q0 27 -12 45.5t-32 31t-46.5 21t-55.5 14.5v-248q31 3 57.5 14.5t46 30t31 42t11.5 49.5zM99 472q0 -22 10 -37.5t27.5 -26t41 -18t50.5 -12.5v174q-27 -2 -50.5 -8.5t-41 -17
t-27.5 -24.5t-10 -30z" />
    <glyph glyph-name="percent" unicode="%" horiz-adv-x="502" 
d="M31 501q0 23 9 43.5t24.5 35.5t36 24t44.5 9t44.5 -9t35.5 -24t24 -35.5t9 -43.5t-9 -43t-24 -35t-35.5 -23.5t-44.5 -8.5t-44.5 8.5t-36 23.5t-24.5 35t-9 43zM249 103q0 23 9 43t24 35t35.5 24t44.5 9q23 0 43.5 -9t36 -24t24.5 -35t9 -43t-9 -43.5t-24.5 -35.5
t-36 -24t-43.5 -9q-24 0 -44.5 9t-35.5 24t-24 35.5t-9 43.5zM28 0l380 604h64l-379 -604h-65zM85 501q0 -25 17.5 -43t42.5 -18t42 18t17 43t-17 43.5t-42 18.5t-42.5 -18.5t-17.5 -43.5zM302 103q0 -26 17.5 -44t42.5 -18t42 18t17 44q0 25 -17 43t-42 18t-42.5 -18
t-17.5 -43z" />
    <glyph glyph-name="ampersand" unicode="&#x26;" horiz-adv-x="531" 
d="M405 461q0 -27 -12.5 -51t-32.5 -43.5t-46 -33t-54 -17.5l161 -162q2 9 4 20t2 21v57h61v-76q0 -19 -5 -36t-13 -34l64 -63q-10 -11 -19.5 -21.5t-19.5 -21.5l-60 58q-30 -30 -73.5 -48t-94.5 -18q-45 0 -85 14.5t-70 39.5t-47.5 58.5t-17.5 71.5q0 50 30 92t81 66
l-26 26q-43 43 -43 101q0 31 12.5 58t34 47t50 31.5t61.5 11.5t61.5 -11.5t50 -31.5t34 -47t12.5 -58zM269 50q38 0 69.5 14t51.5 38l-188 190q-45 -12 -67 -42.5t-22 -71.5q0 -26 12.5 -49t34 -40.5t49.5 -28t60 -10.5zM154 461q0 -20 8.5 -37t21.5 -31l37 -38q21 2 42 10
t38 21.5t27.5 32t10.5 41.5q0 36 -26 62.5t-66 26.5q-39 0 -65.5 -25.5t-27.5 -62.5z" />
    <glyph glyph-name="quotesingle" unicode="'" horiz-adv-x="112" 
d="M29 666q2 14 12 20.5t21 6.5q13 0 23.5 -11t10.5 -22q0 -15 -2.5 -35t-8.5 -38.5t-15.5 -31t-22.5 -12.5q-12 0 -21.5 9.5t-9.5 21.5q0 22 4.5 45.5t8.5 46.5z" />
    <glyph glyph-name="parenleft" unicode="(" horiz-adv-x="186" 
d="M81 247q0 -60 6.5 -116t17.5 -99t26 -69t32 -26l8 -54q-11 -4 -14.5 -4.5t-5.5 -0.5q-28 0 -53 30.5t-43.5 81.5t-29.5 118t-11 139t11 138.5t29.5 117.5t43.5 81t53 30q2 0 5.5 -0.5t14.5 -3.5l-8 -54q-17 0 -32 -25.5t-26 -68.5t-17.5 -99t-6.5 -116z" />
    <glyph glyph-name="parenright" unicode=")" horiz-adv-x="185" 
d="M104 247q0 60 -6.5 116t-17.5 99t-26 68.5t-31 25.5l-9 54q10 3 13.5 3.5t5.5 0.5q28 0 53 -30t44 -81t29.5 -117.5t10.5 -138.5t-10.5 -139t-29.5 -118t-44 -81.5t-53 -30.5q-2 0 -5.5 0.5t-13.5 4.5l9 54q16 0 31 26t26 69t17.5 99t6.5 116z" />
    <glyph glyph-name="asterisk" unicode="*" horiz-adv-x="218" 
d="M10 608h71l-51 48l15 16l52 -50v73h22v-71l49 51l15 -15l-49 -52h72v-21h-71l52 -49l-15 -16l-53 50v-72h-22v69l-48 -50l-16 15l50 53h-73v21z" />
    <glyph glyph-name="plus" unicode="+" horiz-adv-x="547" 
d="M309 168v-168h-65v167h-172v57h172v171h65v-171h165v-56h-165z" />
    <glyph glyph-name="comma" unicode="," horiz-adv-x="159" 
d="M25 42q0 21 15.5 36t38.5 15t38 -15.5t15 -36.5q0 -6 -1.5 -10t-1.5 -10q-10 -24 -22 -51t-22 -50h-57l28 79q-15 4 -23 16.5t-8 26.5z" />
    <glyph glyph-name="hyphen" unicode="-" horiz-adv-x="466" 
d="M434 268l-5 -59h-398l4 59h399z" />
    <glyph glyph-name="period" unicode="." horiz-adv-x="159" 
d="M25 43q0 20 15.5 35t38.5 15t38.5 -15t15.5 -35q0 -22 -15.5 -37t-38.5 -15t-38.5 15t-15.5 37z" />
    <glyph glyph-name="slash" unicode="/" horiz-adv-x="234" 
d="M-2 0l170 685h67l-168 -685h-69z" />
    <glyph glyph-name="zero" unicode="0" horiz-adv-x="513" 
d="M36 301q0 64 13.5 120t41 98t69 66t96.5 24t96.5 -24t69 -66t41.5 -98t14 -120q0 -65 -14 -121.5t-41.5 -98.5t-69 -66t-96.5 -24t-96.5 24t-69 66t-41 98.5t-13.5 121.5zM102 301q0 -52 9 -97.5t28 -79.5t48 -53.5t69 -19.5t69 19.5t48 53.5t28 79.5t9 97.5
q0 51 -9 96.5t-28 79.5t-48 53.5t-69 19.5t-69 -19.5t-48 -53.5t-28 -79.5t-9 -96.5z" />
    <glyph glyph-name="one" unicode="1" horiz-adv-x="513" 
d="M228 601h57v-541h83v-60h-232v60h83v468l-83 -40v67z" />
    <glyph glyph-name="two" unicode="2" horiz-adv-x="513" 
d="M44 102q0 48 17 90.5t46 76.5t69 57t87 31q32 6 60.5 13.5t50 18.5t34 26.5t12.5 38.5q0 20 -12.5 37.5t-33.5 30t-49 20t-60 7.5q-34 0 -62 -8t-48.5 -21.5t-32 -31.5t-11.5 -39v-5.5t2 -8.5h-69v19q0 32 17.5 60.5t47.5 49.5t70 33t86 12t86 -12t70 -33t47.5 -49.5
t17.5 -60.5q0 -28 -13 -53t-37 -45.5t-56.5 -34t-71.5 -19.5l-30 -4q-35 -5 -65.5 -22t-53 -43.5t-35.5 -60t-13 -70.5v-43h375v-59h-442v102z" />
    <glyph glyph-name="three" unicode="3" horiz-adv-x="513" 
d="M70 601h369v-53l-116 -165q34 -9 63 -27.5t50 -43.5t33 -55.5t12 -64.5q0 -41 -19 -77.5t-51 -64t-74 -43.5t-88 -16q-43 0 -81.5 15t-68 41t-48 61t-22.5 76h67q3 -28 16 -52.5t33.5 -42.5t47 -28t56.5 -10q32 0 62 11t53 30.5t36.5 45t13.5 54.5t-13 55t-36 45
t-53.5 30t-64.5 11v53l108 155h-285v60z" />
    <glyph glyph-name="four" unicode="4" horiz-adv-x="513" 
d="M113 184h227v125h65v-125h83v-57h-83v-127h-65v127h-301v50l223 424h74z" />
    <glyph glyph-name="five" unicode="5" horiz-adv-x="513" 
d="M137 393h116q46 0 85.5 -16.5t69 -45t46.5 -66.5t17 -81q0 -42 -17.5 -77t-47.5 -61t-70 -40.5t-86 -14.5q-45 0 -85 16.5t-70 45t-47.5 67t-17.5 82.5h66q0 -31 12 -58.5t33 -48t49 -32.5t60 -12t60 10t49 27.5t33 42t12 53.5t-11.5 56t-32.5 47.5t-49 33t-61 12.5h-179
v268h367v-60h-301v-148z" />
    <glyph glyph-name="six" unicode="6" horiz-adv-x="513" 
d="M110 386q7 -13 14.5 -26t16.5 -31q16 29 52.5 45.5t74.5 16.5q45 0 85 -14.5t70 -40t47.5 -60.5t17.5 -77q0 -41 -17.5 -78.5t-47.5 -66t-70 -45.5t-85 -17q-51 0 -93 19.5t-72 56t-46.5 89t-16.5 118.5q0 20 0.5 42t2.5 41q1 22 3 43q2 40 19.5 77.5t47.5 66.5
t69.5 46.5t85.5 17.5q48 0 92 -20t76 -52l-41 -45q-26 26 -56 43t-71 17q-32 0 -60 -11.5t-49 -33t-34 -52.5t-15 -69zM118 213q0 -32 11.5 -61.5t31.5 -52.5t47.5 -37t59.5 -14t60 12.5t48.5 33t32.5 47t12 55.5t-12 54t-32.5 43t-48.5 28.5t-60 10.5q-28 0 -55 -8t-48 -23
t-34 -37t-13 -51z" />
    <glyph glyph-name="seven" unicode="7" horiz-adv-x="513" 
d="M32 541v60h444v-53l-288 -548h-75l282 541h-363z" />
    <glyph glyph-name="eight" unicode="8" horiz-adv-x="503" 
d="M63 450q0 34 15.5 63.5t41.5 50.5t60 33t71 12t71 -12t60 -33t41.5 -50.5t15.5 -63.5q0 -39 -23 -74.5t-54 -53.5q42 -20 70.5 -59.5t28.5 -91.5q0 -39 -17.5 -71.5t-46.5 -56.5t-67 -37.5t-79 -13.5t-79 13.5t-67 37.5t-46.5 56.5t-17.5 71.5q0 52 27.5 91t71.5 60
q-33 20 -55 53t-22 75zM108 171q0 -25 11.5 -47t31.5 -38.5t45.5 -26t54.5 -9.5t55 9.5t46 26t31.5 38.5t11.5 47q0 24 -11 46t-30.5 38.5t-45 26t-53.5 9.5h-4q-29 0 -55 -9.5t-45.5 -25.5t-31 -38t-11.5 -47zM129 450q0 -21 10.5 -39.5t27.5 -32t39 -21t45 -7.5
q24 0 46 7.5t39 21t27.5 32t10.5 39.5t-10.5 39.5t-27.5 32t-39 21.5t-46 8q-23 0 -45 -8t-39 -21.5t-27.5 -32t-10.5 -39.5z" />
    <glyph glyph-name="nine" unicode="9" horiz-adv-x="513" 
d="M37 424q0 38 17.5 71.5t47 58.5t69.5 40t85 15t85 -14t70 -39t48 -58t18 -71q0 -87 -32 -164.5t-87 -135.5t-128 -92t-154 -35v60q49 0 96.5 16t88 44.5t71.5 69t48 88.5q-24 -17 -56 -26.5t-65 -9.5q-45 0 -85 14t-70.5 38.5t-48.5 58t-18 71.5zM107 425
q0 -26 12.5 -48.5t33 -39.5t47.5 -26.5t58 -9.5q27 0 53.5 9t48 25t35 39t13.5 51q0 26 -12 48.5t-32.5 39.5t-48 26.5t-57.5 9.5q-31 0 -58.5 -10t-48 -26.5t-32.5 -39.5t-12 -48z" />
    <glyph glyph-name="colon" unicode=":" horiz-adv-x="159" 
d="M25 43q0 20 15.5 35t38.5 15t38.5 -15t15.5 -35q0 -22 -15.5 -37t-38.5 -15t-38.5 15t-15.5 37zM25 384q0 21 15.5 36t38.5 15t38.5 -15t15.5 -36q0 -22 -15.5 -36.5t-38.5 -14.5t-38.5 14.5t-15.5 36.5z" />
    <glyph glyph-name="semicolon" unicode=";" horiz-adv-x="159" 
d="M25 383q0 22 15.5 37t38.5 15t38.5 -15t15.5 -37q0 -21 -15.5 -35.5t-38.5 -14.5t-38.5 14.5t-15.5 35.5zM25 42q0 21 15.5 36t38.5 15t38 -15.5t15 -36.5q0 -6 -1.5 -10t-1.5 -10q-10 -24 -22 -51t-22 -50h-57l28 79q-15 4 -23 16.5t-8 26.5z" />
    <glyph glyph-name="less" unicode="&#x3c;" horiz-adv-x="548" 
d="M87 229l374 172v-69l-298 -131l298 -131v-69l-374 172v56z" />
    <glyph glyph-name="equal" unicode="=" horiz-adv-x="548" 
d="M74 102v61h400v-61h-400zM74 255v60h400v-60h-400z" />
    <glyph glyph-name="greater" unicode="&#x3e;" horiz-adv-x="548" 
d="M461 173l-374 -172v69l298 131l-298 131v69l374 -172v-56z" />
    <glyph glyph-name="question" unicode="?" horiz-adv-x="391" 
d="M161 282q0 13 8 21.5t22 8.5q23 0 44 9.5t36.5 25.5t25 38t9.5 47t-9 47t-24.5 38t-36 25t-43.5 9q-44 0 -75 -29t-41 -74l-60 14q14 65 61 106t116 41q37 0 69.5 -13.5t57 -37t38.5 -56t14 -70.5q0 -33 -11.5 -62.5t-31 -53t-46 -39.5t-57.5 -22v-119h-66v146zM152 30
q0 15 12.5 26.5t29.5 11.5t29 -11.5t12 -26.5q0 -16 -12 -27.5t-29 -11.5t-29.5 11.5t-12.5 27.5z" />
    <glyph glyph-name="at" unicode="@" horiz-adv-x="433" 
d="M216 44q20 2 37.5 5.5t33.5 12.5q8 -26 16 -47q-20 -11 -41.5 -17.5t-45.5 -6.5q-40 0 -75.5 17.5t-62 48.5t-42 72t-15.5 88q0 52 17 93.5t45.5 71t67 45.5t82.5 16q40 0 73.5 -20.5t57.5 -52.5t37 -72.5t13 -80.5q0 -64 -22.5 -102t-57.5 -38q-17 0 -37 9t-41 29
q-25 -23 -55 -23q-21 0 -39 10t-31.5 27.5t-21 41t-7.5 50.5t7.5 50t21 40.5t31.5 27.5t39 10h99v-211q8 -10 15.5 -13.5t13.5 -3.5q10 0 17 9t12 23t7.5 31t2.5 33q0 33 -10 65.5t-29 59t-46 42.5t-61 16q-33 0 -61.5 -14t-50 -38t-34 -57t-12.5 -71q0 -41 11.5 -72.5
t32 -53.5t48.5 -34.5t60 -15.5zM141 221q0 -36 16.5 -60.5t40.5 -24.5t41 24.5t17 60.5v85h-58q-24 0 -40.5 -25t-16.5 -60z" />
    <glyph glyph-name="A" unicode="A" horiz-adv-x="559" 
d="M82 0h-72l237 608h65l237 -608h-72l-96 245h-203zM280 511l-81 -207h162z" />
    <glyph glyph-name="B" unicode="B" horiz-adv-x="508" 
d="M70 608h202q33 0 62.5 -12t51.5 -33t34.5 -49.5t12.5 -61.5q0 -38 -18 -70.5t-50 -51.5q48 -20 78.5 -62.5t30.5 -93.5q0 -38 -16 -70t-43.5 -55t-64 -36t-78.5 -13h-202v608zM272 61q28 0 52.5 8t43 23t29 36t10.5 46q0 24 -10 46t-27.5 38.5t-41 26.5t-50.5 10h-141
v-234h135zM272 355q19 0 36 7.5t29.5 21t20 30.5t7.5 37q0 19 -7.5 36.5t-20 30.5t-29.5 21t-36 8h-135v-192h135z" />
    <glyph glyph-name="C" unicode="C" horiz-adv-x="551" 
d="M120 300q0 -51 17 -96.5t46.5 -79t69.5 -53t85 -19.5q40 0 79 17t74 49l36 -50q-40 -35 -88 -56t-101 -21q-59 0 -111 24.5t-90.5 66.5t-61 98t-22.5 120t22.5 121.5t61 101t90.5 69t111 25.5q60 0 111 -26t92 -73l-38 -50q-32 41 -74 64.5t-91 23.5q-45 0 -85 -21
t-69.5 -56t-46.5 -81.5t-17 -97.5z" />
    <glyph glyph-name="D" unicode="D" horiz-adv-x="612" 
d="M65 608h223q55 0 103.5 -24t84.5 -65t57 -96.5t21 -118.5t-21 -118.5t-57 -96.5t-84.5 -65t-103.5 -24h-223v608zM288 61q41 0 77 19t63 52t42.5 77t15.5 95q0 49 -15 93.5t-41.5 77.5t-62 52.5t-75.5 19.5h-160v-486h156z" />
    <glyph glyph-name="E" unicode="E" horiz-adv-x="429" 
d="M65 608h321v-61h-253v-192h210v-60h-210v-234h274v-61h-342v608z" />
    <glyph glyph-name="F" unicode="F" horiz-adv-x="412" 
d="M132 0h-67v514q0 19 7.5 36t21 30t31 20.5t37.5 7.5h223v-61h-222q-13 0 -22 -10t-9 -26v-156h169v-60h-169v-295z" />
    <glyph glyph-name="G" unicode="G" horiz-adv-x="616" 
d="M330 253v61h216v-314h-67v38q-26 -18 -65 -32t-76 -14q-57 0 -108 24t-89.5 66t-61 98t-22.5 120t22.5 121.5t61.5 101t91 69t111 25.5q60 0 113 -27t95 -74l-39 -49q-35 43 -78.5 66t-90.5 23q-45 0 -85 -21t-69.5 -56t-46.5 -81.5t-17 -97.5t17 -96.5t46.5 -79
t69.5 -53t85 -19.5q38 0 72.5 14.5t63.5 40.5v146h-149z" />
    <glyph glyph-name="H" unicode="H" horiz-adv-x="535" 
d="M401 176q0 25 -10 47t-26.5 38t-38 25t-44.5 9h-149v-295h-68v608h68v-253h149q32 0 65.5 -11t53.5 -40v304h68v-608h-68v176v0z" />
    <glyph glyph-name="I" unicode="I" horiz-adv-x="289" 
d="M110 547h-84v61h236v-61h-84v-486h84v-61h-236v61h84v486z" />
    <glyph glyph-name="J" unicode="J" horiz-adv-x="401" 
d="M78 547v61h257v-464q0 -35 -14 -63.5t-36.5 -48.5t-51 -30.5t-58.5 -10.5q-33 0 -62 13t-51 35t-34.5 52t-12.5 65h65q0 -21 7.5 -40t20.5 -33t30 -22t37 -8q19 0 36 7.5t29.5 20.5t20 30t7.5 37v399h-190z" />
    <glyph glyph-name="K" unicode="K" horiz-adv-x="505" 
d="M180 330l-47 -49v-281h-68v608h68v-235l224 235h84l-216 -229l272 -379h-76z" />
    <glyph glyph-name="L" unicode="L" horiz-adv-x="454" 
d="M65 608h68v-547h295v-61h-363v608z" />
    <glyph glyph-name="M" unicode="M" horiz-adv-x="706" 
d="M348 342q4 5 21.5 25.5t40.5 48t50 59.5t50 59.5t40 48t22 25.5h62v-608h-68v504q-4 -5 -21 -25t-40 -47.5t-49.5 -58.5t-49 -58t-39 -47t-19.5 -24l-219 260v-504h-68v608h62z" />
    <glyph glyph-name="N" unicode="N" horiz-adv-x="577" 
d="M133 481v-481h-68v608h63l316 -481v481h68v-608h-63z" />
    <glyph glyph-name="O" unicode="O" horiz-adv-x="628" 
d="M49 300q0 66 21 124t57 100.5t84.5 67.5t103.5 25t103 -25t84 -67.5t57 -100.5t21 -124t-21 -123t-57 -98t-84 -64.5t-103 -23.5t-103.5 23.5t-84.5 64.5t-57 98t-21 123zM116 300q0 -53 15.5 -98t42.5 -78.5t63.5 -52.5t77.5 -19q40 0 76 19t63 52.5t42.5 78.5t15.5 98
q0 52 -15.5 99t-42.5 81.5t-63 55t-76 20.5q-41 0 -77.5 -20.5t-63.5 -55t-42.5 -81.5t-15.5 -99z" />
    <glyph glyph-name="P" unicode="P" horiz-adv-x="512" 
d="M138 0h-68v608h203q42 0 78.5 -14t64 -38.5t43.5 -57t16 -69.5t-16 -69t-43.5 -56t-64 -37.5t-78.5 -13.5h-135v-253zM138 314h135q28 0 52.5 9t43 24.5t29 36.5t10.5 45t-10.5 45.5t-29 37.5t-43 25.5t-52.5 9.5h-135v-233z" />
    <glyph glyph-name="Q" unicode="Q" horiz-adv-x="628" 
d="M49 300q0 63 20.5 120.5t56.5 101t84.5 69t103.5 25.5t103.5 -25.5t84.5 -69t57 -101t21 -120.5q0 -47 -11.5 -89.5t-32.5 -78.5t-50 -64.5t-63 -46.5q31 -26 72.5 -39t83.5 -13q0 -16 0.5 -31.5t0.5 -32.5q-63 0 -123 24t-100 68q-11 -3 -21.5 -4t-21.5 -1
q-55 0 -103.5 24t-84.5 66t-56.5 98t-20.5 120zM281 271h66v-73q0 -34 9 -68t28 -60q28 13 51.5 36t40.5 53t26.5 66t9.5 75q0 51 -15.5 97t-42.5 81.5t-63 56t-77 20.5t-77 -20.5t-63 -56t-42.5 -81.5t-15.5 -97q0 -54 16 -98t44 -76t65 -50.5t79 -21.5q-19 31 -29 68.5
t-10 82.5v66z" />
    <glyph glyph-name="R" unicode="R" horiz-adv-x="485" 
d="M482 0h-78l-194 295h-72v-295h-68v608h182q37 0 70 -12t57.5 -33t39 -49.5t14.5 -61.5q0 -29 -11.5 -55t-31.5 -46t-46.5 -34t-57.5 -19zM138 355h114q23 0 43.5 7.5t36 21t24.5 31t9 37.5q0 19 -9 36.5t-24.5 30.5t-36 20.5t-43.5 7.5h-114v-192z" />
    <glyph glyph-name="S" unicode="S" horiz-adv-x="566" 
d="M120 476q0 -38 29.5 -57t74.5 -30t96.5 -20.5t96.5 -28t74.5 -52.5t29.5 -94q0 -44 -19.5 -81t-52.5 -64t-78 -42t-96 -15q-48 0 -90.5 15t-75 40.5t-53 60.5t-24.5 76q16 5 32 9t32 9q1 -32 16 -59.5t39.5 -47.5t57.5 -31.5t69 -11.5t68 11t56 30.5t37.5 45.5t13.5 55
q0 28 -12.5 46.5t-34 31t-50 20t-59.5 13.5h1q-44 9 -87.5 18t-79 27t-57.5 47.5t-22 78.5q0 29 17.5 54.5t48 44.5t71 30t86.5 11q39 0 74.5 -8t64.5 -23t49.5 -35t30.5 -44l-58 -30q-6 18 -20.5 32.5t-36.5 25t-49 16t-57 5.5q-32 0 -59.5 -6.5t-48.5 -17.5t-33 -25
t-12 -30z" />
    <glyph glyph-name="T" unicode="T" horiz-adv-x="460" 
d="M10 547v61h440v-61h-186v-547h-68v547h-186z" />
    <glyph glyph-name="U" unicode="U" horiz-adv-x="587" 
d="M294 50q31 0 59 12.5t49.5 33.5t34 49t12.5 60v403h68v-405q0 -45 -16.5 -84t-46 -67.5t-70.5 -44.5t-90 -16q-47 0 -87.5 17.5t-71 47.5t-48 70t-17.5 85v397h68v-397q0 -33 12.5 -62t33.5 -51t49.5 -35t60.5 -13z" />
    <glyph glyph-name="V" unicode="V" horiz-adv-x="521" 
d="M13 608h71l177 -499q3 10 16.5 48t32 90.5t39.5 112t39.5 111.5t32 90t16.5 47h71l-216 -608h-63z" />
    <glyph glyph-name="W" unicode="W" horiz-adv-x="919" 
d="M654 109l176 499h71l-214 -608h-64l-163 455l-164 -455h-63l-215 608h72l175 -499l163 457h63z" />
    <glyph glyph-name="X" unicode="X" horiz-adv-x="566" 
d="M109 0h-78l212 325q-4 6 -18.5 28t-34.5 51.5t-42.5 63t-42.5 62.5t-34.5 50.5t-18.5 27.5h79l152 -226q3 5 14.5 22.5t27.5 41t34 50.5t34 50.5t27.5 40.5t14.5 21h79l-192 -283q5 -8 21.5 -33t38.5 -58.5t47 -71.5t47 -72t38 -58.5t20 -31.5h-78l-173 268z" />
    <glyph glyph-name="Y" unicode="Y" horiz-adv-x="480" 
d="M468 608l-194 -291v-317h-68v317l-195 291h79l150 -225l149 225h79z" />
    <glyph glyph-name="Z" unicode="Z" horiz-adv-x="557" 
d="M143 61h404v-61h-489v54l370 493h-370v61h456v-54z" />
    <glyph glyph-name="bracketleft" unicode="[" horiz-adv-x="228" 
d="M56 -121v729h143v-53h-73v-623h73v-53h-143z" />
    <glyph glyph-name="backslash" unicode="\" horiz-adv-x="235" 
d="M167 0l-170 602h71l170 -602h-71z" />
    <glyph glyph-name="bracketright" unicode="]" horiz-adv-x="228" 
d="M30 -121v53h72v623h-72v53h141v-729h-141z" />
    <glyph glyph-name="asciicircum" unicode="^" horiz-adv-x="548" 
d="M400 216l-128 245l-127 -245h-75l179 341h46l184 -341h-79z" />
    <glyph glyph-name="underscore" unicode="_" horiz-adv-x="435" 
d="M0 -124v58h435v-58h-435z" />
    <glyph glyph-name="grave" unicode="`" 
d="M123 495l-103 120h93l67 -120h-57z" />
    <glyph glyph-name="a" unicode="a" horiz-adv-x="476" 
d="M360 435h49v-435h-65v59q-19 -29 -52.5 -48t-66.5 -19q-37 0 -69 17t-56 47t-37.5 70.5t-13.5 86.5t14.5 86.5t39 70.5t57.5 47.5t70 17.5h130zM230 375q-23 0 -44 -13t-37 -35t-25 -51.5t-9 -62.5q0 -34 9 -63.5t24 -51.5t35.5 -35t44.5 -13q23 0 44 13t37 35t25.5 51.5
t9.5 63.5v162h-114z" />
    <glyph glyph-name="b" unicode="b" horiz-adv-x="479" 
d="M67 695h66v-321q17 26 48.5 47.5t69.5 21.5q37 0 69.5 -17.5t57 -48.5t38.5 -73t14 -91t-14 -89.5t-38.5 -70t-57 -46t-69.5 -16.5q-33 0 -65.5 18.5t-52.5 47.5v-57h-66v695zM133 214q0 -35 9 -65t25 -52t36.5 -34t44.5 -12q23 0 43.5 12.5t36.5 34t25 51.5t9 65
t-9 65.5t-25 53.5t-36.5 36.5t-43.5 13.5q-24 0 -44.5 -13.5t-36.5 -36.5t-25 -53.5t-9 -65.5z" />
    <glyph glyph-name="c" unicode="c" horiz-adv-x="419" 
d="M251 51q28 0 54.5 12.5t49.5 39.5l38 -47q-29 -30 -65.5 -47.5t-76.5 -17.5q-41 0 -78 17t-64.5 47t-43.5 70.5t-16 87.5t16 89t43.5 73.5t64.5 49.5t78 18q39 0 75.5 -17t65.5 -49l-37 -48q-24 29 -51 41.5t-53 12.5q-28 0 -52.5 -13.5t-42.5 -37t-28.5 -54.5t-10.5 -65
q0 -35 10.5 -64.5t28.5 -51t42.5 -34t52.5 -12.5z" />
    <glyph glyph-name="d" unicode="d" horiz-adv-x="480" 
d="M346 695h66v-635h64v-60h-98q-12 0 -21 3t-9 19v39q-21 -31 -53 -50.5t-67 -19.5q-37 0 -69.5 17.5t-57 47.5t-38.5 70.5t-14 86.5t14.5 86.5t39 70.5t57.5 47.5t70 17.5h116v260zM233 375q-24 0 -45 -13t-36.5 -35t-25 -51.5t-9.5 -62.5q0 -34 9 -63t24.5 -50.5
t36 -33.5t43.5 -12q24 0 45 12t36.5 33.5t25 50.5t9.5 63v162h-113z" />
    <glyph glyph-name="e" unicode="e" horiz-adv-x="455" 
d="M251 -8q-42 0 -79 17.5t-64.5 48.5t-43 73.5t-15.5 93.5q0 45 14 85t38.5 69t57.5 46t71 17q33 0 63 -13t54 -36t40.5 -54t22.5 -68l2 -10t1 -10q0 -20 -10.5 -27.5t-35.5 -7.5h-251q0 -36 11 -67t30 -53t43.5 -34.5t51.5 -12.5q33 0 61.5 14t48.5 40l33 -47
q-29 -30 -66.5 -47t-77.5 -17zM231 386q-38 0 -70 -31.5t-41 -83.5h222q-9 52 -40 83.5t-71 31.5z" />
    <glyph glyph-name="f" unicode="f" horiz-adv-x="249" 
d="M3 435h80v165q0 27 10 45.5t26.5 29.5t37.5 15.5t43 4.5q34 0 76 -11l-14 -54q-14 3 -27 5t-29 2q-19 0 -36.5 -8.5t-20.5 -32.5v-161h98v-60h-98v-375h-66v375h-80v60z" />
    <glyph glyph-name="g" unicode="g" horiz-adv-x="485" 
d="M256 -304q-24 0 -52.5 3.5t-53.5 10.5l12 58q20 -5 46 -8.5t46 -3.5q30 0 49.5 7t30 18.5t14.5 26t4 29.5v220q-20 -29 -52 -46.5t-64 -17.5q-37 0 -70 16t-57.5 45.5t-39 70t-14.5 88.5q0 49 15 90t40.5 70t58.5 45.5t70 16.5h149q16 0 23 -4.5t7 -22.5v-576
q0 -30 -7.5 -55t-26.5 -43t-50 -28t-78 -10zM239 375q-24 0 -45 -13t-36.5 -35t-25 -51.5t-9.5 -62.5q0 -34 9 -63t24.5 -50.5t36 -33.5t43.5 -12q24 0 45 12.5t36.5 34.5t25 51.5t9.5 63.5v159h-113z" />
    <glyph glyph-name="h" unicode="h" horiz-adv-x="474" 
d="M247 381q-23 0 -43.5 -12.5t-36 -34t-25 -50t-9.5 -59.5v-225h-66v695h66v-318q21 29 51 47.5t65 18.5q37 0 69 -17.5t56 -48.5t37.5 -72t13.5 -88v-217h-66v217q0 33 -9 62.5t-24 52t-35.5 36t-43.5 13.5z" />
    <glyph glyph-name="i" unicode="i" 
d="M133 0h-66v435h66v-435zM51 569q0 20 14 34.5t34 14.5t34.5 -14.5t14.5 -34.5t-14.5 -34t-34.5 -14t-34 14t-14 34z" />
    <glyph glyph-name="j" unicode="j" horiz-adv-x="207" 
d="M-17 -303q-23 0 -39 3l10 58q8 -1 15.5 -1.5t10.5 -0.5q31 0 49.5 7t29 17.5t14 24t3.5 26.5v548l-77 8l9 48h104q16 0 23 -4.5t7 -22.5v-577q0 -30 -7.5 -54.5t-25.5 -42.5t-48.5 -27.5t-77.5 -9.5zM61 569q0 20 14 34.5t34 14.5t34 -14.5t14 -34.5t-14 -34t-34 -14
t-34 14t-14 34z" />
    <glyph glyph-name="k" unicode="k" horiz-adv-x="447" 
d="M140 202v-202h-66v695h66v-409l140 149h87l-138 -145l209 -290h-77l-179 247z" />
    <glyph glyph-name="l" unicode="l" 
d="M133 0h-66v695h66v-695z" />
    <glyph glyph-name="m" unicode="m" horiz-adv-x="712" 
d="M579 308q0 31 -27.5 53t-65.5 22q-19 0 -36 -6t-29.5 -16t-20 -24t-7.5 -29v-308h-66v312q0 15 -7.5 28t-20.5 22.5t-29.5 15t-34.5 5.5q-19 0 -36.5 -5.5t-30.5 -15.5t-20.5 -22.5t-7.5 -27.5v-312h-66v435h65v-33q18 17 45 28.5t57 11.5q42 0 72 -14.5t49 -39.5
q20 25 53.5 40t72.5 15q33 0 61.5 -10.5t50 -29t33.5 -43t12 -52.5v-308h-66v308v0z" />
    <glyph glyph-name="n" unicode="n" horiz-adv-x="494" 
d="M352 217q0 33 -9 62.5t-24.5 52t-36.5 36t-44 13.5q-24 0 -44.5 -13.5t-35 -36t-23 -53t-8.5 -64.5v-214h-66v435h65v-59q18 29 48.5 47.5t67.5 18.5t69 -17.5t56 -48t37.5 -71.5t13.5 -88v-89.5v-46.5t0.5 -18t0.5 -4h58v-59h-125v217z" />
    <glyph glyph-name="o" unicode="o" horiz-adv-x="492" 
d="M43 217q0 48 16 89.5t44 71.5t65 47.5t78 17.5t78 -17.5t64.5 -48t43.5 -71.5t16 -89t-16 -89t-43.5 -71.5t-64.5 -48t-78 -17.5t-78 17.5t-65 47.5t-44 71.5t-16 89.5zM112 217q0 -36 10.5 -66t28.5 -52.5t42.5 -35t52.5 -12.5t52 12.5t42 35t28.5 52.5t10.5 66
t-10.5 66t-28.5 52.5t-42 35t-52 12.5t-52.5 -12.5t-42.5 -35t-28.5 -52.5t-10.5 -66z" />
    <glyph glyph-name="p" unicode="p" horiz-adv-x="521" 
d="M133 370q23 31 58.5 51.5t79.5 20.5q41 0 77.5 -17t63.5 -47.5t43 -71.5t16 -89t-16 -89t-43 -71t-63.5 -47t-77.5 -17q-39 0 -76.5 18t-61.5 50v-365h-66v739h66v-65zM133 216q0 -34 10.5 -64.5t29 -53t43 -35.5t53.5 -13q28 0 52 13t42 36t28.5 53t10.5 65
q0 34 -10.5 64.5t-28.5 53t-42 35.5t-52 13q-27 0 -51.5 -12.5t-43.5 -35t-30 -53t-11 -66.5z" />
    <glyph glyph-name="q" unicode="q" horiz-adv-x="475" 
d="M346 58q-22 -30 -54 -47.5t-64 -17.5q-37 0 -69.5 17t-57 46.5t-38.5 69.5t-14 87q0 46 14.5 86.5t39 70.5t57.5 47.5t70 17.5h151q11 0 21 -9t10 -18v-652h64v-60h-98q-17 0 -24.5 3.5t-7.5 24.5v334zM233 375q-24 0 -45 -13t-36.5 -35t-25 -51.5t-9.5 -62.5
q0 -34 9 -63.5t24.5 -51t36 -34t43.5 -12.5q24 0 45 13t36.5 35.5t25 52t9.5 63.5v159h-113z" />
    <glyph glyph-name="r" unicode="r" horiz-adv-x="395" 
d="M129 0h-66v435h218q44 0 70.5 -28t26.5 -70q0 -20 -12 -48q-14 3 -27 5.5t-27 4.5q5 15 5 29q0 7 -3 15t-8.5 15t-14 12t-19.5 5h-143v-375z" />
    <glyph glyph-name="s" unicode="s" horiz-adv-x="402" 
d="M104 332q0 -21 20 -31.5t50.5 -18t65.5 -15t65.5 -22.5t50.5 -40.5t20 -68.5q0 -30 -14 -56.5t-38 -46t-56.5 -30.5t-70.5 -11q-35 0 -65.5 10t-54 27t-39 41t-19.5 53l60 19q2 -20 12 -37.5t26 -30t36.5 -19.5t43.5 -7q20 0 40.5 7t36.5 19t26 27t10 32q0 30 -20 46.5
t-50 26.5t-65.5 17t-65.5 19t-50 32.5t-20 57.5q0 23 12 43t33.5 35t50.5 23.5t62 8.5q52 0 93.5 -22.5t58.5 -57.5l-52 -27q-11 24 -39.5 37t-61.5 13q-18 0 -34.5 -4t-29 -11.5t-20.5 -17t-8 -20.5z" />
    <glyph glyph-name="t" unicode="t" horiz-adv-x="260" 
d="M53 435q20 0 20 19v146h67v-165h101v-60h-101v-285q0 -24 17.5 -32t40.5 -8q12 0 29 3t25 3v-56q-17 -3 -33 -5.5t-30 -2.5q-28 0 -49.5 5.5t-36.5 19t-22.5 36.5t-7.5 58v264h-64v60h44z" />
    <glyph glyph-name="u" unicode="u" horiz-adv-x="487" 
d="M222 50q22 0 44.5 10.5t39.5 29.5t28 45t11 58v242h67v-375h60v-60h-97q-13 0 -20.5 3.5t-7.5 18.5v43q-8 -16 -22.5 -29.5t-31.5 -23t-35.5 -15t-35.5 -5.5q-41 0 -72 18t-52.5 49t-32.5 72.5t-11 88.5v215h66v-218q0 -33 6.5 -63t19.5 -53t32 -37t44 -14z" />
    <glyph glyph-name="v" unicode="v" horiz-adv-x="419" 
d="M178 0l-157 435h70l118 -332l119 332h70l-157 -435h-63z" />
    <glyph glyph-name="w" unicode="w" horiz-adv-x="708" 
d="M185 0l-157 435h70l121 -327l103 285h64l106 -285l118 327h70l-157 -435h-61l-108 295l-106 -295h-63z" />
    <glyph glyph-name="x" unicode="x" horiz-adv-x="476" 
d="M237 195q-3 -4 -13.5 -19t-25 -35.5t-31 -43.5t-30.5 -43.5t-25 -35.5t-13 -18h-78l177 246l-135 189h79l95 -136l97 136h78l-136 -189q4 -5 18 -24t32.5 -44.5t39.5 -54.5t39.5 -55t31.5 -44.5t17 -23.5h-78z" />
    <glyph glyph-name="y" unicode="y" horiz-adv-x="497" 
d="M263 -304q-47 0 -98 14l11 58q21 -7 44 -9.5t43 -2.5q30 0 49 6.5t29.5 17t14 24t3.5 26.5v229q-21 -29 -52.5 -47t-64.5 -18q-37 0 -69 17.5t-55.5 47.5t-37 70.5t-13.5 87.5v218h66v-218q0 -33 9 -62.5t24 -52t35 -35.5t43 -13q24 0 44.5 12.5t36.5 33.5t25 49t9 60
v226h66v-605q0 -30 -7.5 -54.5t-26.5 -42t-50 -27.5t-78 -10z" />
    <glyph glyph-name="z" unicode="z" horiz-adv-x="408" 
d="M128 60h272v-60h-356v52l242 323h-242v60h324v-54z" />
    <glyph glyph-name="braceleft" unicode="{" horiz-adv-x="235" 
d="M213 -124q-26 0 -50 5t-42.5 17t-29.5 31t-11 48q0 36 6.5 71.5t6.5 73.5q0 35 -15 67t-55 46v31q38 12 53.5 41.5t15.5 64.5q0 34 -7 66.5t-7 66.5q0 29 10.5 49t28.5 32t42.5 18t53.5 6v-53q-17 -1 -28.5 -3t-19 -8t-10.5 -16.5t-3 -26.5q0 -31 6.5 -61.5t6.5 -62.5
q0 -40 -17.5 -74.5t-52.5 -54.5q38 -22 54 -61t16 -82q0 -32 -6 -62t-6 -60q0 -16 2.5 -27t9 -17.5t18 -9.5t30.5 -3v-52v0z" />
    <glyph glyph-name="bar" unicode="|" horiz-adv-x="157" 
d="M46 -209v852h65v-852h-65z" />
    <glyph glyph-name="braceright" unicode="}" horiz-adv-x="235" 
d="M211 231q-34 -11 -51 -42.5t-17 -66.5q0 -36 6 -71.5t6 -72.5q0 -11 -6 -18q-5 -47 -39.5 -65.5t-86.5 -18.5v52q33 0 46 10t13 39q0 31 -6 64t-6 66q0 21 3.5 42t12 40t22 35t33.5 26q-35 20 -53 55t-18 74q0 33 6.5 65.5t6.5 64.5q0 29 -14 37.5t-46 10.5v53
q60 -1 96.5 -24t36.5 -80q0 -34 -6.5 -66.5t-6.5 -67.5t15 -64.5t53 -41.5v-35v0z" />
    <glyph glyph-name="asciitilde" unicode="~" horiz-adv-x="548" 
d="M479 369q-1 -28 -6 -54t-17 -45.5t-32 -31.5t-50 -12q-23 0 -41 8t-39 22l-85 58q-9 6 -18.5 10t-20.5 4q-15 0 -24 -8t-14 -20.5t-7 -27.5t-3 -28h-52q1 25 6.5 51.5t17.5 48.5t31.5 36t50.5 14q17 0 31 -5t28 -14l99 -67q11 -8 23 -14t24 -6q14 0 22.5 8t13.5 20.5
t6.5 26.5t2.5 26h53v0z" />
    <glyph glyph-name="Adieresis" unicode="&#xc4;" horiz-adv-x="559" 
d="M82 0h-72l237 608h65l237 -608h-72l-96 245h-203zM280 511l-81 -207h162zM144 734q0 20 14.5 32.5t34.5 12.5t34.5 -12.5t14.5 -32.5q0 -19 -14.5 -32t-34.5 -13t-34.5 13t-14.5 32zM316 734q0 20 14.5 32.5t34.5 12.5t34.5 -12.5t14.5 -32.5q0 -19 -14.5 -32t-34.5 -13
t-34.5 13t-14.5 32z" />
    <glyph glyph-name="Aring" unicode="&#xc5;" horiz-adv-x="559" 
d="M82 0h-72l237 608h65l237 -608h-72l-96 245h-203zM280 511l-81 -207h162zM355 733q0 -32 -22 -54.5t-54 -22.5t-54.5 22.5t-22.5 54.5t23 54t55 22t53.5 -22t21.5 -54zM322 733q0 17 -12.5 30t-31.5 13q-17 0 -29 -13.5t-12 -30.5t12.5 -29.5t29.5 -12.5q18 0 30.5 13
t12.5 30z" />
    <glyph glyph-name="Ccedilla" unicode="&#xc7;" horiz-adv-x="551" 
d="M120 300q0 -51 17 -96.5t46.5 -79t69.5 -53t85 -19.5q40 0 79 17t74 49l36 -50q-40 -35 -88 -56t-101 -21q-59 0 -111 24.5t-90.5 66.5t-61 98t-22.5 120t22.5 121.5t61 101t90.5 69t111 25.5q60 0 111 -26t92 -73l-38 -50q-32 41 -74 64.5t-91 23.5q-45 0 -85 -21
t-69.5 -56t-46.5 -81.5t-17 -97.5zM369 -110q0 -23 -10 -39t-26 -26.5t-36 -15.5t-39 -5q-11 0 -20 0.5t-17.5 2t-17.5 4t-21 7.5l11 39q17 -8 31.5 -11t31.5 -3q9 0 20.5 2.5t21.5 8.5t16.5 14.5t6.5 20.5q0 20 -13.5 29.5t-27.5 9.5q-9 0 -16.5 -2t-15.5 -8l-24 26
q18 17 27 31.5t21 28.5h50q-8 -6 -18.5 -20.5t-24.5 -28.5q5 2 13 2h15q27 -2 44.5 -21.5t17.5 -45.5z" />
    <glyph glyph-name="Eacute" unicode="&#xc9;" horiz-adv-x="429" 
d="M65 608h321v-61h-253v-192h210v-60h-210v-234h274v-61h-342v608zM192 664h-56l66 120h91z" />
    <glyph glyph-name="Ntilde" unicode="&#xd1;" horiz-adv-x="577" 
d="M133 481v-481h-68v608h63l316 -481v481h68v-608h-64zM434 782q-3 -20 -9 -41.5t-17 -39t-27 -28.5t-39 -11q-20 0 -35 9t-28.5 20.5t-25.5 20.5t-25 9q-10 0 -17.5 -6.5t-12.5 -15.5t-8 -19t-4 -16h-43q3 18 9 38.5t16.5 38.5t26.5 29.5t39 11.5q21 0 36.5 -9t29 -19.5
t26 -19t26.5 -8.5q10 0 17 6.5t11.5 15.5t7 18.5t3.5 15.5h43z" />
    <glyph glyph-name="Odieresis" unicode="&#xd6;" horiz-adv-x="628" 
d="M49 300q0 66 21 124t57 100.5t84.5 67.5t103.5 25t103 -25t84 -67.5t57 -100.5t21 -124t-21 -123t-57 -98t-84 -64.5t-103 -23.5t-103.5 23.5t-84.5 64.5t-57 98t-21 123zM116 300q0 -53 15.5 -98t42.5 -78.5t63.5 -52.5t77.5 -19q40 0 76 19t63 52.5t42.5 78.5t15.5 98
q0 52 -15.5 99t-42.5 81.5t-63 55t-76 20.5q-41 0 -77.5 -20.5t-63.5 -55t-42.5 -81.5t-15.5 -99zM179 734q0 20 14.5 32.5t34.5 12.5t34 -12.5t14 -32.5q0 -19 -14 -32t-34 -13t-34.5 13t-14.5 32zM351 734q0 20 14.5 32.5t34.5 12.5t34 -12.5t14 -32.5q0 -19 -14 -32
t-34 -13t-34.5 13t-14.5 32z" />
    <glyph glyph-name="Udieresis" unicode="&#xdc;" horiz-adv-x="587" 
d="M294 50q31 0 59 12.5t49.5 33.5t34 49t12.5 60v403h68v-405q0 -45 -16.5 -84t-46 -67.5t-70.5 -44.5t-90 -16q-47 0 -87.5 17.5t-71 47.5t-48 70t-17.5 85v397h68v-397q0 -33 12.5 -62t33.5 -51t49.5 -35t60.5 -13zM159 734q0 20 14 32.5t34 12.5t34.5 -12.5t14.5 -32.5
q0 -19 -14.5 -32t-34.5 -13t-34 13t-14 32zM331 734q0 20 14 32.5t34 12.5t34.5 -12.5t14.5 -32.5q0 -19 -14.5 -32t-34.5 -13t-34 13t-14 32z" />
    <glyph glyph-name="aacute" unicode="&#xe1;" horiz-adv-x="476" 
d="M360 435h49v-435h-65v59q-19 -29 -52.5 -48t-66.5 -19q-37 0 -69 17t-56 47t-37.5 70.5t-13.5 86.5t14.5 86.5t39 70.5t57.5 47.5t70 17.5h130zM230 375q-23 0 -44 -13t-37 -35t-25 -51.5t-9 -62.5q0 -34 9 -63.5t24 -51.5t35.5 -35t44.5 -13q23 0 44 13t37 35t25.5 51.5
t9.5 63.5v162h-114zM216 495h-57q17 30 33 60t33 60h91z" />
    <glyph glyph-name="agrave" unicode="&#xe0;" horiz-adv-x="476" 
d="M360 435h49v-435h-65v59q-19 -29 -52.5 -48t-66.5 -19q-37 0 -69 17t-56 47t-37.5 70.5t-13.5 86.5t14.5 86.5t39 70.5t57.5 47.5t70 17.5h130zM230 375q-23 0 -44 -13t-37 -35t-25 -51.5t-9 -62.5q0 -34 9 -63.5t24 -51.5t35.5 -35t44.5 -13q23 0 44 13t37 35t25.5 51.5
t9.5 63.5v162h-114zM261 495l-104 119h93l67 -119h-56z" />
    <glyph glyph-name="acircumflex" unicode="&#xe2;" horiz-adv-x="476" 
d="M360 435h49v-435h-65v59q-19 -29 -52.5 -48t-66.5 -19q-37 0 -69 17t-56 47t-37.5 70.5t-13.5 86.5t14.5 86.5t39 70.5t57.5 47.5t70 17.5h130zM230 375q-23 0 -44 -13t-37 -35t-25 -51.5t-9 -62.5q0 -34 9 -63.5t24 -51.5t35.5 -35t44.5 -13q23 0 44 13t37 35t25.5 51.5
t9.5 63.5v162h-114zM307 495q-18 18 -35 36t-35 36l-68 -72h-63q23 30 45.5 59.5t44.5 59.5h82l90 -119h-61z" />
    <glyph glyph-name="adieresis" unicode="&#xe4;" horiz-adv-x="476" 
d="M360 435h49v-435h-65v59q-19 -29 -52.5 -48t-66.5 -19q-37 0 -69 17t-56 47t-37.5 70.5t-13.5 86.5t14.5 86.5t39 70.5t57.5 47.5t70 17.5h130zM230 375q-23 0 -44 -13t-37 -35t-25 -51.5t-9 -62.5q0 -34 9 -63.5t24 -51.5t35.5 -35t44.5 -13q23 0 44 13t37 35t25.5 51.5
t9.5 63.5v162h-114zM103 566q0 19 14 32t34 13t35 -13t15 -32t-15 -32t-35 -13t-34 13t-14 32zM275 566q0 19 14 32t34 13t34.5 -13t14.5 -32t-14.5 -32t-34.5 -13t-34 13t-14 32z" />
    <glyph glyph-name="atilde" unicode="&#xe3;" horiz-adv-x="476" 
d="M360 435h49v-435h-65v59q-19 -29 -52.5 -48t-66.5 -19q-37 0 -69 17t-56 47t-37.5 70.5t-13.5 86.5t14.5 86.5t39 70.5t57.5 47.5t70 17.5h130zM230 375q-23 0 -44 -13t-37 -35t-25 -51.5t-9 -62.5q0 -34 9 -63.5t24 -51.5t35.5 -35t44.5 -13q23 0 44 13t37 35t25.5 51.5
t9.5 63.5v162h-114zM383 614q-3 -20 -9 -41t-17 -38.5t-27 -29t-39 -11.5q-20 0 -35 9t-28.5 20.5t-25.5 20.5t-25 9q-11 0 -18 -6.5t-12 -15.5t-7.5 -19t-3.5 -17h-45q4 18 10 39t16.5 38.5t26 29.5t38.5 12q21 0 36.5 -9t29.5 -19.5t26.5 -19.5t27.5 -9q9 0 15.5 6.5
t11 15.5t7 19t4.5 16h43z" />
    <glyph glyph-name="aring" unicode="&#xe5;" horiz-adv-x="476" 
d="M360 435h49v-435h-65v59q-19 -29 -52.5 -48t-66.5 -19q-37 0 -69 17t-56 47t-37.5 70.5t-13.5 86.5t14.5 86.5t39 70.5t57.5 47.5t70 17.5h130zM230 375q-23 0 -44 -13t-37 -35t-25 -51.5t-9 -62.5q0 -34 9 -63.5t24 -51.5t35.5 -35t44.5 -13q23 0 44 13t37 35t25.5 51.5
t9.5 63.5v162h-114zM315 565q0 -32 -23 -54.5t-55 -22.5q-31 0 -53.5 22t-22.5 54t22.5 54t54.5 22t54.5 -21.5t22.5 -53.5zM280 564q0 17 -12 30t-31 13q-17 0 -29 -13.5t-12 -30.5t12.5 -29.5t29.5 -12.5q18 0 30 13t12 30z" />
    <glyph glyph-name="ccedilla" unicode="&#xe7;" horiz-adv-x="419" 
d="M251 51q28 0 54.5 12.5t49.5 39.5l38 -47q-29 -30 -65.5 -47.5t-76.5 -17.5q-41 0 -78 17t-64.5 47t-43.5 70.5t-16 87.5t16 89t43.5 73.5t64.5 49.5t78 18q39 0 75.5 -17t65.5 -49l-37 -48q-24 29 -51 41.5t-53 12.5q-28 0 -52.5 -13.5t-42.5 -37t-28.5 -54.5t-10.5 -65
q0 -35 10.5 -64.5t28.5 -51t42.5 -34t52.5 -12.5zM302 -110q0 -23 -10 -39t-26 -26.5t-36 -15.5t-39 -5q-11 0 -20 0.5t-17.5 2t-17.5 4t-21 7.5l11 39q17 -8 31.5 -11t31.5 -3q9 0 20.5 2.5t21.5 8.5t16.5 14.5t6.5 20.5q0 20 -13.5 29.5t-27.5 9.5q-9 0 -16.5 -2t-15.5 -8
l-24 26q18 17 27 31.5t21 28.5h50q-8 -6 -18.5 -20.5t-24.5 -28.5q5 2 13 2h15q27 -2 44.5 -21.5t17.5 -45.5z" />
    <glyph glyph-name="eacute" unicode="&#xe9;" horiz-adv-x="455" 
d="M251 -8q-42 0 -79 17.5t-64.5 48.5t-43 73.5t-15.5 93.5q0 45 14 85t38.5 69t57.5 46t71 17q33 0 63 -13t54 -36t40.5 -54t22.5 -68l2 -10t1 -10q0 -20 -10.5 -27.5t-35.5 -7.5h-251q0 -36 11 -67t30 -53t43.5 -34.5t51.5 -12.5q33 0 61.5 14t48.5 40l33 -47
q-29 -30 -66.5 -47t-77.5 -17zM231 386q-38 0 -70 -31.5t-41 -83.5h222q-9 52 -40 83.5t-71 31.5zM205 495h-56q17 30 33 60t33 60h91z" />
    <glyph glyph-name="egrave" unicode="&#xe8;" horiz-adv-x="455" 
d="M251 -8q-42 0 -79 17.5t-64.5 48.5t-43 73.5t-15.5 93.5q0 45 14 85t38.5 69t57.5 46t71 17q33 0 63 -13t54 -36t40.5 -54t22.5 -68l2 -10t1 -10q0 -20 -10.5 -27.5t-35.5 -7.5h-251q0 -36 11 -67t30 -53t43.5 -34.5t51.5 -12.5q33 0 61.5 14t48.5 40l33 -47
q-29 -30 -66.5 -47t-77.5 -17zM231 386q-38 0 -70 -31.5t-41 -83.5h222q-9 52 -40 83.5t-71 31.5zM250 495l-103 119h93l67 -119h-57z" />
    <glyph glyph-name="ecircumflex" unicode="&#xea;" horiz-adv-x="455" 
d="M251 -8q-42 0 -79 17.5t-64.5 48.5t-43 73.5t-15.5 93.5q0 45 14 85t38.5 69t57.5 46t71 17q33 0 63 -13t54 -36t40.5 -54t22.5 -68l2 -10t1 -10q0 -20 -10.5 -27.5t-35.5 -7.5h-251q0 -36 11 -67t30 -53t43.5 -34.5t51.5 -12.5q33 0 61.5 14t48.5 40l33 -47
q-29 -30 -66.5 -47t-77.5 -17zM231 386q-38 0 -70 -31.5t-41 -83.5h222q-9 52 -40 83.5t-71 31.5zM296 495l-69 72l-69 -72h-62q23 30 45 59.5t45 59.5h82q22 -30 44.5 -59.5t45.5 -59.5h-62z" />
    <glyph glyph-name="edieresis" unicode="&#xeb;" horiz-adv-x="455" 
d="M251 -8q-42 0 -79 17.5t-64.5 48.5t-43 73.5t-15.5 93.5q0 45 14 85t38.5 69t57.5 46t71 17q33 0 63 -13t54 -36t40.5 -54t22.5 -68l2 -10t1 -10q0 -20 -10.5 -27.5t-35.5 -7.5h-251q0 -36 11 -67t30 -53t43.5 -34.5t51.5 -12.5q33 0 61.5 14t48.5 40l33 -47
q-29 -30 -66.5 -47t-77.5 -17zM231 386q-38 0 -70 -31.5t-41 -83.5h222q-9 52 -40 83.5t-71 31.5zM93 566q0 19 14 32t34 13t34 -13t14 -32t-14 -32t-34 -13t-34 13t-14 32zM265 566q0 19 14 32t34 13t34.5 -13t14.5 -32t-14.5 -32t-34.5 -13t-34 13t-14 32z" />
    <glyph glyph-name="iacute" unicode="&#xed;" 
d="M133 0h-66v435h66v-435zM77 495h-55l65 120h91z" />
    <glyph glyph-name="igrave" unicode="&#xec;" 
d="M133 0h-66v435h66v-435zM123 495l-103 120h93l67 -120h-57z" />
    <glyph glyph-name="icircumflex" unicode="&#xee;" 
d="M133 0h-66v435h66v-435zM169 495l-69 72l-68 -72h-62l90 120h81l90 -120h-62z" />
    <glyph glyph-name="idieresis" unicode="&#xef;" 
d="M133 0h-66v435h66v-435zM-35 566q0 19 14.5 32.5t34.5 13.5t34.5 -13.5t14.5 -32.5t-14.5 -32t-34.5 -13t-34.5 13t-14.5 32zM138 566q0 19 14 32.5t34 13.5t34.5 -13.5t14.5 -32.5t-14.5 -32t-34.5 -13t-34 13t-14 32z" />
    <glyph glyph-name="ntilde" unicode="&#xf1;" horiz-adv-x="494" 
d="M352 217q0 33 -9 62.5t-24.5 52t-36.5 36t-44 13.5q-24 0 -44.5 -13.5t-35 -36t-23 -53t-8.5 -64.5v-214h-66v435h65v-59q18 29 48.5 47.5t67.5 18.5t69 -17.5t56 -48t37.5 -71.5t13.5 -88v-89.5v-46.5t0.5 -18t0.5 -4h58v-59h-125v217zM392 614q-3 -20 -9 -41t-17 -38.5
t-27 -29t-39 -11.5q-20 0 -35 9t-28.5 20.5t-25.5 20.5t-25 9q-11 0 -18 -6.5t-12 -15.5t-8 -19t-4 -17h-44q3 18 9 39t16.5 38.5t26.5 29.5t39 12q21 0 36.5 -9t29 -19.5t26.5 -19.5t27 -9q9 0 16 6.5t11.5 15.5t7 19t3.5 16h44z" />
    <glyph glyph-name="oacute" unicode="&#xf3;" horiz-adv-x="492" 
d="M43 217q0 48 16 89.5t44 71.5t65 47.5t78 17.5t78 -17.5t64.5 -48t43.5 -71.5t16 -89t-16 -89t-43.5 -71.5t-64.5 -48t-78 -17.5t-78 17.5t-65 47.5t-44 71.5t-16 89.5zM112 217q0 -36 10.5 -66t28.5 -52.5t42.5 -35t52.5 -12.5t52 12.5t42 35t28.5 52.5t10.5 66
t-10.5 66t-28.5 52.5t-42 35t-52 12.5t-52.5 -12.5t-42.5 -35t-28.5 -52.5t-10.5 -66zM223 495h-56l66 120h91z" />
    <glyph glyph-name="ograve" unicode="&#xf2;" horiz-adv-x="492" 
d="M43 217q0 48 16 89.5t44 71.5t65 47.5t78 17.5t78 -17.5t64.5 -48t43.5 -71.5t16 -89t-16 -89t-43.5 -71.5t-64.5 -48t-78 -17.5t-78 17.5t-65 47.5t-44 71.5t-16 89.5zM112 217q0 -36 10.5 -66t28.5 -52.5t42.5 -35t52.5 -12.5t52 12.5t42 35t28.5 52.5t10.5 66
t-10.5 66t-28.5 52.5t-42 35t-52 12.5t-52.5 -12.5t-42.5 -35t-28.5 -52.5t-10.5 -66zM269 495l-103 120h93l67 -120h-57z" />
    <glyph glyph-name="ocircumflex" unicode="&#xf4;" horiz-adv-x="492" 
d="M43 217q0 48 16 89.5t44 71.5t65 47.5t78 17.5t78 -17.5t64.5 -48t43.5 -71.5t16 -89t-16 -89t-43.5 -71.5t-64.5 -48t-78 -17.5t-78 17.5t-65 47.5t-44 71.5t-16 89.5zM112 217q0 -36 10.5 -66t28.5 -52.5t42.5 -35t52.5 -12.5t52 12.5t42 35t28.5 52.5t10.5 66
t-10.5 66t-28.5 52.5t-42 35t-52 12.5t-52.5 -12.5t-42.5 -35t-28.5 -52.5t-10.5 -66zM315 495l-69 72l-69 -72h-62l90 120h82l90 -120h-62z" />
    <glyph glyph-name="odieresis" unicode="&#xf6;" horiz-adv-x="492" 
d="M43 217q0 48 16 89.5t44 71.5t65 47.5t78 17.5t78 -17.5t64.5 -48t43.5 -71.5t16 -89t-16 -89t-43.5 -71.5t-64.5 -48t-78 -17.5t-78 17.5t-65 47.5t-44 71.5t-16 89.5zM112 217q0 -36 10.5 -66t28.5 -52.5t42.5 -35t52.5 -12.5t52 12.5t42 35t28.5 52.5t10.5 66
t-10.5 66t-28.5 52.5t-42 35t-52 12.5t-52.5 -12.5t-42.5 -35t-28.5 -52.5t-10.5 -66zM111 566q0 19 14 32.5t34 13.5t35 -13.5t15 -32.5t-15 -32t-35 -13t-34 13t-14 32zM283 566q0 19 14 32.5t34 13.5t34.5 -13.5t14.5 -32.5t-14.5 -32t-34.5 -13t-34 13t-14 32z" />
    <glyph glyph-name="otilde" unicode="&#xf5;" horiz-adv-x="492" 
d="M43 217q0 48 16 89t44 71.5t65 47.5t78 17t77.5 -17.5t64.5 -48t44 -71.5t16 -88q0 -48 -16 -89t-44 -71t-64.5 -47.5t-77.5 -17.5t-78 17t-65 47t-44 71.5t-16 89.5zM112 217q0 -36 10.5 -66.5t28.5 -53t42.5 -35t52.5 -12.5t52 12.5t42 35t28.5 53t10.5 66.5t-10.5 66
t-28.5 52.5t-42 35t-52 12.5t-52.5 -12.5t-42.5 -35t-28.5 -52.5t-10.5 -66zM391 614q-3 -20 -9 -41t-16.5 -38.5t-27 -29t-39.5 -11.5q-20 0 -35 9t-28.5 20.5t-25.5 20.5t-25 9q-10 0 -17.5 -6.5t-12.5 -15.5t-8 -19t-4 -17h-43q3 18 9 39t16.5 38.5t26 29.5t38.5 12
q21 0 37 -9t29.5 -19.5t26 -19.5t26.5 -9q10 0 16.5 6.5t11 15.5t7 19t4.5 16h43z" />
    <glyph glyph-name="uacute" unicode="&#xfa;" horiz-adv-x="487" 
d="M222 50q22 0 44.5 10.5t39.5 29.5t28 45t11 58v242h67v-375h60v-60h-97q-13 0 -20.5 3.5t-7.5 18.5v43q-8 -16 -22.5 -29.5t-31.5 -23t-35.5 -15t-35.5 -5.5q-41 0 -72 18t-52.5 49t-32.5 72.5t-11 88.5v215h66v-218q0 -33 6.5 -63t19.5 -53t32 -37t44 -14zM221 495h-57
l66 120h92z" />
    <glyph glyph-name="ugrave" unicode="&#xf9;" horiz-adv-x="487" 
d="M222 50q22 0 44.5 10.5t39.5 29.5t28 45t11 58v242h67v-375h60v-60h-97q-13 0 -20.5 3.5t-7.5 18.5v43q-8 -16 -22.5 -29.5t-31.5 -23t-35.5 -15t-35.5 -5.5q-41 0 -72 18t-52.5 49t-32.5 72.5t-11 88.5v215h66v-218q0 -33 6.5 -63t19.5 -53t32 -37t44 -14zM267 495
l-104 120h93l67 -120h-56z" />
    <glyph glyph-name="ucircumflex" unicode="&#xfb;" horiz-adv-x="487" 
d="M222 50q22 0 44.5 10.5t39.5 29.5t28 45t11 58v242h67v-375h60v-60h-97q-13 0 -20.5 3.5t-7.5 18.5v43q-8 -16 -22.5 -29.5t-31.5 -23t-35.5 -15t-35.5 -5.5q-41 0 -72 18t-52.5 49t-32.5 72.5t-11 88.5v215h66v-218q0 -33 6.5 -63t19.5 -53t32 -37t44 -14zM313 495
l-70 72l-68 -72h-63l90 120h82l91 -120h-62z" />
    <glyph glyph-name="udieresis" unicode="&#xfc;" horiz-adv-x="487" 
d="M222 50q22 0 44.5 10.5t39.5 29.5t28 45t11 58v242h67v-375h60v-60h-97q-13 0 -20.5 3.5t-7.5 18.5v43q-8 -16 -22.5 -29.5t-31.5 -23t-35.5 -15t-35.5 -5.5q-41 0 -72 18t-52.5 49t-32.5 72.5t-11 88.5v215h66v-218q0 -33 6.5 -63t19.5 -53t32 -37t44 -14zM109 566
q0 19 13.5 32.5t33.5 13.5t35 -13.5t15 -32.5t-15 -32t-35 -13t-33.5 13t-13.5 32zM281 566q0 19 13.5 32.5t33.5 13.5t35 -13.5t15 -32.5t-15 -32t-35 -13t-33.5 13t-13.5 32z" />
    <glyph glyph-name="dagger" unicode="&#x2020;" horiz-adv-x="454" 
d="M406 308q-44 5 -81 7t-68 2q0 -45 10 -82q-3 -51 -5.5 -119.5t-4.5 -141t-3 -141.5t-2 -121h-51q-1 52 -2 121t-3 141.5t-4.5 141t-6.5 119.5q7 20 9 40t2 43q-36 -1 -74 -3t-75 -5q0 17 0.5 34.5t0.5 34.5q44 -3 81 -5.5t69 -2.5q-1 51 -3.5 101t-7.5 101h81
q-5 -51 -9 -101.5t-4 -101.5q32 1 73 2.5t78 6.5v-71v0z" />
    <glyph glyph-name="degree" unicode="&#xb0;" horiz-adv-x="329" 
d="M296 443q0 -26 -10.5 -49t-28 -40.5t-41 -28t-50.5 -10.5t-51.5 10.5t-42.5 28.5t-28.5 42t-10.5 51q0 26 10.5 49t28.5 40.5t42 27.5t51 10q28 0 52.5 -10.5t41.5 -28t27 -41.5t10 -51zM84 447q0 -35 23.5 -58.5t57.5 -23.5q33 0 56.5 23.5t23.5 55.5q0 34 -23 58
t-57 24q-33 0 -57 -23t-24 -56z" />
    <glyph glyph-name="cent" unicode="&#xa2;" horiz-adv-x="476" 
d="M249 -5q-36 5 -68 23.5t-56 47t-38 66t-14 81.5q0 43 14 81.5t38 68.5t56 50.5t68 26.5v95h51v-94q34 -5 66 -22.5t58 -43.5l-37 -46q-19 22 -41.5 35.5t-45.5 17.5v-332q24 4 47.5 18t40.5 34q10 -12 19 -23.5t19 -22.5q-26 -26 -58.5 -42.5t-67.5 -19.5v-141h-51v142z
M142 213q0 -31 8.5 -58t22.5 -48t33.5 -35t42.5 -20v329q-45 -14 -76 -60t-31 -108z" />
    <glyph glyph-name="sterling" unicode="&#xa3;" horiz-adv-x="513" 
d="M65 59h44q3 48 6 95t7 95h-57v51h59l3 41h-62v52h65q1 14 2 35.5t3 40.5l2 26q2 22 13 43t30.5 37t46.5 25.5t62 8.5q25 0 52 -7.5t49.5 -21.5t37.5 -35t15 -49q0 -14 -6.5 -28.5t-22.5 -30.5l-42 44q10 10 10 20q0 12 -9.5 21.5t-23 15.5t-30 9.5t-29.5 3.5
q-46 0 -66 -21t-22 -45q-1 -23 -2.5 -46t-3.5 -46h61v-52h-66l-2 -40h68v-52h-74q-2 -48 -4 -95t-4 -95h290v-59h-400v59z" />
    <glyph glyph-name="section" unicode="&#xa7;" horiz-adv-x="448" 
d="M398 228q0 -46 -22 -74t-61 -45q33 -18 50 -43.5t17 -65.5q0 -34 -15 -59.5t-39 -42.5t-55 -25.5t-64 -8.5q-47 0 -88.5 12.5t-87.5 35.5l29 51q35 -18 64.5 -30.5t73.5 -12.5q21 0 42 4.5t37 14.5t26 25.5t10 36.5q0 24 -12 39t-31 25t-42 15.5t-44 9.5q-60 12 -99 45
t-39 93q0 42 21 70.5t59 42.5q-29 18 -47.5 41.5t-18.5 61.5q0 36 14 61.5t37 42t53.5 24t62.5 7.5q45 0 84 -13t81 -36l-29 -50q-25 16 -56.5 29.5t-66.5 14.5q-22 1 -42.5 -4t-36 -15t-25 -25t-9.5 -35q0 -29 20 -44t50 -24t64.5 -16.5t64.5 -22t50 -40t20 -70.5zM334 226
q0 25 -13.5 42t-33 27.5t-42 14.5t-41.5 4q-17 0 -33.5 -6.5t-29.5 -17.5t-21.5 -27t-8.5 -34q0 -23 13 -40t33 -27.5t42.5 -15.5t42.5 -5q18 0 34.5 6t29 17.5t20.5 27t8 34.5z" />
    <glyph glyph-name="bullet" unicode="&#x2022;" horiz-adv-x="262" 
d="M22 286q0 23 8.5 43.5t23 36t34 24.5t42.5 9q24 0 44 -9t35 -25t23.5 -36.5t8.5 -43.5t-9 -42.5t-24 -34t-35.5 -22.5t-42.5 -8t-41.5 8.5t-34.5 23t-23.5 34t-8.5 42.5z" />
    <glyph glyph-name="paragraph" unicode="&#xb6;" horiz-adv-x="494" 
d="M408 520v-676h-56v676h-83v-676h-55v390q-78 5 -120 48.5t-42 121.5q0 54 16.5 87t46 51.5t69 25t85.5 6.5h183v-54h-44z" />
    <glyph glyph-name="germandbls" unicode="&#xdf;" horiz-adv-x="514" 
d="M487 164q0 -39 -13.5 -70.5t-38 -53.5t-58 -34t-73.5 -12q-26 0 -48.5 8t-40 20.5t-29.5 27t-17 26.5l44 34q4 -10 13 -21t21.5 -20t28 -15t32.5 -6q52 0 80 33t28 81q0 32 -15.5 54t-38.5 38t-50.5 29.5t-50.5 28.5t-38.5 34.5t-15.5 47.5q0 25 14 49t31 48t31 48.5
t14 50.5q0 28 -21.5 42t-46.5 14q-32 0 -51.5 -15.5t-30 -39.5t-14 -53.5t-3.5 -56.5v-226v-255h-68v492q0 38 8 74.5t27.5 65t51.5 46t81 17.5q27 0 51.5 -7t43.5 -20.5t30 -33.5t11 -45q0 -28 -15 -54t-32.5 -49.5t-32.5 -44.5t-15 -39q0 -16 16 -29t40 -25.5t52 -27.5
t52 -36t40 -50t16 -70z" />
    <glyph glyph-name="registered" unicode="&#xae;" horiz-adv-x="399" 
d="M372 448q0 -36 -13.5 -67t-37 -54.5t-55 -37t-67.5 -13.5t-67.5 13.5t-55 36.5t-37 54.5t-13.5 66.5q0 36 13.5 67.5t37 55t55 37t67.5 13.5t67.5 -13.5t55 -36.5t37 -54.5t13.5 -67.5zM340 447q0 29 -11 55t-30 45.5t-45 30.5t-55 11t-55 -11t-45 -30t-30 -45t-11 -55
q0 -30 11 -56t30 -45.5t44.5 -30.5t55.5 -11q29 0 55 11t45 30.5t30 45t11 55.5zM235 363l-33 72h-10h-20v-72h-33v177h64q25 0 43 -11.5t18 -39.5q0 -15 -7.5 -27.5t-22.5 -17.5l37 -81h-36zM230 488q0 18 -12 22t-27 4h-19v-53h16q15 0 28.5 3.5t13.5 23.5z" />
    <glyph glyph-name="copyright" unicode="&#xa9;" horiz-adv-x="688" 
d="M657 291q0 -65 -25 -121t-67.5 -97.5t-100 -65.5t-121.5 -24t-121 24t-99.5 65.5t-67.5 97.5t-25 121q0 64 25 120.5t67.5 98t99.5 65.5t121 24t121.5 -24t100 -65.5t67.5 -98t25 -120.5zM614 291q0 56 -21.5 105t-58 86t-86 58t-105.5 21t-104.5 -21.5t-85.5 -58
t-58 -86t-21 -104.5q0 -56 21 -105t58 -85.5t85.5 -58t104.5 -21.5t105.5 21.5t86 58t58 85.5t21.5 105zM350 153q26 0 50 9t44 32l28 -34q-24 -24 -55.5 -37.5t-66.5 -13.5q-36 0 -68 14t-55.5 38.5t-37 57.5t-13.5 71t13.5 72t37 60t55.5 41.5t68 15.5q34 0 65.5 -14.5
t55.5 -39.5l-28 -35q-41 45 -93 45q-26 0 -48.5 -12t-39.5 -32t-26.5 -46.5t-9.5 -54.5q0 -29 9.5 -53.5t26.5 -43.5t39.5 -29.5t48.5 -10.5z" />
    <glyph glyph-name="trademark" unicode="&#x2122;" horiz-adv-x="703" 
d="M-1 561v48h269v-48h-107v-295h-54v295h-108zM498 462l125 147h45v-343h-54v256l-116 -134l-117 134v-256h-54v343h45z" />
    <glyph glyph-name="acute" unicode="&#xb4;" 
d="M77 495h-55l65 120h91z" />
    <glyph glyph-name="dieresis" unicode="&#xa8;" 
d="M-35 566q0 19 14.5 32.5t34.5 13.5t34.5 -13.5t14.5 -32.5t-14.5 -32t-34.5 -13t-34.5 13t-14.5 32zM138 566q0 19 14 32.5t34 13.5t34.5 -13.5t14.5 -32.5t-14.5 -32t-34.5 -13t-34 13t-14 32z" />
    <glyph glyph-name="notequal" unicode="&#x2260;" horiz-adv-x="548" 
d="M106 -18q19 26 37.5 54t37.5 55h-107v62h149l59 86h-208v60h250l63 93h54l-63 -93h96v-60h-137q-15 -22 -30 -43t-29 -43h196v-62h-239q-19 -27 -37.5 -55t-37.5 -54h-54v0z" />
    <glyph glyph-name="AE" unicode="&#xc6;" horiz-adv-x="762" 
d="M79 0h-74l358 608h346v-61h-253v-192h211v-60h-211v-234h274v-61h-342v253h-162zM388 311v223l-129 -223h129z" />
    <glyph glyph-name="Oslash" unicode="&#xd8;" horiz-adv-x="619" 
d="M39 300q0 64 21 121.5t57 101t84.5 69t103.5 25.5q45 0 85 -17t73 -47q1 1 7.5 10t13.5 19t13.5 18.5t7.5 10.5h72l-74 -104q32 -42 49.5 -95t17.5 -112q0 -64 -20.5 -120.5t-56.5 -98.5t-84.5 -66t-103.5 -24q-40 0 -75.5 12.5t-65.5 35.5l-52 -72h-72l80 111
q-38 43 -59.5 99.5t-21.5 122.5zM107 300q0 -49 14.5 -91.5t39.5 -74.5l25 35t47.5 66t59 81.5t59 82l47.5 66.5t26 36q-26 26 -56.5 40.5t-63.5 14.5q-41 0 -77 -21t-63 -56t-42.5 -81.5t-15.5 -97.5zM502 300q0 42 -10.5 80t-30.5 70l-259 -360q22 -18 48 -28t55 -10
q41 0 77 19.5t62.5 53t42 79t15.5 96.5z" />
    <glyph glyph-name="plusminus" unicode="&#xb1;" horiz-adv-x="548" 
d="M314 193v-106h-72v105h-168v63h169v154h72v-154h159v-62h-160zM86 -3v57h373v-57h-373z" />
    <glyph glyph-name="lessequal" unicode="&#x2264;" horiz-adv-x="548" 
d="M86 281l373 154v-68l-291 -114l291 -114v-69l-373 155v56zM86 -3v57h373v-57h-373z" />
    <glyph glyph-name="greaterequal" unicode="&#x2265;" horiz-adv-x="548" 
d="M460 225l-373 -155v69l291 114l-291 114v68l373 -154v-56zM86 -3v57h373v-57h-373z" />
    <glyph glyph-name="yen" unicode="&#xa5;" horiz-adv-x="513" 
d="M221 324l-191 277h78l148 -220l148 220h77l-189 -277h165l-8 -54h-160v-74h168l-8 -54h-160v-142h-66v142h-168l8 54h160v74h-168l8 54h158z" />
    <glyph glyph-name="mu" unicode="&#xb5;" horiz-adv-x="552" 
d="M518 27q-21 -20 -40.5 -27.5t-40.5 -7.5q-18 0 -30 7.5t-20 18.5t-12 25t-7 27q-17 -35 -47.5 -56.5t-72.5 -21.5q-28 0 -51 9t-41 25v-178h-65v593h70v-298q0 -38 26 -61t60 -23q31 0 53.5 15.5t37.5 39.5t22 53t7 55v219h68v-335q0 -17 4.5 -34t21.5 -17q19 0 36 17
l21 -45v0z" />
    <glyph glyph-name="ordfeminine" unicode="&#xaa;" horiz-adv-x="299" 
d="M215 609h40v-261h-51v34q-16 -16 -32.5 -26t-39.5 -10q-21 0 -39.5 11t-32 29t-21.5 41.5t-8 49.5q0 27 9 51t25 42t36.5 28.5t43.5 10.5h70zM145 559q-12 0 -23 -6.5t-19.5 -17.5t-13.5 -26t-5 -32q0 -32 16.5 -57t41.5 -25q26 0 43.5 22.5t17.5 56.5v85h-58z" />
    <glyph glyph-name="ordmasculine" unicode="&#xba;" horiz-adv-x="311" 
d="M32 482q0 28 10 52.5t26.5 43t39 29t48.5 10.5q25 0 47 -10.5t38.5 -29t26.5 -43t10 -52.5t-10 -52.5t-26.5 -42.5t-38.5 -28.5t-47 -10.5q-26 0 -48.5 10.5t-39 28.5t-26.5 42.5t-10 52.5zM85 482q0 -35 20 -60.5t51 -25.5q14 0 27 7t22.5 18.5t15 27t5.5 33.5
q0 36 -20.5 61t-49.5 25q-30 0 -50.5 -25.5t-20.5 -60.5z" />
    <glyph glyph-name="ae" unicode="&#xe6;" horiz-adv-x="712" 
d="M530 -7q-43 0 -82 22.5t-58 54.5v-70h-62v70q-19 -30 -51.5 -54t-67.5 -24q-37 0 -69.5 17t-56.5 47t-37.5 70.5t-13.5 86.5t14.5 86.5t39.5 70.5t58 47.5t70 17.5h175v-68q23 37 56 56t68 19q33 0 64.5 -14t56 -39t39.5 -59.5t15 -74.5v-4q0 -26 -18 -30.5t-59 -4.5
h-217q1 -36 12 -66.5t30 -52.5t43 -34.5t51 -12.5q28 0 56 12.5t52 41.5q8 -11 16.5 -23t16.5 -24q-29 -31 -64.5 -47.5t-76.5 -16.5zM216 375q-23 0 -44 -13t-36.5 -35t-24.5 -51.5t-9 -62.5q0 -34 8.5 -63.5t23.5 -51.5t35.5 -35t44.5 -13t45 14.5t36.5 38.5t24 55t8.5 64
v153h-112zM511 388q-21 0 -40 -9.5t-34 -25.5t-26 -37t-15 -45h225q-5 24 -15 45t-25 37t-33 25.5t-37 9.5z" />
    <glyph glyph-name="oslash" unicode="&#xf8;" horiz-adv-x="454" 
d="M26 217q0 47 16 88t44 72t65 48.5t78 17.5q29 0 56.5 -9.5t50.5 -25.5l33 49h57l-56 -82q26 -29 42 -69.5t16 -88.5q0 -47 -15.5 -88t-42.5 -72t-63.5 -48.5t-77.5 -17.5q-25 0 -52.5 7.5t-47.5 19.5q-2 -2 -8 -10.5t-13 -19l-13 -19.5t-7 -10h-56l59 88q-31 30 -48 74.5
t-17 95.5zM91 217q0 -36 10.5 -65t27.5 -49l173 255q-17 13 -37 19t-38 6q-28 0 -53 -13t-43.5 -35.5t-29 -53t-10.5 -64.5zM364 215q0 32 -9 59t-22 45l-169 -249q13 -9 31 -14t34 -5q28 0 52.5 12.5t43 35t29 52t10.5 64.5z" />
    <glyph glyph-name="questiondown" unicode="&#xbf;" horiz-adv-x="391" 
d="M230 318q0 -12 -8 -20.5t-22 -8.5q-23 0 -44 -9.5t-37 -26t-25 -38.5t-9 -47q0 -26 9 -47.5t24.5 -37t36 -24.5t43.5 -9q43 0 74.5 28.5t41.5 74.5l60 -16q-14 -64 -61 -105t-116 -41q-37 0 -69.5 13.5t-57 37t-38.5 56t-14 70.5q0 33 11.5 62.5t31 52.5t46 39t57.5 22
v121h66v-147zM239 571q0 -17 -12.5 -27.5t-29.5 -10.5t-29 10.5t-12 27.5q0 16 12 27t29 11t29.5 -11t12.5 -27z" />
    <glyph glyph-name="exclamdown" unicode="&#xa1;" horiz-adv-x="159" 
d="M123 34q1 -17 -12.5 -27.5t-30.5 -10.5q-18 0 -31.5 10t-12.5 28l10 481q0 13 10 21.5t24 8.5t23.5 -8.5t9.5 -21.5zM121 651q0 -17 -12 -27.5t-29 -10.5q-18 0 -30 11t-12 27q0 15 12 26.5t30 11.5q17 0 29 -11t12 -27z" />
    <glyph glyph-name="logicalnot" unicode="&#xac;" horiz-adv-x="548" 
d="M410 175h-337v62h401v-177h-64v115z" />
    <glyph glyph-name="florin" unicode="&#x192;" horiz-adv-x="513" 
d="M415 458q-22 34 -46.5 46.5t-56.5 12.5q-27 0 -45.5 -10t-30.5 -28t-18 -42t-9 -51q0 -3 -1.5 -16t-3 -27.5t-2.5 -27.5t-1 -16h199v-61h-203q-1 -9 -3.5 -41t-6 -76t-8 -93.5t-8 -93.5t-6.5 -76t-3 -40h-73l31 420h-51v61h56l8 87q4 40 13.5 76t29.5 63t52.5 42.5
t82.5 15.5t88.5 -19t68.5 -64z" />
    <glyph glyph-name="guillemotleft" unicode="&#xab;" horiz-adv-x="442" 
d="M291 224l97 -154h-72l-105 155l107 153h73zM119 226l95 -156h-71l-105 156l105 152h73z" />
    <glyph glyph-name="guillemotright" unicode="&#xbb;" horiz-adv-x="442" 
d="M289 70h-71l95 155q-2 4 -10 15.5t-18 27.5t-21.5 34t-22 34t-17.5 27.5t-9 14.5h73l105 -152zM110 70h-71l96 154l-10 15t-18.5 28.5t-22 34.5t-21.5 34t-17.5 27.5t-9.5 14.5h72l107 -153z" />
    <glyph glyph-name="ellipsis" unicode="&#x2026;" horiz-adv-x="869" 
d="M96 43q0 20 15.5 35t38.5 15t38.5 -15t15.5 -35q0 -22 -15.5 -37t-38.5 -15t-38.5 15t-15.5 37zM381 43q0 20 15.5 35t38.5 15t38.5 -15t15.5 -35q0 -22 -15.5 -37t-38.5 -15t-38.5 15t-15.5 37zM668 43q0 20 15.5 35t38.5 15t38.5 -15t15.5 -35q0 -22 -15.5 -37
t-38.5 -15t-38.5 15t-15.5 37z" />
    <glyph glyph-name="nonbreakingspace" unicode="&#xa0;" 
 />
    <glyph glyph-name="Agrave" unicode="&#xc0;" horiz-adv-x="559" 
d="M82 0h-72l237 608h65l237 -608h-72l-96 245h-203zM280 511l-81 -207h162zM304 669l-104 120h93l67 -120h-56z" />
    <glyph glyph-name="Atilde" unicode="&#xc3;" horiz-adv-x="559" 
d="M82 0h-72l237 608h64l237 -608h-71l-96 244h-203zM360 304q-20 52 -40 103.5t-41 103.5q-20 -52 -40 -103.5t-41 -103.5h162zM426 782q-3 -20 -9 -41.5t-17 -39t-27 -28.5t-39 -11q-20 0 -35 9t-28.5 20.5t-26 20.5t-25.5 9q-10 0 -17.5 -6.5t-12 -15.5t-7.5 -19t-4 -16
h-44q3 18 9 38.5t16.5 38.5t26.5 29.5t39 11.5q21 0 36.5 -9t29 -19.5t26 -19t26.5 -8.5q10 0 17 6.5t11.5 15.5t7 18.5t3.5 15.5h44z" />
    <glyph glyph-name="Otilde" unicode="&#xd5;" horiz-adv-x="628" 
d="M49 300q0 66 20.5 123.5t56.5 100.5t84.5 67.5t103.5 24.5t103.5 -24.5t84.5 -67.5t57 -100.5t21 -123.5t-21 -122.5t-57 -98t-84.5 -64.5t-103.5 -23t-103.5 23t-84.5 64.5t-56.5 98t-20.5 122.5zM116 300q0 -53 15.5 -98.5t42.5 -78.5t63 -52t77 -19t77 19t63 52
t42.5 78.5t15.5 98.5q0 52 -15.5 98.5t-42.5 81.5t-63 55t-77 20t-77 -20t-63 -55t-42.5 -81.5t-15.5 -98.5zM460 782q-3 -20 -9.5 -41.5t-17 -39t-27 -28.5t-38.5 -11q-20 0 -35.5 9t-29 20.5t-25.5 20.5t-25 9q-10 0 -17.5 -6.5t-12 -15.5t-7.5 -19t-4 -16h-44
q3 18 9 38.5t16.5 38.5t26.5 29.5t39 11.5q21 0 36.5 -9t29 -19.5t26 -19t26.5 -8.5q10 0 17 6.5t11.5 15.5t7 18.5t3.5 15.5h44z" />
    <glyph glyph-name="OE" unicode="&#x152;" horiz-adv-x="846" 
d="M481 109q-32 -51 -85.5 -84.5t-114.5 -33.5q-55 0 -103 24t-84 66t-57 98.5t-21 120.5t21 121.5t57 101t84 69t103 25.5q30 0 59 -9t55 -25.5t48 -39t38 -49.5v114h319v-61h-253v-192h211v-60h-211v-234h274v-61h-340v109zM83 300q0 -51 15.5 -96.5t42.5 -79t63 -53
t77 -19.5t77.5 19.5t63.5 53t43 79t16 96.5t-16 97.5t-43 81.5t-63.5 56t-77.5 21t-77 -21t-63 -56t-42.5 -81.5t-15.5 -97.5z" />
    <glyph glyph-name="oe" unicode="&#x153;" horiz-adv-x="779" 
d="M576 -8q-54 0 -97.5 28t-69.5 77q-26 -48 -69.5 -76.5t-97.5 -28.5q-41 0 -77.5 17.5t-63.5 48t-42.5 71.5t-15.5 88t15.5 88t42.5 71.5t63.5 48t77.5 17.5q52 0 95 -28t69 -73q23 45 62.5 73t85.5 28q32 0 64 -14.5t57.5 -40t41.5 -60.5t16 -75q0 -20 -10 -28t-35 -8
h-247q3 -36 13.5 -66t28 -52.5t41 -35t52.5 -12.5q27 0 55.5 12.5t51.5 41.5q8 -11 16.5 -23t16.5 -24q-28 -31 -64 -48t-76 -17zM109 217q0 -35 10.5 -65t28.5 -53t42.5 -36t51.5 -13q28 0 52 13t42 36t28.5 53t10.5 65q0 34 -10.5 64.5t-28.5 53t-42 35.5t-52 13
q-27 0 -51.5 -13t-42.5 -35.5t-28.5 -53t-10.5 -64.5zM554 383q-40 0 -70.5 -31.5t-39.5 -79.5h220q-9 48 -39.5 79.5t-70.5 31.5z" />
    <glyph glyph-name="endash" unicode="&#x2013;" horiz-adv-x="435" 
d="M1 217v64h431v-64h-431z" />
    <glyph glyph-name="emdash" unicode="&#x2014;" horiz-adv-x="869" 
d="M-1 217v64h869v-64h-869z" />
    <glyph glyph-name="quotedblleft" unicode="&#x201c;" horiz-adv-x="299" 
d="M127 485q0 -22 -15.5 -36.5t-38.5 -14.5t-38.5 15t-15.5 37q1 5 1.5 10t2.5 11l47 95h61l-28 -76q11 -7 17.5 -17.5t6.5 -23.5zM275 485q0 -22 -15.5 -36.5t-37.5 -14.5q-23 0 -39 15t-16 37l2 10t3 11l46 95h62l-28 -76q23 -15 23 -41z" />
    <glyph glyph-name="quotedblright" unicode="&#x201d;" horiz-adv-x="299" 
d="M27 556q0 22 15.5 36.5t38.5 14.5t38.5 -15t15.5 -37q-1 -5 -1.5 -9.5t-3.5 -11.5l-45 -95h-62l28 76q-24 13 -24 41zM167 556q0 22 15.5 36.5t38.5 14.5t38.5 -15t15.5 -37q0 -10 -5 -21l-45 -95h-62l28 76q-24 13 -24 41z" />
    <glyph glyph-name="quoteleft" unicode="&#x2018;" horiz-adv-x="168" 
d="M135 484q0 -21 -15.5 -35.5t-38.5 -14.5t-38.5 14.5t-15.5 36.5q0 4 1 7l3 15q13 26 25.5 52t20.5 42h62q-8 -19 -14.5 -38t-13.5 -38q11 -6 17.5 -17t6.5 -24z" />
    <glyph glyph-name="quoteright" unicode="&#x2019;" horiz-adv-x="168" 
d="M31 556q0 21 15.5 36t38.5 15q24 0 38.5 -15.5t14.5 -38.5q0 -12 -6.5 -28.5t-15 -33t-16 -31t-10.5 -21.5h-62q6 19 13 37.5t15 38.5q-25 13 -25 41z" />
    <glyph glyph-name="divide" unicode="&#xf7;" horiz-adv-x="552" 
d="M326 348q0 -20 -15 -33.5t-36 -13.5q-22 0 -37.5 13.5t-15.5 33.5t15 35t37 15t37 -14.5t15 -35.5zM76 185v57h400v-57h-400zM327 74q0 -20 -15.5 -33.5t-36.5 -13.5q-22 0 -37.5 13.5t-15.5 33.5t15 34.5t38 14.5q22 0 37 -14.5t15 -34.5z" />
    <glyph glyph-name="ydieresis" unicode="&#xff;" horiz-adv-x="497" 
d="M263 -304q-47 0 -98 14l11 58q21 -7 44 -9.5t43 -2.5q30 0 49 6.5t29.5 17t14 24t3.5 26.5v229q-21 -29 -52.5 -47t-64.5 -18q-37 0 -69 17.5t-55.5 47.5t-37 70.5t-13.5 87.5v218h66v-218q0 -33 9 -62.5t24 -52t35 -35.5t43 -13q24 0 44.5 12.5t36.5 33.5t25 49t9 60
v226h66v-605q0 -30 -7.5 -54.5t-26.5 -42t-50 -27.5t-78 -10zM113 566q0 19 14 32.5t34 13.5t34.5 -13.5t14.5 -32.5t-14.5 -32t-34.5 -13t-34 13t-14 32zM285 566q0 19 14 32.5t34 13.5t34 -13.5t14 -32.5t-14 -32t-34 -13t-34 13t-14 32z" />
    <glyph glyph-name="Ydieresis" unicode="&#x178;" horiz-adv-x="474" 
d="M466 608l-195 -291v-317h-68v317l-194 291h79l149 -225l150 225h79zM103 721q0 19 14 32.5t34 13.5t35 -13.5t15 -32.5t-15 -32t-35 -13t-34 13t-14 32zM275 721q0 19 14 32.5t34 13.5t34.5 -13.5t14.5 -32.5t-14.5 -32t-34.5 -13t-34 13t-14 32z" />
    <glyph glyph-name="fraction" unicode="&#x2044;" horiz-adv-x="103" 
d="M-112 1h-63l393 601h60z" />
    <glyph glyph-name="Euro" unicode="&#x20ac;" horiz-adv-x="513" 
d="M152 296v-27t2 -23h224l-8 -55h-207q16 -63 53.5 -102t101.5 -39q39 0 73.5 17t68.5 49l35 -49q-39 -35 -82 -55t-95 -20q-46 0 -83 15t-64.5 41t-46 62.5t-28.5 80.5h-79l8 55h62q-1 12 -1.5 24.5t-0.5 24.5q0 10 0.5 20.5t1.5 20.5h-70l8 55h70q9 46 27 86t45.5 69
t65 46t85.5 17q30 0 54 -5.5t45 -17t40.5 -28.5t39.5 -40q-9 -12 -18.5 -23.5t-19.5 -23.5q-17 21 -33 36t-32.5 24.5t-35 13.5t-40.5 4q-33 0 -59 -12t-45.5 -33t-32 -50t-19.5 -63h216l-8 -55h-217q-1 -10 -1.5 -20.5t-0.5 -20.5z" />
    <glyph glyph-name="guilsinglleft" unicode="&#x2039;" horiz-adv-x="270" 
d="M127 225l91 -149h-69l-100 150l101 145h70z" />
    <glyph glyph-name="guilsinglright" unicode="&#x203a;" horiz-adv-x="273" 
d="M123 70h-72l97 154q-4 5 -19 28t-32 49.5t-31.5 49t-16.5 27.5h72l106 -153z" />
    <glyph glyph-name="fi" unicode="&#xfb01;" horiz-adv-x="428" 
d="M363 0h-67v375h-147v-375h-66v375h-83v60h83v165q0 27 10.5 45.5t27 29.5t38 15.5t43.5 4.5q19 0 40.5 -2t41.5 -5t37 -6.5t27 -6.5l-14 -54q-18 5 -50 10.5t-70 5.5q-23 0 -42.5 -9.5t-22.5 -36.5v-156h214v-435z" />
    <glyph glyph-name="fl" unicode="&#xfb02;" horiz-adv-x="451" 
d="M381 0h-66v624q-24 6 -47 10t-42 4q-12 0 -25.5 -2.5t-24.5 -7.5t-18.5 -13t-8.5 -19v-161h88v-60h-88v-375h-66v375h-83v60h83v167q0 24 12 42t31.5 29.5t45 17t51.5 5.5q8 0 20 -1.5t25 -3.5t25.5 -4.5t21.5 -5.5v14h66v-695z" />
    <glyph glyph-name="daggerdbl" unicode="&#x2021;" horiz-adv-x="524" 
d="M444 311q-43 5 -81 7t-71 2q1 -26 4 -50t9 -50q-5 -28 -9 -55t-5 -55q38 1 77.5 3t74.5 4v-66q-40 3 -79 5.5t-75 2.5q1 -47 4.5 -98t8.5 -103h-83q5 51 9.5 102t4.5 100q-35 0 -76.5 -2.5t-76.5 -5.5v67q37 -4 78 -6t72 -3q-1 26 -4.5 56t-8.5 56q7 25 10.5 49t3.5 50
q-36 -1 -76 -3.5t-75 -4.5q0 17 0.5 33.5t0.5 33.5q41 -5 80 -7t72 -3q-1 48 -4 100.5t-8 102.5h82q-5 -51 -9 -102t-4 -101q32 1 74 3t80 6v-68v0z" />
    <glyph glyph-name="periodcentered" unicode="&#xb7;" horiz-adv-x="239" 
d="M70 271q0 22 14 37.5t36 15.5t36.5 -16t14.5 -37t-15.5 -35t-35.5 -14t-35 14t-15 35z" />
    <glyph glyph-name="quotesinglbase" unicode="&#x201a;" horiz-adv-x="159" 
d="M25 42q0 21 15.5 36t38.5 15q21 0 36 -13t17 -32v-14l-3 -13q-10 -24 -22 -51t-22 -50h-56l27 79q-15 4 -23 16.5t-8 26.5z" />
    <glyph glyph-name="quotedblbase" unicode="&#x201e;" horiz-adv-x="294" 
d="M22 40q0 22 15.5 36.5t38.5 14.5q25 0 39 -16t14 -39q0 -9 -5 -24t-12.5 -31.5t-15.5 -33.5t-13 -29h-58q8 20 14 39.5t13 39.5q-14 5 -22 17t-8 26zM163 40q0 22 15.5 36.5t38.5 14.5t38 -15.5t15 -36.5q0 -9 -5 -24t-12.5 -32t-15.5 -34.5t-14 -30.5h-57l28 79
q-15 5 -23 17t-8 26z" />
    <glyph glyph-name="perthousand" unicode="&#x2030;" horiz-adv-x="752" 
d="M23 501q0 23 9 43.5t24 35.5t35.5 24t44.5 9t44.5 -9t35.5 -24t24 -35.5t9 -43.5t-9 -43t-24 -35t-35.5 -23.5t-44.5 -8.5t-44.5 8.5t-35.5 23.5t-24 35t-9 43zM246 103q0 23 9 43t24 35t35.5 24t44.5 9q23 0 44 -9t36.5 -24t24.5 -35t9 -43t-9 -43.5t-24.5 -35.5
t-36.5 -24t-44 -9q-24 0 -44.5 9t-35.5 24t-24 35.5t-9 43.5zM25 0l380 604h64l-379 -604h-65zM76 501q0 -25 17.5 -43t42.5 -18t42.5 18t17.5 43t-17.5 43.5t-42.5 18.5t-42.5 -18.5t-17.5 -43.5zM299 103q0 -26 17.5 -44t42.5 -18t42.5 18t17.5 44q0 25 -17.5 43t-42.5 18
t-42.5 -18t-17.5 -43zM502 103q0 23 9 43t24.5 35t36 24t44.5 9t44.5 -9t35.5 -24t24 -35t9 -43t-9 -43.5t-24 -35.5t-35.5 -24t-44.5 -9t-44.5 9t-36 24t-24.5 35.5t-9 43.5zM556 103q0 -26 17.5 -44t42.5 -18t42 18t17 44q0 25 -17 43t-42 18t-42.5 -18t-17.5 -43z" />
    <glyph glyph-name="Acircumflex" unicode="&#xc2;" horiz-adv-x="559" 
d="M82 0h-72l237 608h65l237 -608h-72l-96 245h-203zM280 511l-81 -207h162zM348 664l-69 72l-68 -72h-62l90 119h81l90 -119h-62z" />
    <glyph glyph-name="Ecircumflex" unicode="&#xca;" horiz-adv-x="429" 
d="M65 608h321v-61h-253v-192h210v-60h-210v-234h274v-61h-342v608zM283 664l-68 72l-69 -72h-63l91 119h81l91 -119h-63z" />
    <glyph glyph-name="Aacute" unicode="&#xc1;" horiz-adv-x="559" 
d="M82 0h-72l237 608h65l237 -608h-72l-96 245h-203zM280 511l-81 -207h162zM257 669h-56l65 120h91z" />
    <glyph glyph-name="Edieresis" unicode="&#xcb;" horiz-adv-x="429" 
d="M65 608h321v-61h-253v-192h210v-60h-210v-234h274v-61h-342v608zM80 740q0 19 14 32.5t34 13.5t34 -13.5t14 -32.5q0 -20 -14 -33t-34 -13t-34 13t-14 33zM252 740q0 19 14 32.5t34 13.5t34 -13.5t14 -32.5q0 -20 -14 -33t-34 -13t-34 13t-14 33z" />
    <glyph glyph-name="Egrave" unicode="&#xc8;" horiz-adv-x="429" 
d="M65 608h321v-61h-253v-192h210v-60h-210v-234h274v-61h-342v608zM238 669l-103 120h93l67 -120h-57z" />
    <glyph glyph-name="Iacute" unicode="&#xcd;" horiz-adv-x="289" 
d="M110 547h-84v61h236v-61h-84v-486h84v-61h-236v61h84v486zM122 669h-57l66 120h91z" />
    <glyph glyph-name="Icircumflex" unicode="&#xce;" horiz-adv-x="289" 
d="M110 547h-84v61h236v-61h-84v-486h84v-61h-236v61h84v486zM213 664l-69 72l-68 -72h-63l90 119h82l90 -119h-62z" />
    <glyph glyph-name="Idieresis" unicode="&#xcf;" horiz-adv-x="289" 
d="M110 547h-84v61h236v-61h-84v-486h84v-61h-236v61h84v486zM10 740q0 19 13.5 32.5t33.5 13.5t35 -13.5t15 -32.5q0 -20 -15 -33t-35 -13t-33.5 13t-13.5 33zM182 740q0 19 13.5 32.5t33.5 13.5t34.5 -13.5t14.5 -32.5q0 -20 -14.5 -33t-34.5 -13t-33.5 13t-13.5 33z" />
    <glyph glyph-name="Igrave" unicode="&#xcc;" horiz-adv-x="289" 
d="M110 547h-84v61h236v-61h-84v-486h84v-61h-236v61h84v486zM168 669l-104 120h93l67 -120h-56z" />
    <glyph glyph-name="Oacute" unicode="&#xd3;" horiz-adv-x="628" 
d="M49 300q0 66 21 124t57 100.5t84.5 67.5t103.5 25t103 -25t84 -67.5t57 -100.5t21 -124t-21 -123t-57 -98t-84 -64.5t-103 -23.5t-103.5 23.5t-84.5 64.5t-57 98t-21 123zM116 300q0 -53 15.5 -98t42.5 -78.5t63.5 -52.5t77.5 -19q40 0 76 19t63 52.5t42.5 78.5t15.5 98
q0 52 -15.5 99t-42.5 81.5t-63 55t-76 20.5q-41 0 -77.5 -20.5t-63.5 -55t-42.5 -81.5t-15.5 -99zM292 669h-57l66 120h91z" />
    <glyph glyph-name="Ocircumflex" unicode="&#xd4;" horiz-adv-x="628" 
d="M49 300q0 66 21 124t57 100.5t84.5 67.5t103.5 25t103 -25t84 -67.5t57 -100.5t21 -124t-21 -123t-57 -98t-84 -64.5t-103 -23.5t-103.5 23.5t-84.5 64.5t-57 98t-21 123zM116 300q0 -53 15.5 -98t42.5 -78.5t63.5 -52.5t77.5 -19q40 0 76 19t63 52.5t42.5 78.5t15.5 98
q0 52 -15.5 99t-42.5 81.5t-63 55t-76 20.5q-41 0 -77.5 -20.5t-63.5 -55t-42.5 -81.5t-15.5 -99zM383 664l-69 72l-68 -72h-63l91 119h81l90 -119h-62z" />
    <glyph glyph-name="Ograve" unicode="&#xd2;" horiz-adv-x="628" 
d="M49 300q0 66 21 124t57 100.5t84.5 67.5t103.5 25t103 -25t84 -67.5t57 -100.5t21 -124t-21 -123t-57 -98t-84 -64.5t-103 -23.5t-103.5 23.5t-84.5 64.5t-57 98t-21 123zM116 300q0 -53 15.5 -98t42.5 -78.5t63.5 -52.5t77.5 -19q40 0 76 19t63 52.5t42.5 78.5t15.5 98
q0 52 -15.5 99t-42.5 81.5t-63 55t-76 20.5q-41 0 -77.5 -20.5t-63.5 -55t-42.5 -81.5t-15.5 -99zM338 669l-104 120h93l67 -120h-56z" />
    <glyph glyph-name="Uacute" unicode="&#xda;" horiz-adv-x="587" 
d="M294 50q31 0 59 12.5t49.5 33.5t34 49t12.5 60v403h68v-405q0 -45 -16.5 -84t-46 -67.5t-70.5 -44.5t-90 -16q-47 0 -87.5 17.5t-71 47.5t-48 70t-17.5 85v397h68v-397q0 -33 12.5 -62t33.5 -51t49.5 -35t60.5 -13zM271 669h-56l66 120h91z" />
    <glyph glyph-name="Ucircumflex" unicode="&#xdb;" horiz-adv-x="587" 
d="M294 50q31 0 59 12.5t49.5 33.5t34 49t12.5 60v403h68v-405q0 -45 -16.5 -84t-46 -67.5t-70.5 -44.5t-90 -16q-47 0 -87.5 17.5t-71 47.5t-48 70t-17.5 85v397h68v-397q0 -33 12.5 -62t33.5 -51t49.5 -35t60.5 -13zM363 669l-69 72l-69 -72h-62l90 120h82l90 -120h-62z
" />
    <glyph glyph-name="Ugrave" unicode="&#xd9;" horiz-adv-x="587" 
d="M294 50q31 0 59 12.5t49.5 33.5t34 49t12.5 60v403h68v-405q0 -45 -16.5 -84t-46 -67.5t-70.5 -44.5t-90 -16q-47 0 -87.5 17.5t-71 47.5t-48 70t-17.5 85v397h68v-397q0 -33 12.5 -62t33.5 -51t49.5 -35t60.5 -13zM317 669l-103 120h93l67 -120h-57z" />
    <glyph glyph-name="dotlessi" unicode="&#x131;" 
d="M133 0h-66v435h66v-435z" />
    <glyph glyph-name="circumflex" unicode="&#x2c6;" 
d="M169 495l-69 72l-68 -72h-62l90 120h81l90 -120h-62z" />
    <glyph glyph-name="tilde" unicode="&#x2dc;" 
d="M246 614q-3 -20 -9 -41t-17 -38.5t-27 -29t-39 -11.5q-20 0 -35 9t-28.5 20.5t-25.5 20.5t-25 9q-11 0 -18 -6.5t-12 -15.5t-8 -19t-4 -17h-43q3 18 9 39t16.5 38.5t26 29.5t38.5 12q21 0 36.5 -9t29 -19.5t26.5 -19.5t27 -9q9 0 16 6.5t11.5 15.5t7 19t3.5 16h44v0z" />
    <glyph glyph-name="macron" unicode="&#xaf;" 
d="M-31 483v62h262v-62h-262z" />
    <glyph glyph-name="breve" unicode="&#x2d8;" 
d="M227 624q-6 -60 -38 -97.5t-91 -37.5q-29 0 -51.5 10.5t-38 29t-24.5 43t-10 52.5h47q6 -27 26 -50.5t52 -23.5q33 0 52.5 23t25.5 51h50v0z" />
    <glyph glyph-name="dotaccent" unicode="&#x2d9;" 
d="M48 543q0 22 15 37t37 15q21 0 36 -15t15 -37q0 -21 -15 -36t-36 -15q-22 0 -37 15t-15 36z" />
    <glyph glyph-name="ring" unicode="&#x2da;" 
d="M176 566q0 -32 -22 -55t-54 -23t-54.5 22t-22.5 54t23 54.5t55 22.5t53.5 -22t21.5 -53zM142 565q0 17 -12 29.5t-31 12.5q-17 0 -29 -13t-12 -30t12 -30t30 -13t30 13t12 31z" />
    <glyph glyph-name="cedilla" unicode="&#xb8;" 
d="M193 -110q0 -23 -10 -39t-26 -26.5t-36 -15.5t-39 -5q-11 0 -20 0.5t-17.5 2t-17.5 4t-21 7.5l11 39q17 -8 31.5 -11t31.5 -3q9 0 20.5 2.5t21.5 8.5t16.5 14.5t6.5 20.5q0 20 -13.5 29.5t-27.5 9.5q-9 0 -16.5 -2t-15.5 -8l-24 26q18 17 27 31.5t21 28.5h50
q-8 -6 -18.5 -20.5t-24.5 -28.5q5 2 13 2h15q27 -2 44.5 -21.5t17.5 -45.5z" />
    <glyph glyph-name="hungarumlaut" unicode="&#x2dd;" 
d="M140 476h-48q19 44 33 69.5t24 51.5h95zM2 476h-46q9 20 25.5 54t30.5 67h94z" />
    <glyph glyph-name="ogonek" unicode="&#x2db;" 
d="M173 -92q-18 -12 -37.5 -19.5t-41.5 -7.5q-30 0 -49 19.5t-19 49.5q0 26 18 40.5t42 22.5q7 3 12.5 4.5t12.5 7.5l40 -12q-10 -8 -24.5 -14.5t-28 -13.5t-23.5 -15t-10 -20t11 -23t22 -11q31 0 58 22l17 -30v0z" />
    <glyph glyph-name="caron" unicode="&#x2c7;" 
d="M139 494h-81q-21 30 -43 60t-43 60h58l69 -68l68 68h61z" />
    <glyph glyph-name="Scaron" unicode="&#x160;" horiz-adv-x="566" 
d="M120 476q0 -38 29.5 -57t74.5 -30t96.5 -20.5t96.5 -28t74.5 -52.5t29.5 -94q0 -44 -19.5 -81t-52.5 -64t-78 -42t-96 -15q-48 0 -90.5 15t-75 40.5t-53 60.5t-24.5 76q16 5 32 9t32 9q1 -32 16 -59.5t39.5 -47.5t57.5 -31.5t69 -11.5t68 11t56 30.5t37.5 45.5t13.5 55
q0 28 -12.5 46.5t-34 31t-50 20t-59.5 13.5h1q-44 9 -87.5 18t-79 27t-57.5 47.5t-22 78.5q0 29 17.5 54.5t48 44.5t71 30t86.5 11q39 0 74.5 -8t64.5 -23t49.5 -35t30.5 -44l-58 -30q-6 18 -20.5 32.5t-36.5 25t-49 16t-57 5.5q-32 0 -59.5 -6.5t-48.5 -17.5t-33 -25
t-12 -30zM322 668h-81q-22 30 -44 59.5t-42 59.5h58l69 -67l33.5 33.5l33.5 33.5h61z" />
    <glyph glyph-name="Zcaron" unicode="&#x17d;" horiz-adv-x="557" 
d="M514 554q-94 -125 -185.5 -247t-185.5 -246h404v-61h-489v53l370 494h-370v61h456v-54zM330 663h-81q-22 29 -43.5 59t-43.5 59h59l68 -67l69 67h60z" />
    <glyph glyph-name="scaron" unicode="&#x161;" horiz-adv-x="402" 
d="M104 332q0 -21 20 -31.5t50.5 -18t65.5 -15t65.5 -22.5t50.5 -40.5t20 -68.5q0 -30 -14 -56.5t-38 -46t-56.5 -30.5t-70.5 -11q-35 0 -65.5 10t-54 27t-39 41t-19.5 53l60 19q2 -20 12 -37.5t26 -30t36.5 -19.5t43.5 -7q20 0 40.5 7t36.5 19t26 27t10 32q0 30 -20 46.5
t-50 26.5t-65.5 17t-65.5 19t-50 32.5t-20 57.5q0 23 12 43t33.5 35t50.5 23.5t62 8.5q52 0 93.5 -22.5t58.5 -57.5l-52 -27q-11 24 -39.5 37t-61.5 13q-18 0 -34.5 -4t-29 -11.5t-20.5 -17t-8 -20.5zM240 494h-81q-22 30 -43.5 60t-42.5 60h58l69 -68l34 34l34 34h60z" />
    <glyph glyph-name="zcaron" unicode="&#x17e;" horiz-adv-x="408" 
d="M127 59h273v-59h-356v51q60 81 120.5 162t121.5 162h-242v60h324v-54zM249 494h-81l-87 120h58q18 -17 35 -34l34 -34l34 34l34 34h60z" />
    <glyph glyph-name="currency" unicode="&#xa4;" horiz-adv-x="556" 
d="M469 399l-44 44l46 46l44 -44zM86 395l-45 45l46 46l45 -46zM460 255q0 -86 -47 -133t-133 -47q-41 0 -74.5 11.5t-56.5 34.5t-34.5 56.5t-11.5 74.5q0 86 47 132.5t134 46.5q85 0 130.5 -45.5t45.5 -130.5zM86 16l-44 44l46 45l44 -43zM468 15l-44 45l45 45l44 -44z
M401 256q0 26 -7 49t-21 37q-15 14 -38 21t-49 7q-59 0 -90.5 -31t-31.5 -89q0 -56 30 -86t87 -30t88.5 31.5t31.5 90.5z" />
    <glyph glyph-name="brokenbar" unicode="&#xa6;" horiz-adv-x="168" 
d="M51 270v310h65v-310h-65zM51 -146v309h65v-309h-65z" />
    <glyph glyph-name="twosuperior" unicode="&#xb2;" horiz-adv-x="326" 
d="M23 312q0 28 11 54t30.5 46t45 34.5t55.5 20.5l17 3q25 5 40.5 18.5t15.5 30.5q0 2 -1.5 4t-3.5 4q-2 16 -23.5 27.5t-49.5 11.5q-34 0 -57 -14t-23 -35q0 -1 0.5 -5t3.5 -11h-61v19q0 20 11 37.5t29.5 30.5t43.5 20.5t53 7.5t52.5 -7.5t43 -21t29 -31.5t10.5 -39
q0 -37 -29.5 -63.5t-77.5 -34.5l-17 -3q-23 -3 -40 -14.5t-28 -27t-16 -35t-5 -38.5h213v-53h-272v64z" />
    <glyph glyph-name="threesuperior" unicode="&#xb3;" horiz-adv-x="330" 
d="M49 603h226v-42q-17 -22 -33 -43.5t-32 -43.5q36 -12 61 -41.5t25 -71.5q0 -26 -10.5 -48.5t-29 -39.5t-43.5 -27t-53 -10q-26 0 -49.5 9.5t-42 26t-30.5 40t-15 50.5h59q3 -30 24.5 -51t53.5 -21q33 0 56.5 21t23.5 50q0 17 -8.5 30.5t-22 22.5t-30.5 14t-35 5v40l58 79
h-153v51z" />
    <glyph glyph-name="onesuperior" unicode="&#xb9;" horiz-adv-x="209" 
d="M88 614h43v-311h49v-48h-152v48h48v252l-48 -24v54z" />
    <glyph glyph-name="onequarter" unicode="&#xbc;" horiz-adv-x="730" 
d="M204 1h-62l392 601h60zM631 354q-35 -68 -61 -121q-11 -23 -22 -44.5t-19 -38.5l-19 -38h95v77h52v-76h45v-49h-45v-70h-53v70h-157v40l121 250h63zM109 614h44v-311h49v-48h-152v48h48v252l-48 -24v54z" />
    <glyph glyph-name="onehalf" unicode="&#xbd;" horiz-adv-x="730" 
d="M15 574q15 8 30.5 15t30.5 15h41v-312h50v-47h-152v47h48v253l-48 -24v53zM421 64q0 59 40.5 100.5t107.5 54.5q29 9 49.5 20.5t20.5 30.5q0 21 -24.5 34t-54.5 13q-35 0 -58 -14t-23 -34q0 -3 0.5 -8t0.5 -8h-59v18q0 21 11 38.5t30 30.5t44 20.5t54 7.5q28 0 53 -8
t43.5 -21.5t29.5 -31.5t11 -38q0 -37 -30.5 -63t-78.5 -36q-50 -11 -78.5 -39.5t-28.5 -78.5h216v-52h-276v64zM139 1h-58l393 603h56z" />
    <glyph glyph-name="threequarters" unicode="&#xbe;" horiz-adv-x="791" 
d="M58 605h227v-43l-64 -87q36 -12 60.5 -41.5t24.5 -71.5q0 -26 -10.5 -48.5t-29 -39.5t-43.5 -27t-53 -10q-26 0 -49.5 9.5t-41.5 26t-30 39.5t-15 50h58q3 -29 25 -50t53 -21q15 0 29.5 5.5t25.5 15.5t17.5 22.5t6.5 27.5q0 34 -28.5 53t-65.5 19v40l57 79h-154v52z
M560 112h94v76h52v-75h46v-49h-46v-70h-53v69h-158v40q31 63 62 125t62 126h61zM251 0h-62q100 151 196.5 300t195.5 300h61z" />
    <glyph glyph-name="Eth" unicode="&#xd0;" horiz-adv-x="612" 
d="M65 334v274h223q55 0 103.5 -24t84.5 -65t57 -96.5t21 -118.5t-21 -118.5t-57 -96.5t-84.5 -65t-103.5 -24h-223v275h-62l-1 59h63zM288 61q41 0 77 19t63 52t42.5 77t15.5 95q0 49 -15 93.5t-41.5 77.5t-62 52.5t-75.5 19.5h-160v-213h97v-59h-97v-214h156z" />
    <glyph glyph-name="multiply" unicode="&#xd7;" horiz-adv-x="548" 
d="M277 153q-4 -3 -16 -15.5t-29 -29t-36 -35t-35 -34.5t-28 -27.5t-15 -14.5l-44 44l158 155l-156 155l43 44l156 -155l154 155l45 -45l-154 -154q5 -5 28 -28.5t49.5 -50.5t49 -50t27.5 -27l-45 -44z" />
    <glyph glyph-name="Yacute" unicode="&#xdd;" horiz-adv-x="480" 
d="M468 608l-194 -291v-317h-68v317l-195 291h79l150 -225l149 225h79zM217 669h-55l65 120h91z" />
    <glyph glyph-name="Thorn" unicode="&#xde;" horiz-adv-x="512" 
d="M138 0h-68v692h70v-134h133q42 0 78.5 -14t64 -38.5t43.5 -57t16 -69.5t-16 -69t-43.5 -56t-64 -38t-78.5 -14h-135v-202zM138 263h135q28 0 52.5 9t43 25t29 37t10.5 45t-10.5 45.5t-29 37.5t-43 25.5t-52.5 9.5h-135v-234z" />
    <glyph glyph-name="yacute" unicode="&#xfd;" horiz-adv-x="497" 
d="M263 -304q-47 0 -98 14l11 58q21 -7 44 -9.5t43 -2.5q30 0 49 6.5t29.5 17t14 24t3.5 26.5v229q-21 -29 -52.5 -47t-64.5 -18q-37 0 -69 17.5t-55.5 47.5t-37 70.5t-13.5 87.5v218h66v-218q0 -33 9 -62.5t24 -52t35 -35.5t43 -13q24 0 44.5 12.5t36.5 33.5t25 49t9 60
v226h66v-605q0 -30 -7.5 -54.5t-26.5 -42t-50 -27.5t-78 -10zM226 495h-56l65 120h92z" />
    <glyph glyph-name="thorn" unicode="&#xfe;" horiz-adv-x="521" 
d="M129 370q24 32 61 52t77 20q41 0 77.5 -17.5t63.5 -48t42.5 -71.5t15.5 -88t-15.5 -88t-42.5 -71.5t-63.5 -48t-77.5 -17.5q-40 0 -77 19.5t-61 51.5v-354h-62v975h62v-314zM127 223q0 -44 11 -76.5t30 -54t44.5 -32t54.5 -10.5q28 0 52.5 13t42.5 36t28 53t10 65
q0 34 -10 64.5t-28 53t-42.5 35.5t-52.5 13q-27 0 -52 -9.5t-44.5 -29t-31.5 -50t-12 -71.5z" />
    <glyph glyph-name="eth" unicode="&#xf0;" horiz-adv-x="522" 
d="M56 203q0 46 14 87.5t40.5 73.5t64.5 51t87 19q17 0 35.5 -6.5t35 -17.5t30.5 -24.5t23 -26.5q-9 28 -22.5 58.5t-30 59t-35.5 52.5t-40 39q-29 -20 -57 -41t-57 -41q-6 9 -12.5 18.5t-14.5 18.5l102 72q-33 17 -74 26.5t-78 9.5v51q57 0 107 -14t93 -40l42 30t42 31
l30 -37q-19 -13 -37 -26t-37 -26q79 -66 119.5 -168t40.5 -220q0 -43 -14.5 -83t-41 -71t-64.5 -49.5t-86 -18.5t-86 16.5t-64.5 45t-40.5 67.5t-14 84zM125 203q0 -29 8.5 -57.5t25.5 -51t42.5 -36t59.5 -13.5q31 0 56 15t43 39t27.5 54t9.5 59q0 36 -10 66t-28 52
t-43 34.5t-55 12.5q-35 0 -60.5 -16t-42 -41.5t-25 -56t-8.5 -60.5z" />
    <glyph glyph-name="numbersign" unicode="#" horiz-adv-x="494" 
d="M22 307h126l19 75h-126l13 53h126q1 6 7 31t13.5 54t13.5 54t8 30h53l-41 -169h75q1 6 7.5 31t13.5 54t13 54t8 30h54l-42 -169h125l-13 -53h-126l-18 -75h125l-12 -52h-126q-1 -6 -6 -25.5t-11.5 -46t-14 -56t-14 -56t-11.5 -46t-6 -25.5h-53l62 255h-75
q-2 -6 -6.5 -25.5t-11 -46t-14 -56t-14 -56t-11.5 -46t-6 -25.5h-54l64 255h-127zM202 307h75l18 75h-74z" />
    <glyph glyph-name="exclam" unicode="!" horiz-adv-x="169" 
d="M41 643q-1 19 13 30.5t31 11.5t30.5 -11.5t13.5 -30.5l-11 -475q0 -13 -9.5 -21.5t-23.5 -8.5t-24 8.5t-10 21.5zM43 30q0 15 12.5 26.5t29.5 11.5t29 -11.5t12 -26.5q0 -16 -12 -27.5t-29 -11.5t-29.5 11.5t-12.5 27.5z" />
    <glyph glyph-name="quotedbl" unicode="&#x22;" horiz-adv-x="242" 
d="M36 666q2 14 12 20.5t22 6.5q14 0 23.5 -9t9.5 -24v-3l-14 -88q-2 -14 -12 -20.5t-21 -6.5q-14 0 -23 8.5t-9 23.5v3zM149 666q2 14 12.5 20.5t21.5 6.5q14 0 23.5 -9t9.5 -23v-4l-14 -88q-2 -14 -12 -20.5t-21 -6.5q-13 0 -22 8.5t-9 22.5v4h-1q4 23 7 44.5t5 44.5z" />
    </font>
</defs>
</svg>
